<?xml version="1.0" standalone="no"?>
<!DOCTYPE svg PUBLIC "-//W3C//DTD SVG 1.1//EN" "http://www.w3.org/Graphics/SVG/1.1/DTD/svg11.dtd" >
<svg xmlns="http://www.w3.org/2000/svg" xmlns:xlink="http://www.w3.org/1999/xlink" version="1.1">
<metadata>
Created by FontForge 20170731 at Thu Jul  3 15:14:43 2014
 By Aleksey,,,
Copyright (c) 2013 by Total Identity. All rights reserved.
</metadata>
<defs>
<font id="LGSmartLight-SemiBold" horiz-adv-x="563" >
  <font-face 
    font-family="LG Smart_Global Light"
    font-weight="600"
    font-style="italic"
    font-stretch="normal"
    units-per-em="1000"
    panose-1="2 11 7 2 4 4 2 6 2 3"
    ascent="800"
    descent="-200"
    x-height="458"
    cap-height="659"
    bbox="-59 -294 1036 995"
    underline-thickness="67"
    underline-position="-286"
    slope="-12"
    unicode-range="U+0020-FB02"
  />
<missing-glyph horiz-adv-x="545" 
d="M74 659h397v-659h-397v659zM421 614h-298v-570h298v570zM248 209v25q0 37 13.5 64.5t30 50.5t30 44t13.5 45q0 27 -18 44t-53 17q-24 0 -43.5 -8.5t-30.5 -17.5l-18 33q41 32 92 32q54 0 84 -27t30 -72q0 -30 -13.5 -53.5t-30 -46t-30 -47.5t-13.5 -58v-25h-43zM295 120
h-49v41h49v-41z" />
    <glyph glyph-name="fi" unicode="fi" horiz-adv-x="549" 
d="M87 380h-62v78h62v46q0 51 16 87t46 58.5t71.5 33t92.5 10.5q48 0 97.5 -6t81.5 -15v-105h-104v49h-5q-28 7 -63 7q-71 0 -101.5 -33t-30.5 -86v-46h303v-458h-102v380h-201v-380h-101v380z" />
    <glyph glyph-name="fl" unicode="fl" horiz-adv-x="559" 
d="M87 380h-62v78h62v49q0 52 16.5 87.5t47 57.5t72.5 31.5t93 9.5q24 0 49 -1.5t48 -4.5t43.5 -7t34.5 -8v-539q0 -41 10.5 -52t39.5 -11v-73q-3 -1 -10 -1q-4 -1 -11 -1h-10q-69 0 -95 35t-26 101v484h-4q-32 7 -68 7q-70 0 -99.5 -32.5t-29.5 -83.5v-48h135v-78h-135
v-380h-101v380z" />
    <glyph glyph-name=".notdef" horiz-adv-x="545" 
d="M74 659h397v-659h-397v659zM421 614h-298v-570h298v570zM248 209v25q0 37 13.5 64.5t30 50.5t30 44t13.5 45q0 27 -18 44t-53 17q-24 0 -43.5 -8.5t-30.5 -17.5l-18 33q41 32 92 32q54 0 84 -27t30 -72q0 -30 -13.5 -53.5t-30 -46t-30 -47.5t-13.5 -58v-25h-43zM295 120
h-49v41h49v-41z" />
    <glyph glyph-name=".null" horiz-adv-x="0" 
 />
    <glyph glyph-name="nonmarkingreturn" horiz-adv-x="333" 
 />
    <glyph glyph-name="space" unicode=" " horiz-adv-x="249" 
 />
    <glyph glyph-name="exclam" unicode="!" horiz-adv-x="250" 
d="M168 173h-86l-14 486h114zM71 103h108v-103h-108v103z" />
    <glyph glyph-name="quotedbl" unicode="&#x22;" horiz-adv-x="419" 
d="M47 438l-14 249h100l-14 -249h-72zM226 438l-14 249h100l-14 -249h-72z" />
    <glyph glyph-name="numbersign" unicode="#" horiz-adv-x="533" 
d="M469 320h-78v-108h78v-71h-78v-67h-77v67h-96v-67h-77v67h-78v71h78v108h-78v71h78v67h77v-67h96v67h77v-67h78v-71zM218 212h96v108h-96v-108z" />
    <glyph glyph-name="dollar" unicode="$" horiz-adv-x="532" 
d="M239 754h64v-87q44 -1 90 -11q53 -9 97 -32l-37 -78q-33 16 -74 26q-36 11 -76 12v-210l43 -17q11 -5 22.5 -10t22.5 -10q22 -12 42 -25.5t34.5 -32.5t23 -45t8.5 -62q0 -89 -67 -135q-51 -36 -129 -45v-81h-64v79q-47 2 -98 12q-59 12 -106 37l39 79q43 -20 87 -31
q35 -8 78 -10v210q-23 8 -44 17.5t-41 19.5q-27 13 -47.5 27.5t-35 34t-21.5 44.5t-7 60q0 63 38 106.5t104 58.5q23 7 54 10v89zM362 101q34 25 34 65q0 30 -16.5 50t-39.5 32q-8 4 -17.5 8t-19.5 8v-184q36 6 59 21zM182 560q-34 -22 -34 -63q0 -32 17.5 -52.5t46.5 -33.5
q10 -6 27 -13v183q-36 -6 -57 -21z" />
    <glyph glyph-name="percent" unicode="%" horiz-adv-x="708" 
d="M221 494q0 55 -13.5 86t-45.5 31t-46 -31t-14 -86t14 -85t46 -30t45.5 30t13.5 85zM619 166q0 55 -13 86t-46 31q-31 0 -45.5 -31t-14.5 -86q0 -115 60 -115q33 0 46 29t13 86zM161 -31h-94l478 723h95zM560 -10q-70 0 -102.5 48.5t-32.5 127.5q0 81 32.5 128.5
t102.5 47.5q69 0 101.5 -47.5t32.5 -128.5q0 -79 -33 -127.5t-101 -48.5zM162 318q-71 0 -103.5 48.5t-32.5 127.5q0 81 32 129t104 48q69 0 101.5 -48t32.5 -129q0 -79 -32.5 -127.5t-101.5 -48.5z" />
    <glyph glyph-name="ampersand" unicode="&#x26;" horiz-adv-x="610" 
d="M603 0h-123l-56 63q-31 -26 -67 -46q-53 -28 -123 -28q-44 0 -81.5 8.5t-65 29.5t-43 55t-15.5 85q0 75 47 127q31 34 88 63q-19 23 -32 47q-28 46 -28 98q0 39 14 69.5t39 52.5t60.5 33.5t78.5 11.5q39 0 71.5 -8.5t56 -26.5t37 -46t13.5 -67q0 -62 -37 -103t-94 -68
q-19 -10 -35 -17l119 -135q14 21 24 40q11 23 21.5 45.5t18.5 44.5l89 -23q-24 -56 -56 -112q-8 -17 -17.5 -32t-20.5 -29zM213 289q-34 -21 -56.5 -50t-22.5 -67q0 -52 29 -76.5t77 -24.5q47 0 85 24q11 7 21.5 14.5t20.5 17.5l-147 165zM279 407q42 17 67.5 42.5
t25.5 62.5q0 36 -19 56.5t-55 20.5q-90 0 -90 -85q0 -44 21 -75q5 -8 10.5 -16t12.5 -18q13 7 27 12z" />
    <glyph glyph-name="quotesingle" unicode="'" horiz-adv-x="237" 
d="M82 438l-14 249h100l-14 -249h-72z" />
    <glyph glyph-name="parenleft" unicode="(" horiz-adv-x="343" 
d="M49 265q0 79 13 141.5t38 116.5t61.5 102.5t83.5 98.5l64 -53q-41 -45 -70.5 -88.5t-49 -91t-29 -102.5t-9.5 -124t10 -125t29.5 -104.5t49.5 -92.5t69 -89l-64 -53q-46 50 -82.5 98.5t-61.5 103t-38.5 118.5t-13.5 144z" />
    <glyph glyph-name="parenright" unicode=")" horiz-adv-x="343" 
d="M294 265q0 -81 -13.5 -144.5t-38.5 -117.5t-61.5 -102.5t-81.5 -99.5l-65 53q39 45 68.5 88.5t50 92t30.5 105t10 125.5t-10 124t-30 103t-49.5 91t-69.5 88l65 53q45 -51 81.5 -99t61.5 -101.5t38.5 -116.5t13.5 -142z" />
    <glyph glyph-name="asterisk" unicode="*" horiz-adv-x="453" 
d="M298 287l-72 125l-71 -125l-88 60l99 108l-137 29l31 102l130 -60l-17 142h106l-16 -140l130 58l31 -102l-138 -29l100 -108z" />
    <glyph glyph-name="plus" unicode="+" 
d="M325 224v-162h-88v162h-166v83h166v163h88v-163h167v-83h-167z" />
    <glyph glyph-name="comma" unicode="," horiz-adv-x="218" 
d="M12 -112q31 56 41 106t10 109h95q0 -44 -5.5 -79t-15.5 -65t-25.5 -57.5t-34.5 -54.5z" />
    <glyph glyph-name="hyphen" unicode="-" horiz-adv-x="366" 
d="M312 191h-259v86h259v-86z" />
    <glyph glyph-name="period" unicode="." horiz-adv-x="219" 
d="M162 0h-108v103h108v-103z" />
    <glyph glyph-name="slash" unicode="/" horiz-adv-x="370" 
d="M268 687h98l-263 -723h-99z" />
    <glyph glyph-name="zero" unicode="0" 
d="M279 -11q-67 0 -113.5 27t-75 73t-41.5 107.5t-13 131.5q0 73 13.5 135t42.5 108t76 72t115 26q66 0 112.5 -26.5t75.5 -72t42 -107.5t13 -133q0 -72 -13.5 -134.5t-42.5 -108.5t-76.5 -72t-114.5 -26zM284 588q-41 0 -68.5 -19t-44.5 -53.5t-24.5 -82.5t-7.5 -105
q0 -58 7.5 -105.5t24 -81.5t43.5 -52.5t65 -18.5q39 0 66.5 18.5t44.5 52.5t24.5 82t7.5 107q0 54 -7 101t-23 82t-42.5 55t-65.5 20z" />
    <glyph glyph-name="one" unicode="1" 
d="M261 0v558l-139 -69l-32 67l204 103h71v-659h-104z" />
    <glyph glyph-name="two" unicode="2" 
d="M511 0h-451v60l218 224q30 31 50 57t32.5 49t17.5 44.5t5 43.5q0 55 -36.5 82.5t-91.5 27.5q-49 0 -91 -14t-80 -36l-34 72q51 28 103 43.5t109 15.5q51 0 93 -10.5t73 -33t48 -58t17 -86.5q0 -33 -10.5 -63.5t-29 -60t-43.5 -59t-54 -59.5l-153 -157h308v-82z" />
    <glyph glyph-name="three" unicode="3" 
d="M264 -11q-79 0 -136.5 23.5t-88.5 53.5l54 67q27 -20 69.5 -39t99.5 -19q65 0 106 28.5t41 87.5q0 55 -39.5 83.5t-111.5 28.5q-23 0 -38.5 -2t-24.5 -4l-2 86h38q28 0 56 5.5t50.5 18t36.5 32.5t14 50q0 52 -33.5 74.5t-88.5 22.5q-48 0 -90 -17.5t-70 -36.5l-42 69
q14 11 35 23t48 22t59.5 16.5t68.5 6.5q103 0 162 -40t59 -130q0 -26 -8.5 -48.5t-23 -40.5t-33.5 -31t-40 -20q57 -19 93.5 -59t36.5 -110q0 -51 -19 -88.5t-52.5 -62.5t-81 -37.5t-104.5 -12.5z" />
    <glyph glyph-name="four" unicode="4" 
d="M445 659v-438h87v-79h-87v-142h-103v142h-318v62l262 455h159zM342 221v355h-8l-200 -355h208z" />
    <glyph glyph-name="five" unicode="5" 
d="M97 334v325h374v-81h-270v-164h31q66 0 118 -11t88 -35.5t55 -63.5t19 -94q0 -109 -68 -165t-183 -56q-73 0 -123.5 23.5t-83.5 54.5l58 68q28 -25 64 -43t87 -18q69 0 105.5 32t36.5 95q0 36 -14 61.5t-38.5 41.5t-57.5 23t-72 7h-126z" />
    <glyph glyph-name="six" unicode="6" 
d="M50 298q0 87 17 156t53 117t92 73.5t135 25.5q43 0 77.5 -6.5t62.5 -18.5l-24 -77q-22 9 -50.5 14.5t-59.5 5.5q-45 0 -78 -13t-55.5 -36.5t-36 -56t-19.5 -71.5l-4 -28q11 8 24.5 14t27.5 11q45 14 90 14q106 0 159.5 -51t53.5 -154q0 -51 -15 -93t-44 -72t-72 -46
t-98 -16q-115 0 -175.5 72t-60.5 236zM161 213q3 -31 11.5 -57.5t23.5 -45.5t37.5 -30t53.5 -11q58 0 90.5 35t32.5 107q0 61 -33.5 93.5t-91.5 32.5q-46 0 -83 -15q-13 -5 -24.5 -11.5t-21.5 -13.5q0 -22 1.5 -43t3.5 -41z" />
    <glyph glyph-name="seven" unicode="7" 
d="M168 0l235 577h-360v82h477v-57l-243 -602h-109z" />
    <glyph glyph-name="eight" unicode="8" 
d="M404 342q24 -8 46 -22t38.5 -35t26 -47.5t9.5 -59.5q0 -94 -64 -141.5t-178 -47.5q-115 0 -179.5 47.5t-64.5 141.5q0 31 9.5 58t26 48.5t38 36t46.5 21.5q-43 19 -72.5 54.5t-29.5 95.5q0 85 58.5 131t167.5 46q108 0 166 -46t58 -131q0 -60 -29.5 -96t-72.5 -54z
M411 185q0 55 -34.5 84t-94.5 29q-64 0 -98.5 -29t-34.5 -84q0 -57 34.5 -87t98.5 -30q60 0 94.5 30t34.5 87zM395 484q0 52 -29.5 79t-83.5 27q-57 0 -87.5 -27t-30.5 -79q0 -51 30.5 -78.5t87.5 -27.5q54 0 83.5 27.5t29.5 78.5z" />
    <glyph glyph-name="nine" unicode="9" 
d="M513 361q0 -87 -17 -156t-53 -117t-92 -73.5t-135 -25.5q-43 0 -77.5 6.5t-62.5 18.5l24 77q22 -9 50.5 -14.5t59.5 -5.5q45 0 78 13t55.5 36.5t36 56t19.5 71.5l4 28q-11 -8 -24.5 -14t-27.5 -11q-45 -14 -90 -14q-106 0 -159.5 51t-53.5 154q0 51 15 93t44 72t71.5 46
t98.5 16q115 0 175.5 -72t60.5 -236zM402 446q-3 31 -11.5 57.5t-23.5 45.5t-37.5 30t-53.5 11q-58 0 -90.5 -35t-32.5 -107q0 -61 33.5 -93.5t91.5 -32.5q45 0 83 15q13 5 24.5 11.5t21.5 13.5q0 22 -1.5 43t-3.5 41z" />
    <glyph glyph-name="colon" unicode=":" horiz-adv-x="219" 
d="M162 354h-108v103h108v-103zM162 0h-108v103h108v-103z" />
    <glyph glyph-name="semicolon" unicode=";" horiz-adv-x="219" 
d="M12 -112q31 56 41 106t10 109h95q0 -44 -5.5 -79t-15.5 -65t-25.5 -57.5t-34.5 -54.5zM164 354h-108v103h108v-103z" />
    <glyph glyph-name="less" unicode="&#x3c;" 
d="M379 -12l-277 277l277 278l64 -59l-216 -215l217 -217z" />
    <glyph glyph-name="equal" unicode="=" 
d="M493 153h-424v82h424v-82zM493 296h-424v82h424v-82z" />
    <glyph glyph-name="greater" unicode="&#x3e;" 
d="M164 543l277 -277l-277 -278l-64 59l216 215l-217 217z" />
    <glyph glyph-name="question" unicode="?" horiz-adv-x="429" 
d="M234 0h-108v103h108v-103zM131 173v54q0 37 11.5 65.5t28 51.5t36.5 42t36.5 37t28 36t11.5 40q0 38 -25.5 61t-77.5 23q-39 0 -74 -12t-57 -27l-31 78q33 19 79.5 33t100.5 14q42 0 78 -9t61.5 -28t40 -48.5t14.5 -70.5q0 -38 -12.5 -65.5t-30.5 -50t-40 -42t-40 -40.5
t-30.5 -46t-12.5 -59v-37h-95z" />
    <glyph glyph-name="at" unicode="@" horiz-adv-x="1003" 
d="M560 469q39 0 81.5 -7t72.5 -22l-50 -249q-2 -14 -3.5 -26.5t-1.5 -23.5q0 -28 13.5 -46t44.5 -18q39 0 68 17.5t47.5 49t27.5 73.5t9 92q0 79 -20 132.5t-58.5 86t-95.5 46.5t-131 14q-101 0 -180 -29t-133 -85.5t-82 -139.5t-28 -191q0 -78 19.5 -132.5t57 -88.5
t91.5 -49.5t122 -15.5q51 0 92.5 7t90.5 20l23 -76q-48 -15 -99 -24t-109 -9q-186 0 -286.5 88t-100.5 280q0 129 38 227.5t107.5 165t166.5 100t216 33.5q94 0 167.5 -20t124.5 -63.5t78 -112.5t27 -166q0 -65 -15.5 -121.5t-47.5 -99t-80.5 -67t-113.5 -24.5q-60 0 -98 29
q-21 15 -32 42l-8 -9q-26 -28 -65 -48t-93 -20q-77 0 -114 48.5t-37 123.5q0 156 75.5 232t221.5 76zM558 395q-100 0 -145.5 -59t-45.5 -162q0 -54 19 -81t51 -27q42 0 74 26q11 10 22 22t23 28l52 248q-13 2 -25 3.5t-25 1.5z" />
    <glyph glyph-name="A" unicode="A" horiz-adv-x="633" 
d="M510 0l-62 182h-268l-62 -182h-112l239 659h144l236 -659h-115zM310 576l-102 -310h211l-101 310h-8z" />
    <glyph glyph-name="B" unicode="B" horiz-adv-x="588" 
d="M431 351q52 -16 85.5 -55t33.5 -105q0 -51 -17.5 -87t-47.5 -59.5t-70 -34t-85 -10.5h-259v659h246q99 0 156.5 -37.5t57.5 -126.5q0 -54 -26 -90t-74 -54zM422 480q0 29 -9 47.5t-24 29t-35 14.5t-43 4h-138v-193h142q52 0 79.5 25t27.5 73zM314 83q25 0 48 4.5t40 16.5
t27.5 33t10.5 54q0 32 -9.5 53.5t-26 34t-38.5 18t-48 5.5h-145v-219h141z" />
    <glyph glyph-name="C" unicode="C" horiz-adv-x="597" 
d="M337 -11q-155 1 -224 86.5t-69 253.5q0 175 78.5 257.5t223.5 82.5q30 0 61 -5.5t59.5 -16t53 -27t42.5 -38.5l-62 -61q-28 31 -63.5 48t-87.5 17q-103 0 -150 -67t-47 -199q0 -120 45.5 -181t144.5 -61q60 0 107 12.5t85 28.5l25 -81q-40 -21 -99.5 -35t-122.5 -14z" />
    <glyph glyph-name="D" unicode="D" horiz-adv-x="647" 
d="M271 659q79 0 140.5 -18t104 -57.5t64.5 -103t22 -153.5q0 -93 -27 -156t-74.5 -101t-113 -54t-142.5 -16h-174v659h200zM242 83q59 0 105.5 12t79 41t49.5 78t17 124q0 123 -57.5 180t-165.5 57h-95v-492h67z" />
    <glyph glyph-name="E" unicode="E" horiz-adv-x="542" 
d="M490 83v-83h-419v659h408v-84h-304v-195h294v-82h-294v-215h315z" />
    <glyph glyph-name="F" unicode="F" horiz-adv-x="505" 
d="M175 0h-104v659h394v-84h-290v-195h269v-82h-269v-298z" />
    <glyph glyph-name="G" unicode="G" horiz-adv-x="653" 
d="M586 34q-45 -21 -105.5 -33t-129.5 -12q-159 0 -233 87.5t-74 252.5q0 87 21.5 151t62.5 106t99.5 62.5t132.5 20.5q72 0 130.5 -21.5t96.5 -69.5l-64 -57q-28 30 -66 48.5t-95 18.5q-109 0 -160 -68t-51 -200q0 -123 50 -185t155 -62q45 0 81 6q13 2 24.5 4.5t22.5 5.5
v177h-151v82h253v-314z" />
    <glyph glyph-name="H" unicode="H" horiz-adv-x="662" 
d="M590 659v-659h-104v288h-311v-288h-104v659h104v-286h311v286h104z" />
    <glyph glyph-name="I" unicode="I" horiz-adv-x="248" 
d="M71 659h104v-659h-104v659z" />
    <glyph glyph-name="J" unicode="J" horiz-adv-x="353" 
d="M179 659h104v-464q0 -107 -44 -153.5t-143 -46.5q-22 0 -47.5 3t-47.5 12l14 78q19 -6 39 -8t35 -2q43 0 66.5 22.5t23.5 82.5v476z" />
    <glyph glyph-name="K" unicode="K" horiz-adv-x="580" 
d="M175 0h-104v659h104v-289h54l234 289h119l-267 -323l256 -336h-126l-216 289h-54v-289z" />
    <glyph glyph-name="L" unicode="L" horiz-adv-x="468" 
d="M465 83v-83h-394v659h104v-576h290z" />
    <glyph glyph-name="M" unicode="M" horiz-adv-x="823" 
d="M752 659v-659h-104v576h-9l-155 -576h-141l-159 576h-9v-576h-104v659h188l154 -577h8l149 577h182z" />
    <glyph glyph-name="N" unicode="N" horiz-adv-x="701" 
d="M628 659v-659h-181l-263 576h-9v-576h-104v659h182l263 -577h8v577h104z" />
    <glyph glyph-name="O" unicode="O" horiz-adv-x="665" 
d="M44 333q0 172 72.5 254t226.5 82q77 0 130 -23.5t86 -68t47.5 -108t14.5 -143.5q0 -171 -73 -254t-228 -83q-78 0 -130.5 24t-85 68.5t-46.5 108t-14 143.5zM512 339q0 51 -7.5 96.5t-26.5 79.5t-51.5 53.5t-82.5 19.5q-54 0 -91 -17t-59.5 -51t-32.5 -83.5t-10 -114.5
q0 -52 7.5 -97.5t26.5 -79t51 -53t81 -19.5q57 0 94.5 17t60 50.5t31.5 83.5t9 115z" />
    <glyph glyph-name="P" unicode="P" horiz-adv-x="562" 
d="M71 0v659h234q112 0 170 -49t58 -151q0 -51 -16 -90.5t-44.5 -66.5t-68 -41t-86.5 -14h-143v-247h-104zM302 330q25 0 48 7.5t39.5 23t26.5 40t10 58.5q0 32 -10.5 54.5t-28 36t-39.5 19.5t-46 6h-127v-245h127z" />
    <glyph glyph-name="Q" unicode="Q" horiz-adv-x="665" 
d="M44 331q0 173 72.5 255.5t227.5 82.5q78 0 131.5 -23.5t85.5 -68t46 -108.5t14 -144q0 -97 -25.5 -161t-67.5 -103q-8 -7 -15 -12.5t-14 -10.5l131 -122l-79 -57l-139 141q-23 -5 -46 -8t-46 -3q-77 0 -129.5 23.5t-85 68t-47 107.5t-14.5 143zM512 338q0 52 -7 97.5
t-25.5 79.5t-51 53.5t-82.5 19.5q-56 0 -93 -17.5t-60 -51t-32.5 -83.5t-9.5 -115q0 -53 7.5 -98.5t26 -79.5t50.5 -53.5t82 -19.5q57 0 94.5 17.5t60 51t31.5 83.5t9 116z" />
    <glyph glyph-name="R" unicode="R" horiz-adv-x="583" 
d="M71 0v659h242q112 0 170 -44t58 -146q0 -86 -47 -133q-34 -34 -78 -50l143 -286h-114l-132 270h-138v-270h-104zM312 352q52 0 86 26t34 91q0 57 -34 81.5t-86 24.5h-137v-223h137z" />
    <glyph glyph-name="S" unicode="S" horiz-adv-x="536" 
d="M340 248q-20 10 -43 19t-47.5 18t-49 18.5t-45.5 20.5q-27 13 -48 27.5t-35 34t-21.5 44.5t-7.5 60q0 43 17.5 76.5t49.5 56.5t76.5 34.5t99.5 11.5q54 0 106.5 -10.5t97.5 -34.5l-36 -78q-30 15 -73.5 27.5t-94.5 12.5q-69 0 -103.5 -23.5t-34.5 -65.5q0 -32 18 -52.5
t46 -33.5q36 -18 85.5 -35t93.5 -39q23 -12 43 -25.5t34.5 -32.5t23 -45t8.5 -62q0 -44 -17.5 -78t-49.5 -57t-77.5 -35.5t-100.5 -12.5q-57 0 -114 12.5t-105 37.5l39 79q45 -22 87 -32.5t90 -10.5q76 0 110 25.5t34 65.5q0 30 -16.5 50t-39.5 32z" />
    <glyph glyph-name="T" unicode="T" horiz-adv-x="512" 
d="M509 659v-84h-201v-575h-104v575h-201v84h506z" />
    <glyph glyph-name="U" unicode="U" horiz-adv-x="634" 
d="M570 659v-406q0 -140 -67.5 -202t-193.5 -62t-185.5 63.5t-59.5 207.5v399h104v-414q0 -83 31.5 -128.5t108.5 -45.5q43 0 73 10.5t49 33t27.5 59t8.5 87.5v398h104z" />
    <glyph glyph-name="V" unicode="V" horiz-adv-x="578" 
d="M300 82l167 577h108l-209 -659h-144l-219 659h113l175 -577h9z" />
    <glyph glyph-name="W" unicode="W" horiz-adv-x="923" 
d="M919 659l-172 -659h-153l-127 576h-9l-121 -576h-155l-178 659h114l139 -577h8l121 577h158l124 -577h9l133 577h109z" />
    <glyph glyph-name="X" unicode="X" horiz-adv-x="599" 
d="M288 285l-162 -285h-118l204 338l-191 321h122l147 -264h20l149 264h117l-190 -319l205 -340h-120l-163 285h-20z" />
    <glyph glyph-name="Y" unicode="Y" horiz-adv-x="575" 
d="M339 282v-282h-104v281q-12 19 -31.5 49t-41.5 66t-46 74.5t-46 74.5t-40.5 65.5t-30.5 48.5h122l163 -281h8l163 281h120z" />
    <glyph glyph-name="Z" unicode="Z" horiz-adv-x="550" 
d="M520 591l-367 -508h366v-83h-494v67l367 509h-343v83h471v-68z" />
    <glyph glyph-name="bracketleft" unicode="[" horiz-adv-x="342" 
d="M298 -195h-249v892h249v-83h-146v-728h146v-81z" />
    <glyph glyph-name="backslash" unicode="\" horiz-adv-x="370" 
d="M366 -36h-98l-264 723h99z" />
    <glyph glyph-name="bracketright" unicode="]" horiz-adv-x="342" 
d="M44 -114h147v728h-147v83h250v-892h-250v81z" />
    <glyph glyph-name="asciicircum" unicode="^" horiz-adv-x="455" 
d="M304 659l121 -350h-90l-103 281h-9l-98 -281h-95l122 350h152z" />
    <glyph glyph-name="underscore" unicode="_" horiz-adv-x="425" 
d="M36 -43h353v-73h-353v73z" />
    <glyph glyph-name="grave" unicode="`" horiz-adv-x="533" 
d="M255 685l114 -159h-97l-131 159h114z" />
    <glyph glyph-name="a" unicode="a" horiz-adv-x="473" 
d="M459 -1q-17 -3 -38 -3q-36 0 -58 12.5t-34 35.5q-25 -22 -64.5 -38.5t-82.5 -16.5q-46 0 -75 11.5t-46 31t-23.5 45.5t-6.5 55q0 44 14.5 72t41 44t63.5 22t81 6q41 0 82 -3v22q0 54 -21 76.5t-79 22.5q-40 0 -76.5 -10t-63.5 -24l-23 65q37 18 86 31t103 13
q50 0 84 -9.5t54.5 -32t29.5 -59t9 -90.5v-153q0 -32 11 -43.5t32 -11.5v-71zM229 205q-52 0 -71.5 -17.5t-19.5 -52.5q0 -36 15.5 -54.5t55.5 -18.5q25 0 53.5 11t50.5 30v97q-22 4 -42.5 4.5t-41.5 0.5z" />
    <glyph glyph-name="b" unicode="b" horiz-adv-x="508" 
d="M253 -11q-34 0 -62 9q-13 3 -25 8t-25 12l-8 -18h-76v680l103 13v-256q19 10 39 18q39 14 84 14q97 0 143.5 -60.5t46.5 -169.5q0 -55 -12 -101t-38 -79t-68 -51.5t-102 -18.5zM186 71q27 -8 51 -8q60 0 95 39t35 132q0 35 -6 64.5t-20 50.5t-36.5 33t-54.5 12
q-37 0 -65 -16q-6 -3 -12 -7.5t-13 -9.5v-277q7 -4 13 -7.5t13 -5.5z" />
    <glyph glyph-name="c" unicode="c" horiz-adv-x="446" 
d="M418 28q-23 -15 -65.5 -27t-93.5 -12q-61 0 -103.5 15.5t-69 45t-38.5 73t-12 99.5q0 126 61 186.5t179 60.5q48 0 88.5 -15.5t63.5 -42.5l-59 -57q-36 41 -95 41q-66 0 -100 -40.5t-34 -133.5q0 -74 29 -116t100 -42q40 0 69.5 8.5t59.5 23.5z" />
    <glyph glyph-name="d" unicode="d" horiz-adv-x="513" 
d="M226 -11q-99 0 -144.5 60.5t-45.5 169.5q0 55 12 101t38.5 79t68 51.5t101.5 18.5q34 0 61 -9q14 -4 32 -12v232l102 13v-573l8 -120h-89l-8 30q-25 -17 -52 -28q-36 -13 -84 -13zM323 387q-27 8 -51 8q-61 0 -95.5 -39t-34.5 -132q0 -35 6 -64.5t19.5 -50.5t36 -33
t54.5 -12q39 0 65 16q7 4 13 9t13 10v275q-7 4 -13 7.5t-13 5.5z" />
    <glyph glyph-name="e" unicode="e" horiz-adv-x="485" 
d="M257 -11q-62 0 -104.5 15t-68.5 45.5t-37 76t-11 106.5q0 237 219 237q59 0 96.5 -17t59 -47t29.5 -71t8 -89v-41h-306q2 -69 25 -100q30 -39 106 -39q52 0 86 12.5t60 24.5l22 -66q-12 -8 -32.5 -16.5t-45.5 -15t-52 -11t-54 -4.5zM342 275q0 66 -22 95t-67 29
q-51 0 -75 -23t-32 -71l-3 -30h199z" />
    <glyph glyph-name="f" unicode="f" horiz-adv-x="340" 
d="M348 458v-78h-160v-380h-101v380h-68v78h67v55q0 52 13 86.5t37 55.5t57.5 29.5t74.5 8.5q28 0 55 -4t49 -13l-22 -74q-33 13 -72 13q-49 0 -69.5 -23.5t-20.5 -78.5v-55h160z" />
    <glyph glyph-name="g" unicode="g" horiz-adv-x="508" 
d="M451 458v-474q0 -59 -16.5 -99t-46 -65t-71 -35.5t-90.5 -10.5q-45 0 -83.5 6.5t-66.5 16.5l26 73q22 -6 51.5 -12.5t69.5 -6.5q27 0 50 5.5t39.5 19t26 36.5t9.5 57v46q-26 -12 -53.5 -19t-61.5 -7q-104 0 -151 59.5t-47 168.5q0 55 11.5 101.5t37.5 80t69 52t106 18.5
q34 0 60 -7.5t47 -18.5l5 15h79zM349 378q-19 8 -36 12.5t-38 4.5q-70 0 -101.5 -41t-31.5 -134q0 -32 6 -60.5t20 -50t38 -34t59 -12.5q22 0 42 5.5t42 15.5v294z" />
    <glyph glyph-name="h" unicode="h" horiz-adv-x="507" 
d="M352 0v279q0 23 -2.5 43t-11 34.5t-24 22.5t-40.5 8q-29 0 -53 -7.5t-43 -19.5l-18 -12v-348h-103v680l103 13v-264q21 13 45 21q52 18 99 18q45 0 74.5 -11t46 -32.5t23 -52.5t6.5 -71v-301h-102z" />
    <glyph glyph-name="i" unicode="i" horiz-adv-x="219" 
d="M57 652h104v-92h-104v92zM58 458h102v-458h-102v458z" />
    <glyph glyph-name="j" unicode="j" horiz-adv-x="219" 
d="M-23 -151h10q22 0 36 5t21.5 16t10.5 30t3 48v510h102v-492q0 -52 -8 -88.5t-28 -59.5t-53.5 -33.5t-84.5 -10.5h-9v75zM160 562h-103v90h103v-90z" />
    <glyph glyph-name="k" unicode="k" horiz-adv-x="471" 
d="M57 0v680l102 13v-406h40l157 171h115l-192 -209l199 -249h-116l-165 209h-38v-209h-102z" />
    <glyph glyph-name="l" unicode="l" horiz-adv-x="227" 
d="M209 -3q-2 -1 -10 -1q-3 -1 -11 -1h-9q-70 0 -96 35t-26 101v549l102 13v-560q0 -41 11 -52t39 -11v-73z" />
    <glyph glyph-name="m" unicode="m" horiz-adv-x="758" 
d="M145 458l2 -36q25 19 50 29q46 18 92 18q45 0 72.5 -11.5t42.5 -32.5l2 -3q27 19 55 29q52 18 98 18q44 0 72 -11.5t44.5 -33t23 -53t6.5 -70.5v-301h-102v279q0 24 -2 44t-9 34.5t-21.5 22.5t-38.5 8q-28 0 -51.5 -7.5t-41.5 -20.5l-10 -7q3 -24 3 -52v-301h-102v279
q0 24 -2 44t-9 34.5t-21 22.5t-39 8q-28 0 -51 -7.5t-41 -20.5l-7 -5v-355h-102v336l-8 122h95z" />
    <glyph glyph-name="n" unicode="n" horiz-adv-x="508" 
d="M145 458l3 -36q27 19 57 29q52 18 99 18q45 0 74.5 -11.5t46 -33t23 -52.5t6.5 -71v-301h-102v279q0 24 -2.5 44t-11 34.5t-24 22.5t-40.5 8q-29 0 -53 -8t-43 -20l-18 -12v-348h-102v336l-8 122h95z" />
    <glyph glyph-name="o" unicode="o" horiz-adv-x="517" 
d="M247 -11q-61 0 -101.5 16.5t-65 48t-34.5 76t-10 101.5q0 121 55 179.5t178 58.5q60 0 101 -16.5t65.5 -48t35 -76.5t10.5 -102q0 -121 -56.5 -179t-177.5 -58zM247 62q75 0 102 43.5t27 129.5q0 33 -4.5 62.5t-16.5 52t-33 35.5t-53 13q-74 0 -101 -45t-27 -130
q0 -33 4 -62.5t16 -51.5t32.5 -34.5t53.5 -12.5z" />
    <glyph glyph-name="p" unicode="p" horiz-adv-x="509" 
d="M138 458l8 -30q25 16 53 27q39 14 84 14q97 0 143.5 -60.5t46.5 -169.5q0 -55 -12 -101t-38 -79t-68 -51.5t-102 -18.5q-34 0 -62 9q-14 3 -31 11v-222l-102 -13v565l-8 119h88zM186 71q27 -8 51 -8q60 0 95 39t35 132q0 35 -6 64.5t-20 50.5t-36.5 33t-54.5 12
q-37 0 -65 -16q-6 -3 -12 -7.5t-13 -9.5v-277q7 -4 13 -7.5t13 -5.5z" />
    <glyph glyph-name="q" unicode="q" horiz-adv-x="509" 
d="M256 469q34 0 61 -9q12 -3 24 -8t25 -12l8 18h77v-671l-103 -13v247q-10 -5 -19 -10t-19 -9q-36 -13 -84 -13q-99 0 -144.5 60.5t-45.5 169.5q0 55 12 101t38.5 79t68 51.5t101.5 18.5zM323 387q-27 8 -51 8q-61 0 -95.5 -39t-34.5 -132q0 -35 6 -64.5t19.5 -50.5t36 -33
t54.5 -12q39 0 65 16l25 17v278q-15 8 -25 12z" />
    <glyph glyph-name="r" unicode="r" horiz-adv-x="359" 
d="M142 458l6 -55q23 27 50 41q46 25 93 25q22 0 40 -4t30 -9l-26 -83q-21 12 -56 12q-40 0 -74 -22q-21 -13 -43 -36v-327h-102v330l-13 128h95z" />
    <glyph glyph-name="s" unicode="s" horiz-adv-x="433" 
d="M193 289q8 -4 22 -9l28 -10l57 -19q43 -12 72.5 -40.5t29.5 -81.5q0 -72 -51.5 -106t-145.5 -34q-52 0 -95.5 8.5t-78.5 24.5l32 74q56 -31 142 -31q42 0 69.5 11t27.5 43q0 36 -58 58q-27 8 -56 17.5t-53 18.5q-41 14 -69 41t-28 79q0 36 15 61.5t41 42t61 24.5t75 8
q55 0 95.5 -8.5t72.5 -21.5l-32 -74q-56 29 -136 29q-49 0 -72 -14t-23 -37q0 -18 13.5 -30t44.5 -24z" />
    <glyph glyph-name="t" unicode="t" horiz-adv-x="385" 
d="M192 380v-206q0 -23 2 -42.5t9.5 -33.5t22 -21.5t40.5 -7.5q24 0 46.5 5.5t41.5 14.5l18 -70q-65 -30 -138 -30q-45 0 -73 11.5t-43.5 32.5t-21.5 50t-6 64v233h-78v68l77 9v92l103 18v-109h164v-78h-164z" />
    <glyph glyph-name="u" unicode="u" horiz-adv-x="505" 
d="M446 122l9 -122h-95l-5 36q-13 -9 -27 -16t-28 -12q-50 -19 -99 -19q-45 0 -73.5 11.5t-45 33t-23 52.5t-6.5 71v301h103v-280q0 -23 2.5 -43t10.5 -34.5t23 -23t41 -8.5q28 0 51.5 7.5t42.5 19.5q8 6 17 12v350h102v-336z" />
    <glyph glyph-name="v" unicode="v" horiz-adv-x="457" 
d="M234 73l117 385h105l-161 -458h-137l-157 458h109l114 -385h10z" />
    <glyph glyph-name="w" unicode="w" horiz-adv-x="711" 
d="M428 458l74 -385h8l90 385h102l-126 -458h-143l-73 386h-10l-75 -386h-146l-120 458h106l86 -385h9l75 385h143z" />
    <glyph glyph-name="x" unicode="x" horiz-adv-x="466" 
d="M223 191l-107 -191h-110l141 235l-138 223h112l103 -181h16l102 181h111l-138 -221l144 -237h-113l-108 191h-15z" />
    <glyph glyph-name="y" unicode="y" horiz-adv-x="454" 
d="M3 458h113l114 -338h9l108 338h104l-178 -490q-16 -44 -32.5 -79.5t-40 -61t-56.5 -39.5t-82 -14q-14 0 -29 0.5t-28 5.5l13 72q15 -4 36 -4q35 0 54.5 11.5t30.5 26.5q12 18 24 50t23 61z" />
    <glyph glyph-name="z" unicode="z" horiz-adv-x="446" 
d="M420 396l-273 -318h275v-78h-397v62l272 318h-261v78h384v-62z" />
    <glyph glyph-name="braceleft" unicode="{" horiz-adv-x="357" 
d="M273 -185q-36 0 -67 3.5t-54 18t-36.5 43.5t-13.5 80v169q0 42 -21 63.5t-54 26.5v91q33 4 54 24t21 66v177q0 46 13 74t36 43.5t54.5 21t67.5 5.5h53v-82h-15q-59 0 -82.5 -20t-23.5 -73v-155q0 -58 -19.5 -85.5t-64.5 -34.5v-10q41 -10 62.5 -36.5t21.5 -83.5v-157
q0 -51 25.5 -69t80.5 -18h15v-82h-53z" />
    <glyph glyph-name="bar" unicode="|" horiz-adv-x="214" 
d="M148 -187h-82v906h82v-906z" />
    <glyph glyph-name="braceright" unicode="}" horiz-adv-x="357" 
d="M31 -185v82h16q55 0 80.5 18t25.5 69v157q0 57 21 83t62 37v10q-43 7 -63 34.5t-20 85.5v155q0 53 -24 73t-82 20h-16v82h53q36 0 67.5 -5.5t55 -21t36.5 -43.5t13 -74v-177q0 -46 21 -66t53 -24v-91q-32 -5 -53 -26.5t-21 -63.5v-169q0 -51 -13.5 -80t-37 -43.5
t-54.5 -18t-67 -3.5h-53z" />
    <glyph glyph-name="asciitilde" unicode="~" horiz-adv-x="470" 
d="M29 266q24 21 59 35.5t74 14.5q24 0 42.5 -5.5t36 -12t34 -12t35.5 -5.5q29 0 52.5 9t44.5 23l33 -62q-25 -22 -59 -37t-73 -15q-25 0 -44 6t-36 12.5t-33.5 12.5t-35.5 6q-28 0 -52.5 -8.5t-45.5 -23.5z" />
    <glyph glyph-name="nonbreakingspace" unicode="&#xa0;" horiz-adv-x="300" 
 />
    <glyph glyph-name="exclamdown" unicode="&#xa1;" horiz-adv-x="246" 
d="M177 355h-109v103h109v-103zM80 285h85l14 -485h-113z" />
    <glyph glyph-name="cent" unicode="&#xa2;" horiz-adv-x="455" 
d="M287 -92h-64v82q-105 8 -150 67t-45 165q0 112 49 172t146 72v84h64v-82q43 -4 79 -19.5t56 -37.5l-58 -57q-29 33 -77 38v-328q31 2 56 10t49 20l20 -65q-20 -12 -51.5 -22.5t-73.5 -15.5v-83zM132 221q0 -63 20 -103t71 -51v322q-45 -12 -68 -52.5t-23 -115.5z" />
    <glyph glyph-name="sterling" unicode="&#xa3;" horiz-adv-x="492" 
d="M340 669q64 0 115 -19l-28 -74q-38 15 -83 15q-61 0 -90.5 -31t-29.5 -112v-92h196v-78h-197v-21q0 -63 -15 -103t-52 -71h291v-83h-407v71q45 33 62 77.5t17 108.5v21h-76v78h76v89q0 66 16.5 109t46 68.5t70 36t88.5 10.5z" />
    <glyph glyph-name="currency" unicode="&#xa4;" horiz-adv-x="486" 
d="M25 114l68 68l-10 22q-10 29 -10 66q0 38 13 67q2 5 4 9.5t4 8.5l-69 70l62 62l71 -71l19 8q30 13 71 13q40 0 69 -13l12 -6l69 69l62 -62l-69 -70q2 -5 5 -10t5 -11q11 -33 11 -66q0 -36 -13 -65l-9 -19l70 -70l-62 -62l-72 71l-18 -8q-32 -12 -71 -12q-40 0 -69 13
l-12 5l-69 -69zM237 184q42 0 64 23.5t22 63.5q0 34 -18.5 58.5t-56.5 24.5q-42 0 -64 -23.5t-22 -62.5q0 -35 18.5 -59.5t56.5 -24.5z" />
    <glyph glyph-name="yen" unicode="&#xa5;" horiz-adv-x="586" 
d="M524 185h-180v-185h-104v185h-179v63h179v33l-18 28h-161v64h122q-4 5 -7.5 10.5t-7.5 12.5q-22 36 -45.5 74.5t-46 74.5t-41.5 66t-31 48h123l162 -281h9l162 281h121l-180 -286h123v-64h-163l-17 -27v-34h180v-63z" />
    <glyph glyph-name="brokenbar" unicode="&#xa6;" horiz-adv-x="214" 
d="M148 372h-82v347h82v-347zM148 -187h-82v347h82v-347z" />
    <glyph glyph-name="section" unicode="&#xa7;" horiz-adv-x="531" 
d="M317 8q-16 7 -37.5 15t-45 17t-47 18.5t-42.5 19.5q-21 11 -39.5 23.5t-32 30t-21 41.5t-7.5 57q0 74 54 112q17 13 40 22q-36 22 -56 45q-26 34 -26 95q0 40 16 71t46 52t72 31.5t94 10.5q51 0 100.5 -9.5t91.5 -31.5l-34 -73q-28 14 -68.5 24.5t-88.5 10.5
q-131 0 -131 -79q0 -30 17.5 -47.5t41.5 -30.5q34 -15 81.5 -32.5t89.5 -37.5q22 -11 40.5 -23.5t32 -30t21 -41t7.5 -56.5q0 -74 -54 -113q-8 -7 -18.5 -12.5t-21.5 -10.5l23 -13q29 -20 45 -49.5t16 -75.5q0 -80 -62 -122t-167 -42q-51 0 -103.5 10t-94.5 32l34 75
q34 -18 74.5 -28t88.5 -10q69 0 100.5 20.5t31.5 56.5q0 28 -16 46t-45 32zM337 279q-19 10 -40.5 18.5t-46.5 16.5l-28 10q-34 -7 -52 -24q-28 -25 -28 -58q0 -31 14 -50.5t39 -31.5q19 -9 40 -17.5t44 -16.5l26 -10q19 5 33.5 11.5t24.5 14.5q28 25 28 57q0 54 -54 80z
" />
    <glyph glyph-name="dieresis" unicode="&#xa8;" horiz-adv-x="533" 
d="M222 560h-101v92h101v-92zM411 560h-101v92h101v-92z" />
    <glyph glyph-name="copyright" unicode="&#xa9;" horiz-adv-x="795" 
d="M749 329q0 -81 -26.5 -144t-73.5 -106.5t-111 -66.5t-140 -23q-77 0 -141.5 23t-111 66.5t-72.5 106.5t-26 144q0 82 26 145t72.5 106.5t111 66t141.5 22.5q76 0 140 -23t111 -66.5t73.5 -106.5t26.5 -144zM676 329q0 63 -19.5 114.5t-56 87.5t-88 55.5t-114.5 19.5
q-67 0 -119 -20t-88 -56.5t-54.5 -87.5t-18.5 -113q0 -63 19.5 -114t56 -87t88 -55.5t116.5 -19.5q64 0 115.5 19.5t87.5 55.5t55.5 87t19.5 114zM522 174q-18 -12 -51.5 -21.5t-75.5 -9.5q-93 0 -134.5 48.5t-41.5 133.5q0 193 190 193q38 0 70 -12.5t51 -33.5l-48 -46
q-27 31 -74 31q-52 0 -78 -31.5t-26 -101.5q0 -52 24.5 -86t75.5 -34q31 0 54.5 7t47.5 19z" />
    <glyph glyph-name="ordfeminine" unicode="&#xaa;" horiz-adv-x="370" 
d="M335 369q-2 -1 -7 -1.5t-7 -0.5h-5q-23 0 -45 9.5t-28 26.5q-16 -15 -34.5 -28t-53.5 -13q-59 0 -80.5 28t-21.5 72q0 54 36 75t96 21q13 0 25 -2t25 -5v13q0 37 -13 48.5t-43 11.5q-26 0 -53 -6t-44 -16l-15 50q24 12 57 20t68 8q61 0 87.5 -25t26.5 -90v-111
q0 -22 7.5 -29.5t21.5 -7.5v-48zM184 507q-26 0 -41 -10t-15 -34q0 -44 42 -44q21 0 35 5.5t30 20.5v55q-13 4 -24 5.5t-27 1.5z" />
    <glyph glyph-name="guillemotleft" unicode="&#xab;" horiz-adv-x="502" 
d="M382 32l-171 197l172 197l67 -53l-125 -143l126 -141zM248 373l-119 -143l118 -141l-68 -57l-164 197l165 197z" />
    <glyph glyph-name="logicalnot" unicode="&#xac;" horiz-adv-x="617" 
d="M70 341h457v-252h-90v175h-367v77z" />
    <glyph glyph-name="registered" unicode="&#xae;" horiz-adv-x="518" 
d="M489 487q0 -53 -17 -94.5t-48 -70t-73 -43.5t-92 -15t-92 15t-72.5 43.5t-48 70t-17.5 94.5t17.5 94.5t48 70.5t72.5 44t92 15t92 -15t73 -44t48 -70.5t17 -94.5zM437 487q0 81 -46.5 129.5t-131.5 48.5t-131.5 -48.5t-46.5 -129.5t46.5 -129t131.5 -48t131.5 48
t46.5 129zM302 369l-45 91h-28v-91h-61v240h98q45 0 67.5 -17t22.5 -55q0 -26 -10.5 -42t-30.5 -25l52 -101h-65zM264 504q31 0 31 33q0 15 -9 20.5t-22 5.5h-35v-59h35z" />
    <glyph glyph-name="macron" unicode="&#xaf;" horiz-adv-x="533" 
d="M415 568h-300v79h300v-79z" />
    <glyph glyph-name="degree" unicode="&#xb0;" horiz-adv-x="343" 
d="M162 382q-37 0 -63.5 11t-44 30.5t-25.5 46t-8 56.5q0 67 41 105t116 38q36 0 63 -11t45 -30.5t26.5 -46t8.5 -57.5q0 -64 -42 -103t-117 -39zM164 456q42 0 59 18.5t17 53.5q0 28 -14 48t-48 20q-42 0 -59.5 -20t-17.5 -52q0 -28 14 -48t49 -20z" />
    <glyph glyph-name="plusminus" unicode="&#xb1;" 
d="M325 289v-162h-88v162h-166v83h166v163h88v-163h167v-83h-167zM493 0h-424v83h424v-83z" />
    <glyph glyph-name="twosuperior" unicode="&#xb2;" horiz-adv-x="307" 
d="M28 318v41l120 118q25 25 34.5 42.5t9.5 36.5q0 22 -14 36t-40 14q-44 0 -91 -28l-25 50q31 19 63.5 27.5t60.5 8.5q27 0 50.5 -5t40.5 -16.5t26.5 -31t9.5 -47.5q0 -33 -23 -62.5t-52 -58.5l-67 -66h148v-59h-251z" />
    <glyph glyph-name="threesuperior" unicode="&#xb3;" horiz-adv-x="307" 
d="M55 402q15 -12 38.5 -20t48.5 -8q28 0 46 11t18 36q0 24 -18.5 36t-49.5 12q-12 0 -20 -0.5t-19 -2.5v54h27q25 0 47.5 11t22.5 36q0 20 -16 30t-38 10q-26 0 -46.5 -8.5t-37.5 -20.5l-28 49q19 14 50.5 25.5t70.5 11.5q57 0 89 -20t32 -69q0 -27 -16.5 -45t-38.5 -24
q29 -9 48.5 -30t19.5 -56q0 -27 -11.5 -47t-30.5 -33.5t-45 -20t-54 -6.5q-42 0 -72.5 12t-52.5 31z" />
    <glyph glyph-name="acute" unicode="&#xb4;" horiz-adv-x="533" 
d="M390 685l-132 -159h-98l115 159h115z" />
    <glyph glyph-name="mu" unicode="&#xb5;" horiz-adv-x="508" 
d="M156 -221h-103v679h103v-280q0 -23 2.5 -43t10.5 -34.5t23 -22.5t41 -8q54 0 92 25l22 14v349h103v-336l7 -122h-94l-4 34q-62 -44 -138 -44q-33 0 -54 7l-18 6z" />
    <glyph glyph-name="paragraph" unicode="&#xb6;" horiz-adv-x="585" 
d="M222 237q-56 0 -92 16t-57 43.5t-29 65t-8 80.5q0 52 10 92.5t34 68t64 42t101 14.5h270v-872l-76 -10v799h-82v-789l-74 -10v460h-61z" />
    <glyph glyph-name="periodcentered" unicode="&#xb7;" horiz-adv-x="219" 
d="M162 213h-108v103h108v-103z" />
    <glyph glyph-name="cedilla" unicode="&#xb8;" horiz-adv-x="533" 
d="M170 -149q17 -6 33 -9t34 -3q29 0 44 8.5t15 30.5q0 27 -20.5 36t-76.5 15l21 54q88 -5 129.5 -27t41.5 -77q0 -57 -34 -81t-109 -24q-29 0 -56 5t-46 13z" />
    <glyph glyph-name="onesuperior" unicode="&#xb9;" horiz-adv-x="307" 
d="M133 318v270l-70 -33l-24 48l116 57h51v-342h-73z" />
    <glyph glyph-name="ordmasculine" unicode="&#xba;" horiz-adv-x="392" 
d="M193 362q-41 0 -67.5 10.5t-42 30.5t-22 50t-6.5 69q0 84 36 121t117 37q40 0 67 -10.5t43 -30.5t22.5 -50.5t6.5 -69.5q0 -84 -36.5 -120.5t-117.5 -36.5zM193 416q49 0 66 25t17 84q0 22 -2.5 41t-10 32.5t-20.5 21t-35 7.5q-25 0 -41 -6t-25 -19.5t-12.5 -34.5
t-3.5 -50q0 -23 2.5 -42t9.5 -32t20 -20t35 -7z" />
    <glyph glyph-name="guillemotright" unicode="&#xbb;" horiz-adv-x="502" 
d="M127 426l171 -197l-172 -197l-67 53l125 143l-126 141zM261 85l119 143l-118 141l68 57l164 -197l-165 -197z" />
    <glyph glyph-name="onequarter" unicode="&#xbc;" horiz-adv-x="705" 
d="M612 342v-228h40v-57h-40v-57h-67v57h-166v42l139 243h94zM545 114v144h-3l-79 -144h82zM49 -32l477 723h93l-478 -723h-92zM140 318v271l-71 -33l-24 47l116 57h51v-342h-72z" />
    <glyph glyph-name="onehalf" unicode="&#xbd;" horiz-adv-x="729" 
d="M49 -32l477 723h93l-478 -723h-92zM140 318v271l-71 -33l-24 47l116 57h51v-342h-72zM428 0v39l120 118q23 23 33 42t10 37q0 23 -14 37t-41 14q-21 0 -43.5 -7.5t-47.5 -19.5l-25 50q32 18 64.5 26t61.5 8q27 0 50.5 -5t40 -16.5t26 -30.5t9.5 -46q0 -34 -22.5 -63
t-51.5 -58l-68 -68h149v-57h-251z" />
    <glyph glyph-name="threequarters" unicode="&#xbe;" horiz-adv-x="725" 
d="M634 342v-228h40v-57h-40v-57h-67v57h-166v42l139 243h94zM567 114v144h-3l-79 -144h82zM95 -32l477 723h93l-478 -723h-92zM164 311q-44 0 -78.5 15t-48.5 27l32 47q14 -9 39 -19.5t55 -10.5q34 0 49.5 12.5t15.5 31.5q0 28 -22 40.5t-62 12.5h-14t-10 -1v59h16
q35 0 58.5 11t23.5 37q0 17 -12 25.5t-41 8.5q-26 0 -48 -8t-38 -19l-29 46q7 6 19 12.5t28 12.5t34 10t36 4q54 0 87.5 -22t33.5 -66q0 -30 -15 -50t-41 -26q28 -3 48 -26t20 -61q0 -25 -10.5 -44.5t-29 -32.5t-43.5 -19.5t-53 -6.5z" />
    <glyph glyph-name="questiondown" unicode="&#xbf;" horiz-adv-x="429" 
d="M195 458h108v-103h-108v103zM298 285v-54q0 -37 -11.5 -65.5t-28 -51.5t-36.5 -42t-36.5 -37t-28 -36.5t-11.5 -39.5q0 -38 25.5 -61t77.5 -23q39 0 74 12t57 27l31 -78q-33 -19 -79.5 -33t-100.5 -14q-42 0 -78 9t-61.5 28t-40 48.5t-14.5 70.5q0 38 12.5 65.5t30.5 50
t40 42t40 40.5t30.5 46t12.5 59v37h95z" />
    <glyph glyph-name="Agrave" unicode="&#xc0;" horiz-adv-x="633" 
d="M510 0l-62 182h-268l-62 -182h-112l239 659h144l236 -659h-115zM310 576l-102 -310h211l-101 310h-8zM268 885l114 -159h-97l-131 159h114z" />
    <glyph glyph-name="Aacute" unicode="&#xc1;" horiz-adv-x="633" 
d="M510 0l-62 182h-268l-62 -182h-112l239 659h144l236 -659h-115zM310 576l-102 -310h211l-101 310h-8zM479 885l-132 -159h-98l115 159h115z" />
    <glyph glyph-name="Acircumflex" unicode="&#xc2;" horiz-adv-x="633" 
d="M510 0l-62 182h-268l-62 -182h-112l239 659h144l236 -659h-115zM310 576l-102 -310h211l-101 310h-8zM384 885l104 -159h-93l-73 106h-10l-77 -106h-89l106 159h132z" />
    <glyph glyph-name="Atilde" unicode="&#xc3;" horiz-adv-x="633" 
d="M510 0l-62 182h-268l-62 -182h-112l239 659h144l236 -659h-115zM310 576l-102 -310h211l-101 310h-8zM141 814q19 20 48.5 34t63.5 14q20 0 36.5 -5t31 -11.5t29 -11.5t30.5 -5q24 0 43.5 9.5t38.5 21.5l30 -61q-22 -21 -50.5 -35t-62.5 -14q-21 0 -37 5t-31 11.5
t-29.5 11.5t-30.5 5q-23 0 -42.5 -9t-37.5 -20z" />
    <glyph glyph-name="Adieresis" unicode="&#xc4;" horiz-adv-x="633" 
d="M510 0l-62 182h-268l-62 -182h-112l239 659h144l236 -659h-115zM310 576l-102 -310h211l-101 310h-8zM270 760h-101v92h101v-92zM459 760h-101v92h101v-92z" />
    <glyph glyph-name="Aring" unicode="&#xc5;" horiz-adv-x="633" 
d="M510 0l-62 182h-268l-62 -182h-112l239 659h144l236 -659h-115zM310 576l-102 -310h211l-101 310h-8zM309 709q-58 0 -81.5 28.5t-23.5 73.5q0 49 29 75.5t86 26.5q58 0 82 -29t24 -74q0 -49 -29 -75t-87 -26zM312 767q46 0 46 44q0 43 -41 43q-48 0 -48 -44
q0 -21 10 -32t33 -11z" />
    <glyph glyph-name="AE" unicode="&#xc6;" horiz-adv-x="915" 
d="M863 83v-83h-392l-10 182h-255l-107 -182h-111l397 659h469v-84h-310l11 -195h288v-82h-284l12 -215h292zM433 575l-178 -309h203l-16 309h-9z" />
    <glyph glyph-name="Ccedilla" unicode="&#xc7;" horiz-adv-x="597" 
d="M337 -11q-155 1 -224 86.5t-69 253.5q0 175 78.5 257.5t223.5 82.5q30 0 61 -5.5t59.5 -16t53 -27t42.5 -38.5l-62 -61q-28 31 -63.5 48t-87.5 17q-103 0 -150 -67t-47 -199q0 -120 45.5 -181t144.5 -61q60 0 107 12.5t85 28.5l25 -81q-40 -21 -99.5 -35t-122.5 -14z
M225 -149q17 -6 33 -9t34 -3q29 0 44 8.5t15 30.5q0 27 -20.5 36t-76.5 15l21 54q88 -5 129.5 -27t41.5 -77q0 -57 -34 -81t-109 -24q-29 0 -56 5t-46 13z" />
    <glyph glyph-name="Egrave" unicode="&#xc8;" horiz-adv-x="542" 
d="M490 83v-83h-419v659h408v-84h-304v-195h294v-82h-294v-215h315zM229 885l114 -159h-97l-131 159h114z" />
    <glyph glyph-name="Eacute" unicode="&#xc9;" horiz-adv-x="542" 
d="M490 83v-83h-419v659h408v-84h-304v-195h294v-82h-294v-215h315zM440 885l-132 -159h-98l115 159h115z" />
    <glyph glyph-name="Ecircumflex" unicode="&#xca;" horiz-adv-x="542" 
d="M490 83v-83h-419v659h408v-84h-304v-195h294v-82h-294v-215h315zM344 885l104 -159h-93l-73 106h-10l-77 -106h-89l106 159h132z" />
    <glyph glyph-name="Edieresis" unicode="&#xcb;" horiz-adv-x="542" 
d="M490 83v-83h-419v659h408v-84h-304v-195h294v-82h-294v-215h315zM231 750h-101v92h101v-92zM420 750h-101v92h101v-92z" />
    <glyph glyph-name="Igrave" unicode="&#xcc;" horiz-adv-x="248" 
d="M71 659h104v-659h-104v659zM77 885l114 -159h-97l-131 159h114z" />
    <glyph glyph-name="Iacute" unicode="&#xcd;" horiz-adv-x="248" 
d="M71 659h104v-659h-104v659zM292 885l-132 -159h-98l115 159h115z" />
    <glyph glyph-name="Icircumflex" unicode="&#xce;" horiz-adv-x="248" 
d="M71 659h104v-659h-104v659zM192 885l104 -159h-93l-73 106h-10l-77 -106h-89l106 159h132z" />
    <glyph glyph-name="Idieresis" unicode="&#xcf;" horiz-adv-x="248" 
d="M71 659h104v-659h-104v659zM81 750h-101v92h101v-92zM270 750h-101v92h101v-92z" />
    <glyph glyph-name="Eth" unicode="&#xd0;" horiz-adv-x="658" 
d="M186 375h145v-84h-145v-208h67q59 0 105.5 12t79 41t49.5 78t17 124q0 123 -57.5 180t-165.5 57h-95v-200zM82 291h-67v84h67v284h200q79 0 140.5 -18t104 -57.5t64.5 -103t22 -153.5q0 -93 -27 -156t-74.5 -101t-113 -54t-142.5 -16h-174v291z" />
    <glyph glyph-name="Ntilde" unicode="&#xd1;" horiz-adv-x="701" 
d="M628 659v-659h-181l-263 576h-9v-576h-104v659h182l263 -577h8v577h104zM183 815q19 20 48.5 34t63.5 14q20 0 36.5 -5t31 -11.5t29 -11.5t30.5 -5q24 0 43.5 9.5t38.5 21.5l30 -61q-22 -21 -50.5 -35t-62.5 -14q-21 0 -37 5t-31 11.5t-29.5 11.5t-30.5 5q-23 0 -42.5 -9
t-37.5 -20z" />
    <glyph glyph-name="Ograve" unicode="&#xd2;" horiz-adv-x="665" 
d="M44 333q0 172 72.5 254t226.5 82q77 0 130 -23.5t86 -68t47.5 -108t14.5 -143.5q0 -171 -73 -254t-228 -83q-78 0 -130.5 24t-85 68.5t-46.5 108t-14 143.5zM512 339q0 51 -7.5 96.5t-26.5 79.5t-51.5 53.5t-82.5 19.5q-54 0 -91 -17t-59.5 -51t-32.5 -83.5t-10 -114.5
q0 -52 7.5 -97.5t26.5 -79t51 -53t81 -19.5q57 0 94.5 17t60 50.5t31.5 83.5t9 115zM284 885l114 -159h-97l-131 159h114z" />
    <glyph glyph-name="Oacute" unicode="&#xd3;" horiz-adv-x="665" 
d="M44 333q0 172 72.5 254t226.5 82q77 0 130 -23.5t86 -68t47.5 -108t14.5 -143.5q0 -171 -73 -254t-228 -83q-78 0 -130.5 24t-85 68.5t-46.5 108t-14 143.5zM512 339q0 51 -7.5 96.5t-26.5 79.5t-51.5 53.5t-82.5 19.5q-54 0 -91 -17t-59.5 -51t-32.5 -83.5t-10 -114.5
q0 -52 7.5 -97.5t26.5 -79t51 -53t81 -19.5q57 0 94.5 17t60 50.5t31.5 83.5t9 115zM491 885l-132 -159h-98l115 159h115z" />
    <glyph glyph-name="Ocircumflex" unicode="&#xd4;" horiz-adv-x="665" 
d="M44 333q0 172 72.5 254t226.5 82q77 0 130 -23.5t86 -68t47.5 -108t14.5 -143.5q0 -171 -73 -254t-228 -83q-78 0 -130.5 24t-85 68.5t-46.5 108t-14 143.5zM512 339q0 51 -7.5 96.5t-26.5 79.5t-51.5 53.5t-82.5 19.5q-54 0 -91 -17t-59.5 -51t-32.5 -83.5t-10 -114.5
q0 -52 7.5 -97.5t26.5 -79t51 -53t81 -19.5q57 0 94.5 17t60 50.5t31.5 83.5t9 115zM403 885l104 -159h-93l-73 106h-10l-77 -106h-89l106 159h132z" />
    <glyph glyph-name="Otilde" unicode="&#xd5;" horiz-adv-x="665" 
d="M44 333q0 172 72.5 254t226.5 82q77 0 130 -23.5t86 -68t47.5 -108t14.5 -143.5q0 -171 -73 -254t-228 -83q-78 0 -130.5 24t-85 68.5t-46.5 108t-14 143.5zM512 339q0 51 -7.5 96.5t-26.5 79.5t-51.5 53.5t-82.5 19.5q-54 0 -91 -17t-59.5 -51t-32.5 -83.5t-10 -114.5
q0 -52 7.5 -97.5t26.5 -79t51 -53t81 -19.5q57 0 94.5 17t60 50.5t31.5 83.5t9 115zM164 814q19 20 48.5 34t63.5 14q20 0 36.5 -5t31 -11.5t29 -11.5t30.5 -5q24 0 43.5 9.5t38.5 21.5l30 -61q-22 -21 -50.5 -35t-62.5 -14q-21 0 -37 5t-31 11.5t-29.5 11.5t-30.5 5
q-23 0 -42.5 -9t-37.5 -20z" />
    <glyph glyph-name="Odieresis" unicode="&#xd6;" horiz-adv-x="665" 
d="M44 333q0 172 72.5 254t226.5 82q77 0 130 -23.5t86 -68t47.5 -108t14.5 -143.5q0 -171 -73 -254t-228 -83q-78 0 -130.5 24t-85 68.5t-46.5 108t-14 143.5zM512 339q0 51 -7.5 96.5t-26.5 79.5t-51.5 53.5t-82.5 19.5q-54 0 -91 -17t-59.5 -51t-32.5 -83.5t-10 -114.5
q0 -52 7.5 -97.5t26.5 -79t51 -53t81 -19.5q57 0 94.5 17t60 50.5t31.5 83.5t9 115zM291 750h-101v92h101v-92zM480 750h-101v92h101v-92z" />
    <glyph glyph-name="multiply" unicode="&#xd7;" 
d="M433 50l-151 151l-152 -151l-65 64l152 151l-152 153l65 64l152 -152l151 152l64 -64l-151 -153l151 -151z" />
    <glyph glyph-name="Oslash" unicode="&#xd8;" horiz-adv-x="665" 
d="M44 331q0 173 72.5 256.5t226.5 83.5q77 0 130 -24q8 -4 16 -8.5t15 -9.5l55 75l64 -42l-64 -86q32 -44 47 -107q15 -65 15 -144q0 -171 -73 -254.5t-228 -83.5q-78 0 -132 24q-9 4 -18 9t-17 10l-54 -72l-63 43l64 86q-29 42 -42 100q-14 67 -14 144zM516 338
q0 26 -2 50t-6 47q-5 32 -13 55l-287 -386q10 -11 24 -18q34 -20 85 -20q57 0 95 18t61 52.5t33 85.5t10 116zM430 572q-32 21 -86 21t-92 -18t-61.5 -52.5t-34 -85t-10.5 -116.5q0 -26 2 -51t6 -48q2 -13 4.5 -25t6.5 -23l285 383z" />
    <glyph glyph-name="Ugrave" unicode="&#xd9;" horiz-adv-x="634" 
d="M570 659v-406q0 -140 -67.5 -202t-193.5 -62t-185.5 63.5t-59.5 207.5v399h104v-414q0 -83 31.5 -128.5t108.5 -45.5q43 0 73 10.5t49 33t27.5 59t8.5 87.5v398h104zM270 885l114 -159h-97l-131 159h114z" />
    <glyph glyph-name="Uacute" unicode="&#xda;" horiz-adv-x="634" 
d="M570 659v-406q0 -140 -67.5 -202t-193.5 -62t-185.5 63.5t-59.5 207.5v399h104v-414q0 -83 31.5 -128.5t108.5 -45.5q43 0 73 10.5t49 33t27.5 59t8.5 87.5v398h104zM473 885l-132 -159h-98l115 159h115z" />
    <glyph glyph-name="Ucircumflex" unicode="&#xdb;" horiz-adv-x="634" 
d="M570 659v-406q0 -140 -67.5 -202t-193.5 -62t-185.5 63.5t-59.5 207.5v399h104v-414q0 -83 31.5 -128.5t108.5 -45.5q43 0 73 10.5t49 33t27.5 59t8.5 87.5v398h104zM382 885l104 -159h-93l-73 106h-10l-77 -106h-89l106 159h132z" />
    <glyph glyph-name="Udieresis" unicode="&#xdc;" horiz-adv-x="634" 
d="M570 659v-406q0 -140 -67.5 -202t-193.5 -62t-185.5 63.5t-59.5 207.5v399h104v-414q0 -83 31.5 -128.5t108.5 -45.5q43 0 73 10.5t49 33t27.5 59t8.5 87.5v398h104zM273 750h-101v92h101v-92zM462 750h-101v92h101v-92z" />
    <glyph glyph-name="Yacute" unicode="&#xdd;" horiz-adv-x="575" 
d="M339 282v-282h-104v281q-12 19 -31.5 49t-41.5 66t-46 74.5t-46 74.5t-40.5 65.5t-30.5 48.5h122l163 -281h8l163 281h120zM455 885l-132 -159h-98l115 159h115z" />
    <glyph glyph-name="Thorn" unicode="&#xde;" horiz-adv-x="561" 
d="M173 0h-104v659h104v-123h130q112 0 170 -49t58 -151q0 -50 -16 -88.5t-44.5 -65t-68 -40.5t-86.5 -14h-143v-128zM300 210q25 0 47.5 7t39.5 22t27 39t10 58q0 31 -10.5 53.5t-28 36t-39.5 20t-46 6.5h-127v-242h127z" />
    <glyph glyph-name="germandbls" unicode="&#xdf;" horiz-adv-x="551" 
d="M528 127q0 -69 -45 -102.5t-130 -33.5q-91 0 -152 31l30 72q21 -11 52.5 -20t67.5 -9q37 0 58.5 12.5t21.5 38.5q0 22 -13 36.5t-45 27.5l-62 25q-38 15 -64 41.5t-26 74.5q0 36 18.5 67.5t72.5 63.5q32 20 49 37.5t17 45.5q0 19 -7.5 32.5t-20 22t-29 12.5t-33.5 4
q-34 0 -58.5 -12.5t-40.5 -34.5t-23.5 -51t-7.5 -63v-445h-102v434q0 131 63 190.5t175 59.5q36 0 70 -9.5t60.5 -28t42.5 -46.5t16 -65q0 -27 -10 -48t-26.5 -38t-38 -31t-43.5 -28q-22 -15 -34.5 -27t-12.5 -30q0 -19 11.5 -29t33.5 -20q4 -2 14 -6t21 -8.5t21 -9t15 -7.5
q45 -20 69.5 -47.5t24.5 -78.5z" />
    <glyph glyph-name="agrave" unicode="&#xe0;" horiz-adv-x="472" 
d="M459 -1q-17 -3 -38 -3q-36 0 -58 12.5t-34 35.5q-25 -22 -64.5 -38.5t-82.5 -16.5q-46 0 -75 11.5t-46 31t-23.5 45.5t-6.5 55q0 44 14.5 72t41 44t63.5 22t81 6q41 0 82 -3v22q0 54 -21 76.5t-79 22.5q-40 0 -76.5 -10t-63.5 -24l-23 65q37 18 86 31t103 13
q50 0 84 -9.5t54.5 -32t29.5 -59t9 -90.5v-153q0 -32 11 -43.5t32 -11.5v-71zM229 205q-52 0 -71.5 -17.5t-19.5 -52.5q0 -36 15.5 -54.5t55.5 -18.5q25 0 53.5 11t50.5 30v97q-22 4 -42.5 4.5t-41.5 0.5zM202 685l114 -159h-97l-131 159h114z" />
    <glyph glyph-name="aacute" unicode="&#xe1;" horiz-adv-x="472" 
d="M459 -1q-17 -3 -38 -3q-36 0 -58 12.5t-34 35.5q-25 -22 -64.5 -38.5t-82.5 -16.5q-46 0 -75 11.5t-46 31t-23.5 45.5t-6.5 55q0 44 14.5 72t41 44t63.5 22t81 6q41 0 82 -3v22q0 54 -21 76.5t-79 22.5q-40 0 -76.5 -10t-63.5 -24l-23 65q37 18 86 31t103 13
q50 0 84 -9.5t54.5 -32t29.5 -59t9 -90.5v-153q0 -32 11 -43.5t32 -11.5v-71zM229 205q-52 0 -71.5 -17.5t-19.5 -52.5q0 -36 15.5 -54.5t55.5 -18.5q25 0 53.5 11t50.5 30v97q-22 4 -42.5 4.5t-41.5 0.5zM385 685l-132 -159h-98l115 159h115z" />
    <glyph glyph-name="acircumflex" unicode="&#xe2;" horiz-adv-x="472" 
d="M459 -1q-17 -3 -38 -3q-36 0 -58 12.5t-34 35.5q-25 -22 -64.5 -38.5t-82.5 -16.5q-46 0 -75 11.5t-46 31t-23.5 45.5t-6.5 55q0 44 14.5 72t41 44t63.5 22t81 6q41 0 82 -3v22q0 54 -21 76.5t-79 22.5q-40 0 -76.5 -10t-63.5 -24l-23 65q37 18 86 31t103 13
q50 0 84 -9.5t54.5 -32t29.5 -59t9 -90.5v-153q0 -32 11 -43.5t32 -11.5v-71zM229 205q-52 0 -71.5 -17.5t-19.5 -52.5q0 -36 15.5 -54.5t55.5 -18.5q25 0 53.5 11t50.5 30v97q-22 4 -42.5 4.5t-41.5 0.5zM302 685l104 -159h-93l-73 106h-10l-77 -106h-89l106 159h132z" />
    <glyph glyph-name="atilde" unicode="&#xe3;" horiz-adv-x="472" 
d="M459 -1q-17 -3 -38 -3q-36 0 -58 12.5t-34 35.5q-25 -22 -64.5 -38.5t-82.5 -16.5q-46 0 -75 11.5t-46 31t-23.5 45.5t-6.5 55q0 44 14.5 72t41 44t63.5 22t81 6q41 0 82 -3v22q0 54 -21 76.5t-79 22.5q-40 0 -76.5 -10t-63.5 -24l-23 65q37 18 86 31t103 13
q50 0 84 -9.5t54.5 -32t29.5 -59t9 -90.5v-153q0 -32 11 -43.5t32 -11.5v-71zM229 205q-52 0 -71.5 -17.5t-19.5 -52.5q0 -36 15.5 -54.5t55.5 -18.5q25 0 53.5 11t50.5 30v97q-22 4 -42.5 4.5t-41.5 0.5zM55 614q19 20 48.5 34t63.5 14q20 0 36.5 -5t31 -11.5t29 -11.5
t30.5 -5q24 0 43.5 9.5t38.5 21.5l30 -61q-22 -21 -50.5 -35t-62.5 -14q-21 0 -37 5t-31 11.5t-29.5 11.5t-30.5 5q-23 0 -42.5 -9t-37.5 -20z" />
    <glyph glyph-name="adieresis" unicode="&#xe4;" horiz-adv-x="472" 
d="M459 -1q-17 -3 -38 -3q-36 0 -58 12.5t-34 35.5q-25 -22 -64.5 -38.5t-82.5 -16.5q-46 0 -75 11.5t-46 31t-23.5 45.5t-6.5 55q0 44 14.5 72t41 44t63.5 22t81 6q41 0 82 -3v22q0 54 -21 76.5t-79 22.5q-40 0 -76.5 -10t-63.5 -24l-23 65q37 18 86 31t103 13
q50 0 84 -9.5t54.5 -32t29.5 -59t9 -90.5v-153q0 -32 11 -43.5t32 -11.5v-71zM229 205q-52 0 -71.5 -17.5t-19.5 -52.5q0 -36 15.5 -54.5t55.5 -18.5q25 0 53.5 11t50.5 30v97q-22 4 -42.5 4.5t-41.5 0.5zM192 560h-101v92h101v-92zM381 560h-101v92h101v-92z" />
    <glyph glyph-name="aring" unicode="&#xe5;" horiz-adv-x="472" 
d="M459 -1q-17 -3 -38 -3q-36 0 -58 12.5t-34 35.5q-25 -22 -64.5 -38.5t-82.5 -16.5q-46 0 -75 11.5t-46 31t-23.5 45.5t-6.5 55q0 44 14.5 72t41 44t63.5 22t81 6q41 0 82 -3v22q0 54 -21 76.5t-79 22.5q-40 0 -76.5 -10t-63.5 -24l-23 65q37 18 86 31t103 13
q50 0 84 -9.5t54.5 -32t29.5 -59t9 -90.5v-153q0 -32 11 -43.5t32 -11.5v-71zM229 205q-52 0 -71.5 -17.5t-19.5 -52.5q0 -36 15.5 -54.5t55.5 -18.5q25 0 53.5 11t50.5 30v97q-22 4 -42.5 4.5t-41.5 0.5zM233 510q-58 0 -81.5 28.5t-23.5 73.5q0 49 29 75.5t86 26.5
q58 0 82 -29t24 -74q0 -49 -29 -75t-87 -26zM236 568q46 0 46 44q0 43 -41 43q-48 0 -48 -44q0 -21 10 -32t33 -11z" />
    <glyph glyph-name="ae" unicode="&#xe6;" horiz-adv-x="763" 
d="M720 36q-12 -8 -32.5 -16t-45.5 -15t-52.5 -11.5t-54.5 -4.5q-119 0 -168 55q-27 -19 -71 -37t-105 -18q-44 0 -74.5 12t-49.5 31.5t-27.5 45.5t-8.5 54q0 42 15 69.5t41.5 43t64 22t82.5 6.5h83v21q0 54 -22.5 77t-80.5 23q-40 0 -77 -10.5t-63 -23.5l-24 65
q38 18 87 31t103 13q57 0 90.5 -13.5t51.5 -44.5q49 58 153 58q58 0 95.5 -17t59 -47t29.5 -71t8 -89v-41h-309q2 -75 32.5 -107t99.5 -32q52 0 87 12.5t62 24.5zM212 63q34 0 65 12.5t56 30.5q-7 21 -9.5 45t-5.5 53h-88q-52 0 -72 -17.5t-20 -50.5q0 -34 17 -53.5
t57 -19.5zM532 399q-61 0 -86 -32t-27 -95h203q0 69 -22.5 98t-67.5 29z" />
    <glyph glyph-name="ccedilla" unicode="&#xe7;" horiz-adv-x="447" 
d="M418 28q-23 -15 -65.5 -27t-93.5 -12q-61 0 -103.5 15.5t-69 45t-38.5 73t-12 99.5q0 126 61 186.5t179 60.5q48 0 88.5 -15.5t63.5 -42.5l-59 -57q-36 41 -95 41q-66 0 -100 -40.5t-34 -133.5q0 -74 29 -116t100 -42q40 0 69.5 8.5t59.5 23.5zM147 -149q17 -6 33 -9
t34 -3q29 0 44 8.5t15 30.5q0 27 -20.5 36t-76.5 15l21 54q88 -5 129.5 -27t41.5 -77q0 -57 -34 -81t-109 -24q-29 0 -56 5t-46 13z" />
    <glyph glyph-name="egrave" unicode="&#xe8;" horiz-adv-x="485" 
d="M257 -11q-62 0 -104.5 15t-68.5 45.5t-37 76t-11 106.5q0 237 219 237q59 0 96.5 -17t59 -47t29.5 -71t8 -89v-41h-306q2 -69 25 -100q30 -39 106 -39q52 0 86 12.5t60 24.5l22 -66q-12 -8 -32.5 -16.5t-45.5 -15t-52 -11t-54 -4.5zM342 275q0 66 -22 95t-67 29
q-51 0 -75 -23t-32 -71l-3 -30h199zM222 685l114 -159h-97l-131 159h114z" />
    <glyph glyph-name="eacute" unicode="&#xe9;" horiz-adv-x="485" 
d="M257 -11q-62 0 -104.5 15t-68.5 45.5t-37 76t-11 106.5q0 237 219 237q59 0 96.5 -17t59 -47t29.5 -71t8 -89v-41h-306q2 -69 25 -100q30 -39 106 -39q52 0 86 12.5t60 24.5l22 -66q-12 -8 -32.5 -16.5t-45.5 -15t-52 -11t-54 -4.5zM342 275q0 66 -22 95t-67 29
q-51 0 -75 -23t-32 -71l-3 -30h199zM407 685l-132 -159h-98l115 159h115z" />
    <glyph glyph-name="ecircumflex" unicode="&#xea;" horiz-adv-x="485" 
d="M257 -11q-62 0 -104.5 15t-68.5 45.5t-37 76t-11 106.5q0 237 219 237q59 0 96.5 -17t59 -47t29.5 -71t8 -89v-41h-306q2 -69 25 -100q30 -39 106 -39q52 0 86 12.5t60 24.5l22 -66q-12 -8 -32.5 -16.5t-45.5 -15t-52 -11t-54 -4.5zM342 275q0 66 -22 95t-67 29
q-51 0 -75 -23t-32 -71l-3 -30h199zM323 685l104 -159h-93l-73 106h-10l-77 -106h-89l106 159h132z" />
    <glyph glyph-name="edieresis" unicode="&#xeb;" horiz-adv-x="485" 
d="M257 -11q-62 0 -104.5 15t-68.5 45.5t-37 76t-11 106.5q0 237 219 237q59 0 96.5 -17t59 -47t29.5 -71t8 -89v-41h-306q2 -69 25 -100q30 -39 106 -39q52 0 86 12.5t60 24.5l22 -66q-12 -8 -32.5 -16.5t-45.5 -15t-52 -11t-54 -4.5zM342 275q0 66 -22 95t-67 29
q-51 0 -75 -23t-32 -71l-3 -30h199zM208 560h-101v92h101v-92zM397 560h-101v92h101v-92z" />
    <glyph glyph-name="igrave" unicode="&#xec;" horiz-adv-x="219" 
d="M84 685l114 -159h-97l-131 159h114zM160 0h-102v458h102v-458z" />
    <glyph glyph-name="iacute" unicode="&#xed;" horiz-adv-x="219" 
d="M251 685l-132 -159h-98l115 159h115zM160 0h-102v458h102v-458z" />
    <glyph glyph-name="icircumflex" unicode="&#xee;" horiz-adv-x="219" 
d="M177 689l91 -158h-88l-65 104h-10l-67 -104h-86l93 158h132zM160 0h-102v458h102v-458z" />
    <glyph glyph-name="idieresis" unicode="&#xef;" horiz-adv-x="219" 
d="M73 560h-92v92h92v-92zM234 560h-91v92h91v-92zM160 0h-102v458h102v-458z" />
    <glyph glyph-name="eth" unicode="&#xf0;" horiz-adv-x="518" 
d="M259 -12q-61 0 -103.5 16.5t-69 48t-38.5 76.5t-12 102q0 118 56.5 177.5t162.5 59.5q49 0 84 -16q5 -2 9.5 -5t8.5 -5q-9 29 -26 56q-22 35 -63 64l-152 -73l-27 52l115 55q-54 20 -130 29l14 72q44 -6 83.5 -15.5t76.5 -22.5l22 -10l22 -10l119 58l28 -52l-89 -43
q12 -9 22 -19q52 -49 80.5 -126t28.5 -189q0 -149 -56.5 -214.5t-165.5 -65.5zM340 374q-39 17 -75 17q-69 0 -96.5 -41.5t-27.5 -126.5q0 -34 6 -63.5t20 -51.5t36.5 -34.5t55.5 -12.5q36 0 59.5 14t37 39.5t19 61t5.5 79.5q0 26 -1.5 51t-3.5 48q-8 5 -16.5 10t-18.5 10z
" />
    <glyph glyph-name="ntilde" unicode="&#xf1;" horiz-adv-x="508" 
d="M145 458l3 -36q27 19 57 29q52 18 99 18q45 0 74.5 -11.5t46 -33t23 -52.5t6.5 -71v-301h-102v279q0 24 -2.5 44t-11 34.5t-24 22.5t-40.5 8q-29 0 -53 -8t-43 -20l-18 -12v-348h-102v336l-8 122h95zM83 614q19 20 48.5 34t63.5 14q20 0 36.5 -5t31 -11.5t29 -11.5
t30.5 -5q24 0 43.5 9.5t38.5 21.5l30 -61q-22 -21 -50.5 -35t-62.5 -14q-21 0 -37 5t-31 11.5t-29.5 11.5t-30.5 5q-23 0 -42.5 -9t-37.5 -20z" />
    <glyph glyph-name="ograve" unicode="&#xf2;" horiz-adv-x="517" 
d="M247 -11q-61 0 -101.5 16.5t-65 48t-34.5 76t-10 101.5q0 121 55 179.5t178 58.5q60 0 101 -16.5t65.5 -48t35 -76.5t10.5 -102q0 -121 -56.5 -179t-177.5 -58zM247 62q75 0 102 43.5t27 129.5q0 33 -4.5 62.5t-16.5 52t-33 35.5t-53 13q-74 0 -101 -45t-27 -130
q0 -33 4 -62.5t16 -51.5t32.5 -34.5t53.5 -12.5zM231 685l114 -159h-97l-131 159h114z" />
    <glyph glyph-name="oacute" unicode="&#xf3;" horiz-adv-x="517" 
d="M247 -11q-61 0 -101.5 16.5t-65 48t-34.5 76t-10 101.5q0 121 55 179.5t178 58.5q60 0 101 -16.5t65.5 -48t35 -76.5t10.5 -102q0 -121 -56.5 -179t-177.5 -58zM247 62q75 0 102 43.5t27 129.5q0 33 -4.5 62.5t-16.5 52t-33 35.5t-53 13q-74 0 -101 -45t-27 -130
q0 -33 4 -62.5t16 -51.5t32.5 -34.5t53.5 -12.5zM420 685l-132 -159h-98l115 159h115z" />
    <glyph glyph-name="ocircumflex" unicode="&#xf4;" horiz-adv-x="517" 
d="M247 -11q-61 0 -101.5 16.5t-65 48t-34.5 76t-10 101.5q0 121 55 179.5t178 58.5q60 0 101 -16.5t65.5 -48t35 -76.5t10.5 -102q0 -121 -56.5 -179t-177.5 -58zM247 62q75 0 102 43.5t27 129.5q0 33 -4.5 62.5t-16.5 52t-33 35.5t-53 13q-74 0 -101 -45t-27 -130
q0 -33 4 -62.5t16 -51.5t32.5 -34.5t53.5 -12.5zM330 685l104 -159h-93l-73 106h-10l-77 -106h-89l106 159h132z" />
    <glyph glyph-name="otilde" unicode="&#xf5;" horiz-adv-x="517" 
d="M247 -11q-61 0 -101.5 16.5t-65 48t-34.5 76t-10 101.5q0 121 55 179.5t178 58.5q60 0 101 -16.5t65.5 -48t35 -76.5t10.5 -102q0 -121 -56.5 -179t-177.5 -58zM247 62q75 0 102 43.5t27 129.5q0 33 -4.5 62.5t-16.5 52t-33 35.5t-53 13q-74 0 -101 -45t-27 -130
q0 -33 4 -62.5t16 -51.5t32.5 -34.5t53.5 -12.5zM91 614q19 20 48.5 34t63.5 14q20 0 36.5 -5t31 -11.5t29 -11.5t30.5 -5q24 0 43.5 9.5t38.5 21.5l30 -61q-22 -21 -50.5 -35t-62.5 -14q-21 0 -37 5t-31 11.5t-29.5 11.5t-30.5 5q-23 0 -42.5 -9t-37.5 -20z" />
    <glyph glyph-name="odieresis" unicode="&#xf6;" horiz-adv-x="517" 
d="M247 -11q-61 0 -101.5 16.5t-65 48t-34.5 76t-10 101.5q0 121 55 179.5t178 58.5q60 0 101 -16.5t65.5 -48t35 -76.5t10.5 -102q0 -121 -56.5 -179t-177.5 -58zM247 62q75 0 102 43.5t27 129.5q0 33 -4.5 62.5t-16.5 52t-33 35.5t-53 13q-74 0 -101 -45t-27 -130
q0 -33 4 -62.5t16 -51.5t32.5 -34.5t53.5 -12.5zM218 560h-101v92h101v-92zM407 560h-101v92h101v-92z" />
    <glyph glyph-name="divide" unicode="&#xf7;" horiz-adv-x="533" 
d="M321 367h-108v103h108v-103zM213 164h108v-103h-108v103zM58 307h416v-83h-416v83z" />
    <glyph glyph-name="oslash" unicode="&#xf8;" horiz-adv-x="517" 
d="M247 -12q-72 0 -115 24l-44 -54l-66 55l47 56q-18 31 -25.5 71t-7.5 91q0 121 55 180t178 59q68 0 113 -25l46 54l66 -54l-48 -57q19 -31 27 -71t8 -91q0 -121 -56.5 -179.5t-177.5 -58.5zM247 56q76 0 104.5 45.5t28.5 133.5q0 18 -1.5 36t-6.5 33l-191 -228
q12 -9 28 -14.5t38 -5.5zM269 402q-75 0 -104 -46t-29 -133q0 -39 8 -69l191 227q-26 21 -66 21z" />
    <glyph glyph-name="ugrave" unicode="&#xf9;" horiz-adv-x="505" 
d="M446 122l9 -122h-95l-5 36q-13 -9 -27 -16t-28 -12q-50 -19 -99 -19q-45 0 -73.5 11.5t-45 33t-23 52.5t-6.5 71v301h103v-280q0 -23 2.5 -43t10.5 -34.5t23 -23t41 -8.5q28 0 51.5 7.5t42.5 19.5q8 6 17 12v350h102v-336zM194 685l114 -159h-97l-131 159h114z" />
    <glyph glyph-name="uacute" unicode="&#xfa;" horiz-adv-x="505" 
d="M446 122l9 -122h-95l-5 36q-13 -9 -27 -16t-28 -12q-50 -19 -99 -19q-45 0 -73.5 11.5t-45 33t-23 52.5t-6.5 71v301h103v-280q0 -23 2.5 -43t10.5 -34.5t23 -23t41 -8.5q28 0 51.5 7.5t42.5 19.5q8 6 17 12v350h102v-336zM428 685l-132 -159h-98l115 159h115z" />
    <glyph glyph-name="ucircumflex" unicode="&#xfb;" horiz-adv-x="505" 
d="M446 122l9 -122h-95l-5 36q-13 -9 -27 -16t-28 -12q-50 -19 -99 -19q-45 0 -73.5 11.5t-45 33t-23 52.5t-6.5 71v301h103v-280q0 -23 2.5 -43t10.5 -34.5t23 -23t41 -8.5q28 0 51.5 7.5t42.5 19.5q8 6 17 12v350h102v-336zM320 685l104 -159h-93l-73 106h-10l-77 -106
h-89l106 159h132z" />
    <glyph glyph-name="udieresis" unicode="&#xfc;" horiz-adv-x="505" 
d="M446 122l9 -122h-95l-5 36q-13 -9 -27 -16t-28 -12q-50 -19 -99 -19q-45 0 -73.5 11.5t-45 33t-23 52.5t-6.5 71v301h103v-280q0 -23 2.5 -43t10.5 -34.5t23 -23t41 -8.5q28 0 51.5 7.5t42.5 19.5q8 6 17 12v350h102v-336zM208 560h-101v92h101v-92zM397 560h-101v92h101
v-92z" />
    <glyph glyph-name="yacute" unicode="&#xfd;" horiz-adv-x="454" 
d="M3 458h113l114 -338h9l108 338h104l-178 -490q-16 -44 -32.5 -79.5t-40 -61t-56.5 -39.5t-82 -14q-14 0 -29 0.5t-28 5.5l13 72q15 -4 36 -4q35 0 54.5 11.5t30.5 26.5q12 18 24 50t23 61zM406 685l-132 -159h-98l115 159h115z" />
    <glyph glyph-name="thorn" unicode="&#xfe;" horiz-adv-x="509" 
d="M160 84q7 -4 13 -7.5t13 -5.5q27 -8 51 -8q60 0 95 39t35 132q0 35 -6 64.5t-20 50.5t-36.5 33t-54.5 12q-37 0 -65 -16q-6 -3 -12 -7.5t-13 -9.5v-277zM160 9v-218l-103 -13v902l103 13v-256q19 10 39 18q39 14 84 14q97 0 143.5 -60.5t46.5 -169.5q0 -55 -12 -101
t-38 -79t-68 -51.5t-102 -18.5q-34 0 -62 9q-13 3 -25 8q-3 1 -6 3z" />
    <glyph glyph-name="ydieresis" unicode="&#xff;" horiz-adv-x="454" 
d="M3 458h113l114 -338h9l108 338h104l-178 -490q-16 -44 -32.5 -79.5t-40 -61t-56.5 -39.5t-82 -14q-14 0 -29 0.5t-28 5.5l13 72q15 -4 36 -4q35 0 54.5 11.5t30.5 26.5q12 18 24 50t23 61zM186 560h-101v92h101v-92zM375 560h-101v92h101v-92z" />
    <glyph glyph-name="Amacron" unicode="&#x100;" horiz-adv-x="633" 
d="M510 0l-62 182h-268l-62 -182h-112l239 659h144l236 -659h-115zM310 576l-102 -310h211l-101 310h-8zM467 768h-300v79h300v-79z" />
    <glyph glyph-name="amacron" unicode="&#x101;" horiz-adv-x="472" 
d="M459 -1q-17 -3 -38 -3q-36 0 -58 12.5t-34 35.5q-25 -22 -64.5 -38.5t-82.5 -16.5q-46 0 -75 11.5t-46 31t-23.5 45.5t-6.5 55q0 44 14.5 72t41 44t63.5 22t81 6q41 0 82 -3v22q0 54 -21 76.5t-79 22.5q-40 0 -76.5 -10t-63.5 -24l-23 65q37 18 86 31t103 13
q50 0 84 -9.5t54.5 -32t29.5 -59t9 -90.5v-153q0 -32 11 -43.5t32 -11.5v-71zM229 205q-52 0 -71.5 -17.5t-19.5 -52.5q0 -36 15.5 -54.5t55.5 -18.5q25 0 53.5 11t50.5 30v97q-22 4 -42.5 4.5t-41.5 0.5zM392 568h-300v79h300v-79z" />
    <glyph glyph-name="Abreve" unicode="&#x102;" horiz-adv-x="633" 
d="M510 0l-62 182h-268l-62 -182h-112l239 659h144l236 -659h-115zM310 576l-102 -310h211l-101 310h-8zM473 884q0 -81 -37 -122.5t-122 -41.5t-121.5 41t-36.5 123h79q3 -43 19.5 -69t59.5 -26q44 0 60.5 26t19.5 69h79z" />
    <glyph glyph-name="abreve" unicode="&#x103;" horiz-adv-x="472" 
d="M459 -1q-17 -3 -38 -3q-36 0 -58 12.5t-34 35.5q-25 -22 -64.5 -38.5t-82.5 -16.5q-46 0 -75 11.5t-46 31t-23.5 45.5t-6.5 55q0 44 14.5 72t41 44t63.5 22t81 6q41 0 82 -3v22q0 54 -21 76.5t-79 22.5q-40 0 -76.5 -10t-63.5 -24l-23 65q37 18 86 31t103 13
q50 0 84 -9.5t54.5 -32t29.5 -59t9 -90.5v-153q0 -32 11 -43.5t32 -11.5v-71zM229 205q-52 0 -71.5 -17.5t-19.5 -52.5q0 -36 15.5 -54.5t55.5 -18.5q25 0 53.5 11t50.5 30v97q-22 4 -42.5 4.5t-41.5 0.5zM389 685q0 -81 -37 -122.5t-122 -41.5t-121.5 41t-36.5 123h79
q3 -43 19.5 -69t59.5 -26q44 0 60.5 26t19.5 69h79z" />
    <glyph glyph-name="Aogonek" unicode="&#x104;" horiz-adv-x="633" 
d="M310 576l-102 -310h211l-101 310h-8zM625 0q-32 -13 -66 -35q-26 -19 -35 -36.5t-9 -38.5q0 -46 49 -46q29 0 51 8l19 -58q-19 -8 -45 -13t-53 -5q-63 0 -90.5 23t-27.5 74q0 35 17 63.5t68 58.5q5 2 11 5h-4l-62 182h-268l-62 -182h-112l239 659h144z" />
    <glyph glyph-name="aogonek" unicode="&#x105;" horiz-adv-x="472" 
d="M229 205q-52 0 -71.5 -17.5t-19.5 -52.5q0 -36 15.5 -54.5t55.5 -18.5q25 0 53.5 11t50.5 30v97q-22 4 -42.5 4.5t-41.5 0.5zM459 -1q-18 -10 -33 -19t-30 -20q-22 -18 -29.5 -34t-7.5 -36q0 -46 49 -46q29 0 51 8l19 -58q-19 -8 -45.5 -13t-53.5 -5q-63 0 -90.5 23
t-27.5 74q0 37 19 65t71 57q10 5 20 9q-4 2 -8 5q-22 12 -34 35q-25 -22 -64.5 -38.5t-82.5 -16.5q-46 0 -75 11.5t-46 31t-23.5 45.5t-6.5 55q0 44 14.5 72t41 44t63.5 22t81 6q41 0 82 -3v22q0 54 -21 76.5t-79 22.5q-40 0 -76.5 -10t-63.5 -24l-23 65q37 18 86 31t103 13
q50 0 84 -9.5t54.5 -32t29.5 -59t9 -90.5v-153q0 -32 11 -43.5t32 -11.5v-71z" />
    <glyph glyph-name="Cacute" unicode="&#x106;" horiz-adv-x="597" 
d="M337 -11q-155 1 -224 86.5t-69 253.5q0 175 78.5 257.5t223.5 82.5q30 0 61 -5.5t59.5 -16t53 -27t42.5 -38.5l-62 -61q-28 31 -63.5 48t-87.5 17q-103 0 -150 -67t-47 -199q0 -120 45.5 -181t144.5 -61q60 0 107 12.5t85 28.5l25 -81q-40 -21 -99.5 -35t-122.5 -14z
M512 885l-132 -159h-98l115 159h115z" />
    <glyph glyph-name="cacute" unicode="&#x107;" horiz-adv-x="447" 
d="M418 28q-23 -15 -65.5 -27t-93.5 -12q-61 0 -103.5 15.5t-69 45t-38.5 73t-12 99.5q0 126 61 186.5t179 60.5q48 0 88.5 -15.5t63.5 -42.5l-59 -57q-36 41 -95 41q-66 0 -100 -40.5t-34 -133.5q0 -74 29 -116t100 -42q40 0 69.5 8.5t59.5 23.5zM405 685l-132 -159h-98
l115 159h115z" />
    <glyph glyph-name="Ccircumflex" unicode="&#x108;" horiz-adv-x="597" 
d="M337 -11q-155 1 -224 86.5t-69 253.5q0 175 78.5 257.5t223.5 82.5q30 0 61 -5.5t59.5 -16t53 -27t42.5 -38.5l-62 -61q-28 31 -63.5 48t-87.5 17q-103 0 -150 -67t-47 -199q0 -120 45.5 -181t144.5 -61q60 0 107 12.5t85 28.5l25 -81q-40 -21 -99.5 -35t-122.5 -14z
M407 885l104 -159h-93l-73 106h-10l-77 -106h-89l106 159h132z" />
    <glyph glyph-name="ccircumflex" unicode="&#x109;" horiz-adv-x="447" 
d="M418 28q-23 -15 -65.5 -27t-93.5 -12q-61 0 -103.5 15.5t-69 45t-38.5 73t-12 99.5q0 126 61 186.5t179 60.5q48 0 88.5 -15.5t63.5 -42.5l-59 -57q-36 41 -95 41q-66 0 -100 -40.5t-34 -133.5q0 -74 29 -116t100 -42q40 0 69.5 8.5t59.5 23.5zM324 685l104 -159h-93
l-73 106h-10l-77 -106h-89l106 159h132z" />
    <glyph glyph-name="Cdotaccent" unicode="&#x10a;" horiz-adv-x="597" 
d="M337 -11q-155 1 -224 86.5t-69 253.5q0 175 78.5 257.5t223.5 82.5q30 0 61 -5.5t59.5 -16t53 -27t42.5 -38.5l-62 -61q-28 31 -63.5 48t-87.5 17q-103 0 -150 -67t-47 -199q0 -120 45.5 -181t144.5 -61q60 0 107 12.5t85 28.5l25 -81q-40 -21 -99.5 -35t-122.5 -14z
M388 760h-104v92h104v-92z" />
    <glyph glyph-name="cdotaccent" unicode="&#x10b;" horiz-adv-x="447" 
d="M418 28q-23 -15 -65.5 -27t-93.5 -12q-61 0 -103.5 15.5t-69 45t-38.5 73t-12 99.5q0 126 61 186.5t179 60.5q48 0 88.5 -15.5t63.5 -42.5l-59 -57q-36 41 -95 41q-66 0 -100 -40.5t-34 -133.5q0 -74 29 -116t100 -42q40 0 69.5 8.5t59.5 23.5zM309 560h-104v92h104v-92z
" />
    <glyph glyph-name="Ccaron" unicode="&#x10c;" horiz-adv-x="597" 
d="M337 -11q-155 1 -224 86.5t-69 253.5q0 175 78.5 257.5t223.5 82.5q30 0 61 -5.5t59.5 -16t53 -27t42.5 -38.5l-62 -61q-28 31 -63.5 48t-87.5 17q-103 0 -150 -67t-47 -199q0 -120 45.5 -181t144.5 -61q60 0 107 12.5t85 28.5l25 -81q-40 -21 -99.5 -35t-122.5 -14z
M275 726l-104 159h92l74 -105h10l77 105h89l-107 -159h-131z" />
    <glyph glyph-name="ccaron" unicode="&#x10d;" horiz-adv-x="447" 
d="M418 28q-23 -15 -65.5 -27t-93.5 -12q-61 0 -103.5 15.5t-69 45t-38.5 73t-12 99.5q0 126 61 186.5t179 60.5q48 0 88.5 -15.5t63.5 -42.5l-59 -57q-36 41 -95 41q-66 0 -100 -40.5t-34 -133.5q0 -74 29 -116t100 -42q40 0 69.5 8.5t59.5 23.5zM196 526l-104 159h92
l74 -105h10l77 105h89l-107 -159h-131z" />
    <glyph glyph-name="Dcaron" unicode="&#x10e;" horiz-adv-x="647" 
d="M271 659q79 0 140.5 -18t104 -57.5t64.5 -103t22 -153.5q0 -93 -27 -156t-74.5 -101t-113 -54t-142.5 -16h-174v659h200zM242 83q59 0 105.5 12t79 41t49.5 78t17 124q0 123 -57.5 180t-165.5 57h-95v-492h67zM235 726l-104 159h92l74 -105h10l77 105h89l-107 -159h-131z
" />
    <glyph glyph-name="dcaron" unicode="&#x10f;" horiz-adv-x="638" 
d="M576 522h-70l28 168h101zM226 -11q-99 0 -144.5 60.5t-45.5 169.5q0 55 12 101t38.5 79t68 51.5t101.5 18.5q34 0 61 -9q14 -4 32 -12v232l102 13v-573l8 -120h-89l-8 30q-25 -17 -52 -28q-36 -13 -84 -13zM323 387q-27 8 -51 8q-61 0 -95.5 -39t-34.5 -132
q0 -35 6 -64.5t19.5 -50.5t36 -33t54.5 -12q39 0 65 16q7 4 13 9t13 10v275q-7 4 -13 7.5t-13 5.5z" />
    <glyph glyph-name="Dcroat" unicode="&#x110;" horiz-adv-x="658" 
d="M186 375h145v-84h-145v-208h67q59 0 105.5 12t79 41t49.5 78t17 124q0 123 -57.5 180t-165.5 57h-95v-200zM82 291h-67v84h67v284h200q79 0 140.5 -18t104 -57.5t64.5 -103t22 -153.5q0 -93 -27 -156t-74.5 -101t-113 -54t-142.5 -16h-174v291z" />
    <glyph glyph-name="dcroat" unicode="&#x111;" horiz-adv-x="513" 
d="M323 387q-27 8 -51 8q-61 0 -95.5 -39t-34.5 -132q0 -35 6 -64.5t19.5 -50.5t36 -33t54.5 -12q39 0 65 16q7 4 13 9t13 10v275q-7 4 -13 7.5t-13 5.5zM451 601h73v-72h-73v-409l8 -120h-89l-8 30q-25 -17 -52 -28q-36 -13 -84 -13q-99 0 -144.5 60.5t-45.5 169.5
q0 55 12 101t38.5 79t68 51.5t101.5 18.5q34 0 61 -9q14 -4 32 -12v81h-120v72h120v79l102 13v-92z" />
    <glyph glyph-name="Emacron" unicode="&#x112;" horiz-adv-x="542" 
d="M490 83v-83h-419v659h408v-84h-304v-195h294v-82h-294v-215h315zM427 768h-300v79h300v-79z" />
    <glyph glyph-name="emacron" unicode="&#x113;" horiz-adv-x="485" 
d="M257 -11q-62 0 -104.5 15t-68.5 45.5t-37 76t-11 106.5q0 237 219 237q59 0 96.5 -17t59 -47t29.5 -71t8 -89v-41h-306q2 -69 25 -100q30 -39 106 -39q52 0 86 12.5t60 24.5l22 -66q-12 -8 -32.5 -16.5t-45.5 -15t-52 -11t-54 -4.5zM342 275q0 66 -22 95t-67 29
q-51 0 -75 -23t-32 -71l-3 -30h199zM403 568h-300v79h300v-79z" />
    <glyph glyph-name="Ebreve" unicode="&#x114;" horiz-adv-x="542" 
d="M490 83v-83h-419v659h408v-84h-304v-195h294v-82h-294v-215h315zM436 884q0 -81 -37 -122.5t-122 -41.5t-121.5 41t-36.5 123h79q3 -43 19.5 -69t59.5 -26q44 0 60.5 26t19.5 69h79z" />
    <glyph glyph-name="ebreve" unicode="&#x115;" horiz-adv-x="485" 
d="M257 -11q-62 0 -104.5 15t-68.5 45.5t-37 76t-11 106.5q0 237 219 237q59 0 96.5 -17t59 -47t29.5 -71t8 -89v-41h-306q2 -69 25 -100q30 -39 106 -39q52 0 86 12.5t60 24.5l22 -66q-12 -8 -32.5 -16.5t-45.5 -15t-52 -11t-54 -4.5zM342 275q0 66 -22 95t-67 29
q-51 0 -75 -23t-32 -71l-3 -30h199zM412 685q0 -81 -37 -122.5t-122 -41.5t-121.5 41t-36.5 123h79q3 -43 19.5 -69t59.5 -26q44 0 60.5 26t19.5 69h79z" />
    <glyph glyph-name="Edotaccent" unicode="&#x116;" horiz-adv-x="542" 
d="M490 83v-83h-419v659h408v-84h-304v-195h294v-82h-294v-215h315zM336 760h-104v92h104v-92z" />
    <glyph glyph-name="edotaccent" unicode="&#x117;" horiz-adv-x="485" 
d="M257 -11q-62 0 -104.5 15t-68.5 45.5t-37 76t-11 106.5q0 237 219 237q59 0 96.5 -17t59 -47t29.5 -71t8 -89v-41h-306q2 -69 25 -100q30 -39 106 -39q52 0 86 12.5t60 24.5l22 -66q-12 -8 -32.5 -16.5t-45.5 -15t-52 -11t-54 -4.5zM342 275q0 66 -22 95t-67 29
q-51 0 -75 -23t-32 -71l-3 -30h199zM301 560h-104v92h104v-92z" />
    <glyph glyph-name="Eogonek" unicode="&#x118;" horiz-adv-x="542" 
d="M389 0h-318v659h408v-84h-304v-195h294v-82h-294v-215h315v-83h-2q-17 -10 -32.5 -19t-28.5 -19q-25 -18 -33 -34.5t-8 -37.5q0 -46 50 -46q27 0 51 8l18 -58q-18 -8 -44.5 -13t-53.5 -5q-63 0 -90.5 23t-27.5 74q0 37 19 64.5t71 57.5q5 3 10 5z" />
    <glyph glyph-name="eogonek" unicode="&#x119;" horiz-adv-x="485" 
d="M430 -206q-18 -8 -44.5 -13t-54.5 -5q-61 0 -89.5 25t-28.5 73q0 46 22 74q20 24 51 43q-7 -1 -14 -1h-15q-62 0 -104.5 15t-68.5 45t-37 75.5t-11 106.5q0 237 219 237q59 0 96.5 -17t59 -47t29.5 -71t8 -89v-41h-306q1 -75 31.5 -107t99.5 -32q52 0 86 13t60 25l22 -66
q-21 -11 -43 -24t-41 -27q-22 -18 -34 -37.5t-12 -48.5q0 -22 11.5 -39t38.5 -17t51 8zM342 275q0 66 -22 95t-67 29q-60 0 -84 -30.5t-26 -93.5h199z" />
    <glyph glyph-name="Ecaron" unicode="&#x11a;" horiz-adv-x="542" 
d="M490 83v-83h-419v659h408v-84h-304v-195h294v-82h-294v-215h315zM212 726l-104 159h92l74 -105h10l77 105h89l-107 -159h-131z" />
    <glyph glyph-name="ecaron" unicode="&#x11b;" horiz-adv-x="485" 
d="M257 -11q-62 0 -104.5 15t-68.5 45.5t-37 76t-11 106.5q0 237 219 237q59 0 96.5 -17t59 -47t29.5 -71t8 -89v-41h-306q2 -69 25 -100q30 -39 106 -39q52 0 86 12.5t60 24.5l22 -66q-12 -8 -32.5 -16.5t-45.5 -15t-52 -11t-54 -4.5zM342 275q0 66 -22 95t-67 29
q-51 0 -75 -23t-32 -71l-3 -30h199zM185 526l-104 159h92l74 -105h10l77 105h89l-107 -159h-131z" />
    <glyph glyph-name="Gcircumflex" unicode="&#x11c;" horiz-adv-x="653" 
d="M586 34q-45 -21 -105.5 -33t-129.5 -12q-159 0 -233 87.5t-74 252.5q0 87 21.5 151t62.5 106t99.5 62.5t132.5 20.5q72 0 130.5 -21.5t96.5 -69.5l-64 -57q-28 30 -66 48.5t-95 18.5q-109 0 -160 -68t-51 -200q0 -123 50 -185t155 -62q45 0 81 6q13 2 24.5 4.5t22.5 5.5
v177h-151v82h253v-314zM412 885l104 -159h-93l-73 106h-10l-77 -106h-89l106 159h132z" />
    <glyph glyph-name="gcircumflex" unicode="&#x11d;" horiz-adv-x="508" 
d="M451 458v-474q0 -59 -16.5 -99t-46 -65t-71 -35.5t-90.5 -10.5q-45 0 -83.5 6.5t-66.5 16.5l26 73q22 -6 51.5 -12.5t69.5 -6.5q27 0 50 5.5t39.5 19t26 36.5t9.5 57v46q-26 -12 -53.5 -19t-61.5 -7q-104 0 -151 59.5t-47 168.5q0 55 11.5 101.5t37.5 80t69 52t106 18.5
q34 0 60 -7.5t47 -18.5l5 15h79zM349 378q-19 8 -36 12.5t-38 4.5q-70 0 -101.5 -41t-31.5 -134q0 -32 6 -60.5t20 -50t38 -34t59 -12.5q22 0 42 5.5t42 15.5v294zM332 685l104 -159h-93l-73 106h-10l-77 -106h-89l106 159h132z" />
    <glyph glyph-name="Gbreve" unicode="&#x11e;" horiz-adv-x="653" 
d="M586 34q-45 -21 -105.5 -33t-129.5 -12q-159 0 -233 87.5t-74 252.5q0 87 21.5 151t62.5 106t99.5 62.5t132.5 20.5q72 0 130.5 -21.5t96.5 -69.5l-64 -57q-28 30 -66 48.5t-95 18.5q-109 0 -160 -68t-51 -200q0 -123 50 -185t155 -62q45 0 81 6q13 2 24.5 4.5t22.5 5.5
v177h-151v82h253v-314zM503 884q0 -81 -37 -122.5t-122 -41.5t-121.5 41t-36.5 123h79q3 -43 19.5 -69t59.5 -26q44 0 60.5 26t19.5 69h79z" />
    <glyph glyph-name="gbreve" unicode="&#x11f;" horiz-adv-x="508" 
d="M451 458v-474q0 -59 -16.5 -99t-46 -65t-71 -35.5t-90.5 -10.5q-45 0 -83.5 6.5t-66.5 16.5l26 73q22 -6 51.5 -12.5t69.5 -6.5q27 0 50 5.5t39.5 19t26 36.5t9.5 57v46q-26 -12 -53.5 -19t-61.5 -7q-104 0 -151 59.5t-47 168.5q0 55 11.5 101.5t37.5 80t69 52t106 18.5
q34 0 60 -7.5t47 -18.5l5 15h79zM349 378q-19 8 -36 12.5t-38 4.5q-70 0 -101.5 -41t-31.5 -134q0 -32 6 -60.5t20 -50t38 -34t59 -12.5q22 0 42 5.5t42 15.5v294zM414 685q0 -81 -37 -122.5t-122 -41.5t-121.5 41t-36.5 123h79q3 -43 19.5 -69t59.5 -26q44 0 60.5 26
t19.5 69h79z" />
    <glyph glyph-name="Gdotaccent" unicode="&#x120;" horiz-adv-x="653" 
d="M586 34q-45 -21 -105.5 -33t-129.5 -12q-159 0 -233 87.5t-74 252.5q0 87 21.5 151t62.5 106t99.5 62.5t132.5 20.5q72 0 130.5 -21.5t96.5 -69.5l-64 -57q-28 30 -66 48.5t-95 18.5q-109 0 -160 -68t-51 -200q0 -123 50 -185t155 -62q45 0 81 6q13 2 24.5 4.5t22.5 5.5
v177h-151v82h253v-314zM401 760h-104v92h104v-92z" />
    <glyph glyph-name="gdotaccent" unicode="&#x121;" horiz-adv-x="508" 
d="M451 458v-474q0 -59 -16.5 -99t-46 -65t-71 -35.5t-90.5 -10.5q-45 0 -83.5 6.5t-66.5 16.5l26 73q22 -6 51.5 -12.5t69.5 -6.5q27 0 50 5.5t39.5 19t26 36.5t9.5 57v46q-26 -12 -53.5 -19t-61.5 -7q-104 0 -151 59.5t-47 168.5q0 55 11.5 101.5t37.5 80t69 52t106 18.5
q34 0 60 -7.5t47 -18.5l5 15h79zM349 378q-19 8 -36 12.5t-38 4.5q-70 0 -101.5 -41t-31.5 -134q0 -32 6 -60.5t20 -50t38 -34t59 -12.5q22 0 42 5.5t42 15.5v294zM310 560h-104v92h104v-92z" />
    <glyph glyph-name="uni0122" unicode="&#x122;" horiz-adv-x="653" 
d="M586 34q-45 -21 -105.5 -33t-129.5 -12q-159 0 -233 87.5t-74 252.5q0 87 21.5 151t62.5 106t99.5 62.5t132.5 20.5q72 0 130.5 -21.5t96.5 -69.5l-64 -57q-28 30 -66 48.5t-95 18.5q-109 0 -160 -68t-51 -200q0 -123 50 -185t155 -62q45 0 81 6q13 2 24.5 4.5t22.5 5.5
v177h-151v82h253v-314zM253 -245q33 44 44 87.5t11 102.5h94q0 -73 -21 -130.5t-67 -108.5z" />
    <glyph glyph-name="uni0123" unicode="&#x123;" horiz-adv-x="508" 
d="M451 458v-474q0 -59 -16.5 -99t-46 -65t-71 -35.5t-90.5 -10.5q-45 0 -83.5 6.5t-66.5 16.5l26 73q22 -6 51.5 -12.5t69.5 -6.5q27 0 50 5.5t39.5 19t26 36.5t9.5 57v46q-26 -12 -53.5 -19t-61.5 -7q-104 0 -151 59.5t-47 168.5q0 55 11.5 101.5t37.5 80t69 52t106 18.5
q34 0 60 -7.5t47 -18.5l5 15h79zM349 378q-19 8 -36 12.5t-38 4.5q-70 0 -101.5 -41t-31.5 -134q0 -32 6 -60.5t20 -50t38 -34t59 -12.5q22 0 42 5.5t42 15.5v294zM369 701q-33 -44 -44 -87.5t-11 -102.5h-94q0 73 21 130.5t67 108.5z" />
    <glyph glyph-name="Hcircumflex" unicode="&#x124;" horiz-adv-x="662" 
d="M590 659v-659h-104v288h-311v-288h-104v659h104v-286h311v286h104zM400 885l104 -159h-93l-73 106h-10l-77 -106h-89l106 159h132z" />
    <glyph glyph-name="hcircumflex" unicode="&#x125;" horiz-adv-x="507" 
d="M352 0v279q0 23 -2.5 43t-11 34.5t-24 22.5t-40.5 8q-29 0 -53 -7.5t-43 -19.5l-18 -12v-348h-103v680l103 13v-264q21 13 45 21q52 18 99 18q45 0 74.5 -11t46 -32.5t23 -52.5t6.5 -71v-301h-102zM179 902l104 -159h-93l-73 106h-10l-77 -106h-89l106 159h132z" />
    <glyph glyph-name="Hbar" unicode="&#x126;" horiz-adv-x="677" 
d="M596 547h69v-77h-69v-470h-104v288h-311v-288h-104v470h-66v77h66v112h104v-112h311v112h104v-112zM492 470h-311v-97h311v97z" />
    <glyph glyph-name="hbar" unicode="&#x127;" horiz-adv-x="507" 
d="M160 601h126v-72h-126v-100q21 13 45 21q52 18 99 18q45 0 74.5 -11t46 -32.5t23 -52.5t6.5 -71v-301h-102v279q0 23 -2.5 43t-11 34.5t-24 22.5t-40.5 8q-29 0 -53 -7.5t-43 -19.5l-18 -12v-348h-103v529h-67v72h67v79l103 13v-92z" />
    <glyph glyph-name="Itilde" unicode="&#x128;" horiz-adv-x="248" 
d="M71 659h104v-659h-104v659zM-50 814q19 20 48.5 34t63.5 14q20 0 36.5 -5t31 -11.5t29 -11.5t30.5 -5q24 0 43.5 9.5t38.5 21.5l30 -61q-22 -21 -50.5 -35t-62.5 -14q-21 0 -37 5t-31 11.5t-29.5 11.5t-30.5 5q-23 0 -42.5 -9t-37.5 -20z" />
    <glyph glyph-name="itilde" unicode="&#x129;" horiz-adv-x="219" 
d="M245 585q-19 -15 -39.5 -24t-45.5 -9q-18 0 -31.5 4.5t-25.5 10.5t-24 10.5t-26 4.5q-21 0 -35.5 -6.5t-27.5 -17.5l-15 69q17 15 38 24.5t45 9.5q19 0 32.5 -4.5t25.5 -10t23.5 -10t25.5 -4.5q20 0 35.5 5.5t29.5 16.5zM160 0h-102v458h102v-458z" />
    <glyph glyph-name="Imacron" unicode="&#x12a;" horiz-adv-x="248" 
d="M71 659h104v-659h-104v659zM275 768h-300v79h300v-79z" />
    <glyph glyph-name="imacron" unicode="&#x12b;" horiz-adv-x="219" 
d="M58 458h102v-458h-102v458zM231 568h-242v79h242v-79z" />
    <glyph glyph-name="Ibreve" unicode="&#x12c;" horiz-adv-x="248" 
d="M71 659h104v-659h-104v659zM283 884q0 -81 -37 -122.5t-122 -41.5t-121.5 41t-36.5 123h79q3 -43 19.5 -69t59.5 -26q44 0 60.5 26t19.5 69h79z" />
    <glyph glyph-name="ibreve" unicode="&#x12d;" horiz-adv-x="219" 
d="M58 458h102v-458h-102v458zM270 685q0 -81 -37 -122.5t-122 -41.5t-121.5 41t-36.5 123h79q3 -43 19.5 -69t59.5 -26q44 0 60.5 26t19.5 69h79z" />
    <glyph glyph-name="Iogonek" unicode="&#x12e;" horiz-adv-x="248" 
d="M173 0q-28 -11 -66 -35q-26 -19 -35 -36.5t-9 -38.5q0 -46 50 -46q27 0 51 8l18 -58q-18 -8 -44 -13t-54 -5q-61 0 -89.5 23.5t-28.5 72.5q0 35 18 63.5t69 56.5q7 4 16 8v659h104v-659z" />
    <glyph glyph-name="iogonek" unicode="&#x12f;" horiz-adv-x="219" 
d="M57 652h104v-92h-104v92zM160 0q-15 -6 -31.5 -15.5t-29.5 -19.5q-23 -18 -32.5 -36t-9.5 -39q0 -46 50 -46q27 0 51 8l19 -58q-19 -8 -45.5 -13t-53.5 -5q-63 0 -90.5 23t-27.5 74q0 35 17 63.5t67 58.5q6 3 14 6v457h102v-458z" />
    <glyph glyph-name="Idotaccent" unicode="&#x130;" horiz-adv-x="248" 
d="M71 659h104v-659h-104v659zM177 760h-104v92h104v-92z" />
    <glyph glyph-name="dotlessi" unicode="&#x131;" horiz-adv-x="219" 
d="M160 0h-102v458h102v-458z" />
    <glyph glyph-name="IJ" unicode="&#x132;" horiz-adv-x="597" 
d="M71 659h104v-659h-104v659zM423 659h104v-464q0 -107 -44 -153.5t-143 -46.5q-22 0 -47.5 3t-47.5 12l14 78q19 -6 39 -8t35 -2q43 0 66.5 22.5t23.5 82.5v476z" />
    <glyph glyph-name="ij" unicode="&#x133;" horiz-adv-x="437" 
d="M57 652h104v-92h-104v92zM58 458h102v-458h-102v458zM195 -151h10q22 0 36 5t21.5 16t10.5 30t3 48v510h102v-492q0 -52 -8 -88.5t-28 -59.5t-53.5 -33.5t-84.5 -10.5h-9v75zM378 562h-103v90h103v-90z" />
    <glyph glyph-name="Jcircumflex" unicode="&#x134;" horiz-adv-x="353" 
d="M179 659h104v-464q0 -107 -44 -153.5t-143 -46.5q-22 0 -47.5 3t-47.5 12l14 78q19 -6 39 -8t35 -2q43 0 66.5 22.5t23.5 82.5v476zM300 885l104 -159h-93l-73 106h-10l-77 -106h-89l106 159h132z" />
    <glyph glyph-name="jcircumflex" unicode="&#x135;" horiz-adv-x="219" 
d="M-23 -145h10q22 0 36 4.5t21.5 16t10.5 30t3 47.5v505h102v-486q0 -52 -8 -88.5t-28 -60t-53.5 -34t-84.5 -10.5h-9v76zM177 689l91 -158h-88l-65 104h-10l-67 -104h-86l93 158h132z" />
    <glyph glyph-name="uni0136" unicode="&#x136;" horiz-adv-x="580" 
d="M175 0h-104v659h104v-289h54l234 289h119l-267 -323l256 -336h-126l-216 289h-54v-289zM184 -244q33 44 44 87.5t11 102.5h94q0 -73 -21 -130.5t-67 -108.5z" />
    <glyph glyph-name="uni0137" unicode="&#x137;" horiz-adv-x="471" 
d="M57 0v680l102 13v-406h40l157 171h115l-192 -209l199 -249h-116l-165 209h-38v-209h-102zM138 -244q33 44 44 87.5t11 102.5h94q0 -73 -21 -130.5t-67 -108.5z" />
    <glyph glyph-name="kgreenlandic" unicode="&#x138;" horiz-adv-x="471" 
d="M58 0v458h102v-182h41l155 182h116l-194 -220l201 -238h-116l-165 198h-38v-198h-102z" />
    <glyph glyph-name="Lacute" unicode="&#x139;" horiz-adv-x="466" 
d="M464 83v-83h-394v659h104v-576h290zM325 885l-132 -159h-98l115 159h115z" />
    <glyph glyph-name="lacute" unicode="&#x13a;" horiz-adv-x="227" 
d="M209 -3q-2 -1 -10 -1q-3 -1 -11 -1h-9q-70 0 -96 35t-26 101v549l102 13v-560q0 -41 11 -52t39 -11v-73zM287 911l-132 -159h-98l115 159h115z" />
    <glyph glyph-name="uni013B" unicode="&#x13b;" horiz-adv-x="468" 
d="M465 83v-83h-394v659h104v-576h290zM147 -245q33 44 44 87.5t11 102.5h94q0 -73 -21 -130.5t-67 -108.5z" />
    <glyph glyph-name="uni013C" unicode="&#x13c;" horiz-adv-x="227" 
d="M208 -3q-2 -1 -10 -1q-3 -1 -11 -1h-9q-70 0 -96 35t-26 101v549l102 13v-560q0 -41 11 -52t39 -11v-73zM24 -245q33 44 44 87.5t11 102.5h94q0 -73 -21 -130.5t-67 -108.5z" />
    <glyph glyph-name="Lcaron" unicode="&#x13d;" horiz-adv-x="466" 
d="M307 522h-78l28 168h109zM463 83v-83h-394v659h104v-576h290z" />
    <glyph glyph-name="lcaron" unicode="&#x13e;" horiz-adv-x="347" 
d="M286 522h-70l28 168h100zM209 -3q-2 -1 -10 -1q-3 -1 -11 -1h-9q-70 0 -96 35t-26 101v549l102 13v-560q0 -41 11 -52t39 -11v-73z" />
    <glyph glyph-name="Ldot" unicode="&#x13f;" horiz-adv-x="468" 
d="M465 83v-83h-394v659h104v-576h290zM393 271h-101v92h101v-92z" />
    <glyph glyph-name="ldot" unicode="&#x140;" horiz-adv-x="330" 
d="M209 -3q-2 -1 -10 -1q-3 -1 -11 -1h-9q-70 0 -96 35t-26 101v549l102 13v-560q0 -41 11 -52t39 -11v-73zM313 202h-101v92h101v-92z" />
    <glyph glyph-name="Lslash" unicode="&#x141;" horiz-adv-x="464" 
d="M68 245l-68 -42v85l68 42v329h104v-265l139 85v-86l-139 -85v-225h290v-83h-394v245z" />
    <glyph glyph-name="lslash" unicode="&#x142;" horiz-adv-x="257" 
d="M67 249l-69 -49v86l69 49v345l102 13v-285l92 65v-85l-92 -66v-189q0 -41 11 -52t39 -11v-73q-2 -1 -10 -1q-3 -1 -11 -1h-9q-70 0 -96 35t-26 101v118z" />
    <glyph glyph-name="Nacute" unicode="&#x143;" horiz-adv-x="701" 
d="M628 659v-659h-181l-263 576h-9v-576h-104v659h182l263 -577h8v577h104zM525 885l-132 -159h-98l115 159h115z" />
    <glyph glyph-name="nacute" unicode="&#x144;" horiz-adv-x="508" 
d="M145 458l3 -36q27 19 57 29q52 18 99 18q45 0 74.5 -11.5t46 -33t23 -52.5t6.5 -71v-301h-102v279q0 24 -2.5 44t-11 34.5t-24 22.5t-40.5 8q-29 0 -53 -8t-43 -20l-18 -12v-348h-102v336l-8 122h95zM398 685l-132 -159h-98l115 159h115z" />
    <glyph glyph-name="uni0145" unicode="&#x145;" horiz-adv-x="701" 
d="M628 659v-659h-181l-263 576h-9v-576h-104v659h182l263 -577h8v577h104zM243 -244q33 44 44 87.5t11 102.5h94q0 -73 -21 -130.5t-67 -108.5z" />
    <glyph glyph-name="uni0146" unicode="&#x146;" horiz-adv-x="508" 
d="M145 458l3 -36q27 19 57 29q52 18 99 18q45 0 74.5 -11.5t46 -33t23 -52.5t6.5 -71v-301h-102v279q0 24 -2.5 44t-11 34.5t-24 22.5t-40.5 8q-29 0 -53 -8t-43 -20l-18 -12v-348h-102v336l-8 122h95zM156 -244q33 44 44 87.5t11 102.5h94q0 -73 -21 -130.5t-67 -108.5z
" />
    <glyph glyph-name="Ncaron" unicode="&#x147;" horiz-adv-x="701" 
d="M628 659v-659h-181l-263 576h-9v-576h-104v659h182l263 -577h8v577h104zM282 726l-104 159h92l74 -105h10l77 105h89l-107 -159h-131z" />
    <glyph glyph-name="ncaron" unicode="&#x148;" horiz-adv-x="508" 
d="M145 458l3 -36q27 19 57 29q52 18 99 18q45 0 74.5 -11.5t46 -33t23 -52.5t6.5 -71v-301h-102v279q0 24 -2.5 44t-11 34.5t-24 22.5t-40.5 8q-29 0 -53 -8t-43 -20l-18 -12v-348h-102v336l-8 122h95zM188 526l-104 159h92l74 -105h10l77 105h89l-107 -159h-131z" />
    <glyph glyph-name="Eng" unicode="&#x14a;" horiz-adv-x="701" 
d="M628 -28q0 -52 -8.5 -88.5t-30 -60t-57.5 -34t-91 -10.5h-9v76h9q45 0 64 20.5t19 77.5v47h-77l-263 576h-9v-576h-104v659h182l263 -577h8v577h104v-687z" />
    <glyph glyph-name="eng" unicode="&#x14b;" horiz-adv-x="508" 
d="M145 458l3 -36q24 17 57 28q52 18 99 18q45 0 74.5 -11t46 -32.5t23 -52.5t6.5 -71v-329q0 -52 -8 -88.5t-28 -60t-54 -34t-85 -10.5h-8v76h8q23 0 37 4.5t22 15.5t11 30t3 48v326q0 23 -2.5 43t-11 34.5t-24 22.5t-40.5 8q-29 0 -53 -7.5t-43 -19.5l-18 -12v-348h-102
v336l-8 122h95z" />
    <glyph glyph-name="Omacron" unicode="&#x14c;" horiz-adv-x="665" 
d="M44 333q0 172 72.5 254t226.5 82q77 0 130 -23.5t86 -68t47.5 -108t14.5 -143.5q0 -171 -73 -254t-228 -83q-78 0 -130.5 24t-85 68.5t-46.5 108t-14 143.5zM512 339q0 51 -7.5 96.5t-26.5 79.5t-51.5 53.5t-82.5 19.5q-54 0 -91 -17t-59.5 -51t-32.5 -83.5t-10 -114.5
q0 -52 7.5 -97.5t26.5 -79t51 -53t81 -19.5q57 0 94.5 17t60 50.5t31.5 83.5t9 115zM480 768h-300v79h300v-79z" />
    <glyph glyph-name="omacron" unicode="&#x14d;" horiz-adv-x="517" 
d="M247 -11q-61 0 -101.5 16.5t-65 48t-34.5 76t-10 101.5q0 121 55 179.5t178 58.5q60 0 101 -16.5t65.5 -48t35 -76.5t10.5 -102q0 -121 -56.5 -179t-177.5 -58zM247 62q75 0 102 43.5t27 129.5q0 33 -4.5 62.5t-16.5 52t-33 35.5t-53 13q-74 0 -101 -45t-27 -130
q0 -33 4 -62.5t16 -51.5t32.5 -34.5t53.5 -12.5zM415 568h-300v79h300v-79z" />
    <glyph glyph-name="Obreve" unicode="&#x14e;" horiz-adv-x="665" 
d="M44 333q0 172 72.5 254t226.5 82q77 0 130 -23.5t86 -68t47.5 -108t14.5 -143.5q0 -171 -73 -254t-228 -83q-78 0 -130.5 24t-85 68.5t-46.5 108t-14 143.5zM512 339q0 51 -7.5 96.5t-26.5 79.5t-51.5 53.5t-82.5 19.5q-54 0 -91 -17t-59.5 -51t-32.5 -83.5t-10 -114.5
q0 -52 7.5 -97.5t26.5 -79t51 -53t81 -19.5q57 0 94.5 17t60 50.5t31.5 83.5t9 115zM488 884q0 -81 -37 -122.5t-122 -41.5t-121.5 41t-36.5 123h79q3 -43 19.5 -69t59.5 -26q44 0 60.5 26t19.5 69h79z" />
    <glyph glyph-name="obreve" unicode="&#x14f;" horiz-adv-x="517" 
d="M247 -11q-61 0 -101.5 16.5t-65 48t-34.5 76t-10 101.5q0 121 55 179.5t178 58.5q60 0 101 -16.5t65.5 -48t35 -76.5t10.5 -102q0 -121 -56.5 -179t-177.5 -58zM247 62q75 0 102 43.5t27 129.5q0 33 -4.5 62.5t-16.5 52t-33 35.5t-53 13q-74 0 -101 -45t-27 -130
q0 -33 4 -62.5t16 -51.5t32.5 -34.5t53.5 -12.5zM424 685q0 -81 -37 -122.5t-122 -41.5t-121.5 41t-36.5 123h79q3 -43 19.5 -69t59.5 -26q44 0 60.5 26t19.5 69h79z" />
    <glyph glyph-name="Ohungarumlaut" unicode="&#x150;" horiz-adv-x="665" 
d="M44 333q0 172 72.5 254t226.5 82q77 0 130 -23.5t86 -68t47.5 -108t14.5 -143.5q0 -171 -73 -254t-228 -83q-78 0 -130.5 24t-85 68.5t-46.5 108t-14 143.5zM512 339q0 51 -7.5 96.5t-26.5 79.5t-51.5 53.5t-82.5 19.5q-54 0 -91 -17t-59.5 -51t-32.5 -83.5t-10 -114.5
q0 -52 7.5 -97.5t26.5 -79t51 -53t81 -19.5q57 0 94.5 17t60 50.5t31.5 83.5t9 115zM392 886l-132 -159h-89l114 159h107zM583 886l-133 -159h-89l114 159h108z" />
    <glyph glyph-name="ohungarumlaut" unicode="&#x151;" horiz-adv-x="517" 
d="M247 -11q-61 0 -101.5 16.5t-65 48t-34.5 76t-10 101.5q0 121 55 179.5t178 58.5q60 0 101 -16.5t65.5 -48t35 -76.5t10.5 -102q0 -121 -56.5 -179t-177.5 -58zM247 62q75 0 102 43.5t27 129.5q0 33 -4.5 62.5t-16.5 52t-33 35.5t-53 13q-74 0 -101 -45t-27 -130
q0 -33 4 -62.5t16 -51.5t32.5 -34.5t53.5 -12.5zM323 685l-132 -159h-89l114 159h107zM514 685l-133 -159h-89l114 159h108z" />
    <glyph glyph-name="OE" unicode="&#x152;" horiz-adv-x="1002" 
d="M492 339q0 51 -6 96.5t-23 79.5t-48 53.5t-81 19.5q-54 0 -89.5 -17t-56.5 -51t-29 -83.5t-8 -114.5q0 -52 6 -97.5t23 -79t47.5 -53t79.5 -19.5q57 0 93 17t56.5 50.5t28 83.5t7.5 115zM521 77l-1 -1q-31 -43 -82 -65t-128 -22q-78 0 -129 24t-81.5 68.5t-43 108
t-12.5 143.5q0 171 68 253.5t221 82.5q77 0 125 -25q38 -20 63 -54v69h418v-84h-314v-195h304v-82h-304v-215h325v-83h-429v77z" />
    <glyph glyph-name="oe" unicode="&#x153;" horiz-adv-x="824" 
d="M597 -11q-118 0 -166 60q-3 3 -7 11l-6 -7q-52 -64 -171 -64q-61 0 -101.5 16.5t-65 48t-34.5 76t-10 101.5q0 121 55 179.5t178 58.5q99 0 150 -57l9 -12l7 9q51 60 160 60q59 0 97 -17t59.5 -47t29.5 -71t8 -89v-41h-307q0 -69 25 -100q30 -39 106 -39q52 0 86 12.5
t60 24.5l22 -66q-12 -8 -32.5 -16.5t-45.5 -15t-52 -11t-54 -4.5zM247 62q75 0 102 43.5t27 129.5q0 33 -4.5 62.5t-16.5 52t-33 35.5t-53 13q-74 0 -101 -45t-27 -130q0 -33 4 -62.5t16 -51.5t32.5 -34.5t53.5 -12.5zM682 275q0 66 -21.5 95t-66.5 29q-69 0 -91 -42
q-18 -29 -20 -82h199z" />
    <glyph glyph-name="Racute" unicode="&#x154;" horiz-adv-x="583" 
d="M71 0v659h242q112 0 170 -44t58 -146q0 -86 -47 -133q-34 -34 -78 -50l143 -286h-114l-132 270h-138v-270h-104zM312 352q52 0 86 26t34 91q0 57 -34 81.5t-86 24.5h-137v-223h137zM444 885l-132 -159h-98l115 159h115z" />
    <glyph glyph-name="racute" unicode="&#x155;" horiz-adv-x="359" 
d="M142 458l6 -55q23 27 50 41q46 25 93 25q22 0 40 -4t30 -9l-26 -83q-21 12 -56 12q-40 0 -74 -22q-21 -13 -43 -36v-327h-102v330l-13 128h95zM349 685l-132 -159h-98l115 159h115z" />
    <glyph glyph-name="uni0156" unicode="&#x156;" horiz-adv-x="583" 
d="M71 0v659h242q112 0 170 -44t58 -146q0 -86 -47 -133q-34 -34 -78 -50l143 -286h-114l-132 270h-138v-270h-104zM312 352q52 0 86 26t34 91q0 57 -34 81.5t-86 24.5h-137v-223h137zM195 -245q33 44 44 87.5t11 102.5h94q0 -73 -21 -130.5t-67 -108.5z" />
    <glyph glyph-name="uni0157" unicode="&#x157;" horiz-adv-x="359" 
d="M141 458l6 -55q23 27 50 41q46 25 93 25q22 0 40 -4t30 -9l-26 -83q-21 12 -56 12q-40 0 -74 -22q-21 -13 -43 -36v-327h-102v330l-13 128h95zM9 -245q33 44 44 87.5t11 102.5h94q0 -73 -21 -130.5t-67 -108.5z" />
    <glyph glyph-name="Rcaron" unicode="&#x158;" horiz-adv-x="583" 
d="M71 0v659h242q112 0 170 -44t58 -146q0 -86 -47 -133q-34 -34 -78 -50l143 -286h-114l-132 270h-138v-270h-104zM312 352q52 0 86 26t34 91q0 57 -34 81.5t-86 24.5h-137v-223h137zM214 726l-104 159h92l74 -105h10l77 105h89l-107 -159h-131z" />
    <glyph glyph-name="rcaron" unicode="&#x159;" horiz-adv-x="359" 
d="M142 458l6 -55q23 27 50 41q46 25 93 25q22 0 40 -4t30 -9l-26 -83q-21 12 -56 12q-40 0 -74 -22q-21 -13 -43 -36v-327h-102v330l-13 128h95zM120 526l-104 159h92l74 -105h10l77 105h89l-107 -159h-131z" />
    <glyph glyph-name="Sacute" unicode="&#x15a;" horiz-adv-x="536" 
d="M340 248q-20 10 -43 19t-47.5 18t-49 18.5t-45.5 20.5q-27 13 -48 27.5t-35 34t-21.5 44.5t-7.5 60q0 43 17.5 76.5t49.5 56.5t76.5 34.5t99.5 11.5q54 0 106.5 -10.5t97.5 -34.5l-36 -78q-30 15 -73.5 27.5t-94.5 12.5q-69 0 -103.5 -23.5t-34.5 -65.5q0 -32 18 -52.5
t46 -33.5q36 -18 85.5 -35t93.5 -39q23 -12 43 -25.5t34.5 -32.5t23 -45t8.5 -62q0 -44 -17.5 -78t-49.5 -57t-77.5 -35.5t-100.5 -12.5q-57 0 -114 12.5t-105 37.5l39 79q45 -22 87 -32.5t90 -10.5q76 0 110 25.5t34 65.5q0 30 -16.5 50t-39.5 32zM446 885l-132 -159h-98
l115 159h115z" />
    <glyph glyph-name="sacute" unicode="&#x15b;" horiz-adv-x="433" 
d="M193 289q8 -4 22 -9l28 -10l57 -19q43 -12 72.5 -40.5t29.5 -81.5q0 -72 -51.5 -106t-145.5 -34q-52 0 -95.5 8.5t-78.5 24.5l32 74q56 -31 142 -31q42 0 69.5 11t27.5 43q0 36 -58 58q-27 8 -56 17.5t-53 18.5q-41 14 -69 41t-28 79q0 36 15 61.5t41 42t61 24.5t75 8
q55 0 95.5 -8.5t72.5 -21.5l-32 -74q-56 29 -136 29q-49 0 -72 -14t-23 -37q0 -18 13.5 -30t44.5 -24zM389 685l-132 -159h-98l115 159h115z" />
    <glyph glyph-name="Scircumflex" unicode="&#x15c;" horiz-adv-x="536" 
d="M340 248q-20 10 -43 19t-47.5 18t-49 18.5t-45.5 20.5q-27 13 -48 27.5t-35 34t-21.5 44.5t-7.5 60q0 43 17.5 76.5t49.5 56.5t76.5 34.5t99.5 11.5q54 0 106.5 -10.5t97.5 -34.5l-36 -78q-30 15 -73.5 27.5t-94.5 12.5q-69 0 -103.5 -23.5t-34.5 -65.5q0 -32 18 -52.5
t46 -33.5q36 -18 85.5 -35t93.5 -39q23 -12 43 -25.5t34.5 -32.5t23 -45t8.5 -62q0 -44 -17.5 -78t-49.5 -57t-77.5 -35.5t-100.5 -12.5q-57 0 -114 12.5t-105 37.5l39 79q45 -22 87 -32.5t90 -10.5q76 0 110 25.5t34 65.5q0 30 -16.5 50t-39.5 32zM345 885l104 -159h-93
l-73 106h-10l-77 -106h-89l106 159h132z" />
    <glyph glyph-name="scircumflex" unicode="&#x15d;" horiz-adv-x="433" 
d="M193 289q8 -4 22 -9l28 -10l57 -19q43 -12 72.5 -40.5t29.5 -81.5q0 -72 -51.5 -106t-145.5 -34q-52 0 -95.5 8.5t-78.5 24.5l32 74q56 -31 142 -31q42 0 69.5 11t27.5 43q0 36 -58 58q-27 8 -56 17.5t-53 18.5q-41 14 -69 41t-28 79q0 36 15 61.5t41 42t61 24.5t75 8
q55 0 95.5 -8.5t72.5 -21.5l-32 -74q-56 29 -136 29q-49 0 -72 -14t-23 -37q0 -18 13.5 -30t44.5 -24zM296 685l104 -159h-93l-73 106h-10l-77 -106h-89l106 159h132z" />
    <glyph glyph-name="Scedilla" unicode="&#x15e;" horiz-adv-x="536" 
d="M340 248q-20 10 -43 19t-47.5 18t-49 18.5t-45.5 20.5q-27 13 -48 27.5t-35 34t-21.5 44.5t-7.5 60q0 43 17.5 76.5t49.5 56.5t76.5 34.5t99.5 11.5q54 0 106.5 -10.5t97.5 -34.5l-36 -78q-30 15 -73.5 27.5t-94.5 12.5q-69 0 -103.5 -23.5t-34.5 -65.5q0 -32 18 -52.5
t46 -33.5q36 -18 85.5 -35t93.5 -39q23 -12 43 -25.5t34.5 -32.5t23 -45t8.5 -62q0 -44 -17.5 -78t-49.5 -57t-77.5 -35.5t-100.5 -12.5q-57 0 -114 12.5t-105 37.5l39 79q45 -22 87 -32.5t90 -10.5q76 0 110 25.5t34 65.5q0 30 -16.5 50t-39.5 32zM163 -149q17 -6 33 -9
t34 -3q29 0 44 8.5t15 30.5q0 27 -20.5 36t-76.5 15l21 54q88 -5 129.5 -27t41.5 -77q0 -57 -34 -81t-109 -24q-29 0 -56 5t-46 13z" />
    <glyph glyph-name="scedilla" unicode="&#x15f;" horiz-adv-x="433" 
d="M193 289q8 -4 22 -9l28 -10l57 -19q43 -12 72.5 -40.5t29.5 -81.5q0 -72 -51.5 -106t-145.5 -34q-52 0 -95.5 8.5t-78.5 24.5l32 74q56 -31 142 -31q42 0 69.5 11t27.5 43q0 36 -58 58q-27 8 -56 17.5t-53 18.5q-41 14 -69 41t-28 79q0 36 15 61.5t41 42t61 24.5t75 8
q55 0 95.5 -8.5t72.5 -21.5l-32 -74q-56 29 -136 29q-49 0 -72 -14t-23 -37q0 -18 13.5 -30t44.5 -24zM117 -149q17 -6 33 -9t34 -3q29 0 44 8.5t15 30.5q0 27 -20.5 36t-76.5 15l21 54q88 -5 129.5 -27t41.5 -77q0 -57 -34 -81t-109 -24q-29 0 -56 5t-46 13z" />
    <glyph glyph-name="Scaron" unicode="&#x160;" horiz-adv-x="536" 
d="M340 248q-20 10 -43 19t-47.5 18t-49 18.5t-45.5 20.5q-27 13 -48 27.5t-35 34t-21.5 44.5t-7.5 60q0 43 17.5 76.5t49.5 56.5t76.5 34.5t99.5 11.5q54 0 106.5 -10.5t97.5 -34.5l-36 -78q-30 15 -73.5 27.5t-94.5 12.5q-69 0 -103.5 -23.5t-34.5 -65.5q0 -32 18 -52.5
t46 -33.5q36 -18 85.5 -35t93.5 -39q23 -12 43 -25.5t34.5 -32.5t23 -45t8.5 -62q0 -44 -17.5 -78t-49.5 -57t-77.5 -35.5t-100.5 -12.5q-57 0 -114 12.5t-105 37.5l39 79q45 -22 87 -32.5t90 -10.5q76 0 110 25.5t34 65.5q0 30 -16.5 50t-39.5 32zM207 726l-104 159h92
l74 -105h10l77 105h89l-107 -159h-131z" />
    <glyph glyph-name="scaron" unicode="&#x161;" horiz-adv-x="433" 
d="M193 289q8 -4 22 -9l28 -10l57 -19q43 -12 72.5 -40.5t29.5 -81.5q0 -72 -51.5 -106t-145.5 -34q-52 0 -95.5 8.5t-78.5 24.5l32 74q56 -31 142 -31q42 0 69.5 11t27.5 43q0 36 -58 58q-27 8 -56 17.5t-53 18.5q-41 14 -69 41t-28 79q0 36 15 61.5t41 42t61 24.5t75 8
q55 0 95.5 -8.5t72.5 -21.5l-32 -74q-56 29 -136 29q-49 0 -72 -14t-23 -37q0 -18 13.5 -30t44.5 -24zM156 526l-104 159h92l74 -105h10l77 105h89l-107 -159h-131z" />
    <glyph glyph-name="uni0162" unicode="&#x162;" horiz-adv-x="512" 
d="M509 659v-84h-201v-575h-104v575h-201v84h506zM148 -149q17 -6 33 -9t34 -3q29 0 44 8.5t15 30.5q0 27 -20.5 36t-76.5 15l21 54q88 -5 129.5 -27t41.5 -77q0 -57 -34 -81t-109 -24q-29 0 -56 5t-46 13z" />
    <glyph glyph-name="uni0163" unicode="&#x163;" horiz-adv-x="385" 
d="M192 380v-206q0 -23 2 -42.5t9.5 -33.5t22 -21.5t40.5 -7.5q24 0 46.5 5.5t41.5 14.5l18 -70q-65 -30 -138 -30q-45 0 -73 11.5t-43.5 32.5t-21.5 50t-6 64v233h-78v68l77 9v92l103 18v-109h164v-78h-164zM114 -149q17 -6 33 -9t34 -3q29 0 44 8.5t15 30.5q0 27 -20.5 36
t-76.5 15l21 54q88 -5 129.5 -27t41.5 -77q0 -57 -34 -81t-109 -24q-29 0 -56 5t-46 13z" />
    <glyph glyph-name="Tcaron" unicode="&#x164;" horiz-adv-x="523" 
d="M514 659v-84h-201v-575h-104v575h-201v84h506zM197 726l-104 159h92l74 -105h10l77 105h89l-107 -159h-131z" />
    <glyph glyph-name="tcaron" unicode="&#x165;" horiz-adv-x="385" 
d="M325 522h-70l27 168h103zM192 380v-206q0 -23 2 -42.5t9.5 -33.5t22 -21.5t40.5 -7.5q24 0 46.5 5.5t41.5 14.5l18 -70q-65 -30 -138 -30q-45 0 -73 11.5t-43.5 32.5t-21.5 50t-6 64v233h-78v68l77 9v92l103 18v-109h164v-78h-164z" />
    <glyph glyph-name="Tbar" unicode="&#x166;" horiz-adv-x="512" 
d="M204 298h-167v82h167v195h-201v84h506v-84h-201v-195h166v-82h-166v-298h-104v298z" />
    <glyph glyph-name="tbar" unicode="&#x167;" horiz-adv-x="385" 
d="M90 208h-77v75h77v97h-78v68l77 9v92l103 18v-109h164v-78h-164v-97h159v-75h-159v-34q0 -23 2 -42.5t9.5 -33.5t22 -21.5t40.5 -7.5q24 0 46.5 5.5t41.5 14.5l18 -70q-65 -30 -138 -30q-45 0 -73 11.5t-43.5 32.5t-21.5 50t-6 64v61z" />
    <glyph glyph-name="Utilde" unicode="&#x168;" horiz-adv-x="634" 
d="M570 659v-406q0 -140 -67.5 -202t-193.5 -62t-185.5 63.5t-59.5 207.5v399h104v-414q0 -83 31.5 -128.5t108.5 -45.5q43 0 73 10.5t49 33t27.5 59t8.5 87.5v398h104zM141 814q19 20 48.5 34t63.5 14q20 0 36.5 -5t31 -11.5t29 -11.5t30.5 -5q24 0 43.5 9.5t38.5 21.5
l30 -61q-22 -21 -50.5 -35t-62.5 -14q-21 0 -37 5t-31 11.5t-29.5 11.5t-30.5 5q-23 0 -42.5 -9t-37.5 -20z" />
    <glyph glyph-name="utilde" unicode="&#x169;" horiz-adv-x="505" 
d="M446 122l9 -122h-95l-5 36q-13 -9 -27 -16t-28 -12q-50 -19 -99 -19q-45 0 -73.5 11.5t-45 33t-23 52.5t-6.5 71v301h103v-280q0 -23 2.5 -43t10.5 -34.5t23 -23t41 -8.5q28 0 51.5 7.5t42.5 19.5q8 6 17 12v350h102v-336zM79 614q19 20 48.5 34t63.5 14q20 0 36.5 -5
t31 -11.5t29 -11.5t30.5 -5q24 0 43.5 9.5t38.5 21.5l30 -61q-22 -21 -50.5 -35t-62.5 -14q-21 0 -37 5t-31 11.5t-29.5 11.5t-30.5 5q-23 0 -42.5 -9t-37.5 -20z" />
    <glyph glyph-name="Umacron" unicode="&#x16a;" horiz-adv-x="634" 
d="M570 659v-406q0 -140 -67.5 -202t-193.5 -62t-185.5 63.5t-59.5 207.5v399h104v-414q0 -83 31.5 -128.5t108.5 -45.5q43 0 73 10.5t49 33t27.5 59t8.5 87.5v398h104zM466 768h-300v79h300v-79z" />
    <glyph glyph-name="umacron" unicode="&#x16b;" horiz-adv-x="505" 
d="M446 122l9 -122h-95l-5 36q-13 -9 -27 -16t-28 -12q-50 -19 -99 -19q-45 0 -73.5 11.5t-45 33t-23 52.5t-6.5 71v301h103v-280q0 -23 2.5 -43t10.5 -34.5t23 -23t41 -8.5q28 0 51.5 7.5t42.5 19.5q8 6 17 12v350h102v-336zM402 568h-300v79h300v-79z" />
    <glyph glyph-name="Ubreve" unicode="&#x16c;" horiz-adv-x="634" 
d="M570 659v-406q0 -140 -67.5 -202t-193.5 -62t-185.5 63.5t-59.5 207.5v399h104v-414q0 -83 31.5 -128.5t108.5 -45.5q43 0 73 10.5t49 33t27.5 59t8.5 87.5v398h104zM474 884q0 -81 -37 -122.5t-122 -41.5t-121.5 41t-36.5 123h79q3 -43 19.5 -69t59.5 -26q44 0 60.5 26
t19.5 69h79z" />
    <glyph glyph-name="ubreve" unicode="&#x16d;" horiz-adv-x="505" 
d="M446 122l9 -122h-95l-5 36q-13 -9 -27 -16t-28 -12q-50 -19 -99 -19q-45 0 -73.5 11.5t-45 33t-23 52.5t-6.5 71v301h103v-280q0 -23 2.5 -43t10.5 -34.5t23 -23t41 -8.5q28 0 51.5 7.5t42.5 19.5q8 6 17 12v350h102v-336zM408 685q0 -81 -37 -122.5t-122 -41.5
t-121.5 41t-36.5 123h79q3 -43 19.5 -69t59.5 -26q44 0 60.5 26t19.5 69h79z" />
    <glyph glyph-name="Uring" unicode="&#x16e;" horiz-adv-x="634" 
d="M570 659v-406q0 -140 -67.5 -202t-193.5 -62t-185.5 63.5t-59.5 207.5v399h104v-414q0 -83 31.5 -128.5t108.5 -45.5q43 0 73 10.5t49 33t27.5 59t8.5 87.5v398h104zM312 709q-58 0 -81.5 28.5t-23.5 73.5q0 49 29 75.5t86 26.5q58 0 82 -29t24 -74q0 -49 -29 -75
t-87 -26zM315 767q46 0 46 44q0 43 -41 43q-48 0 -48 -44q0 -21 10 -32t33 -11z" />
    <glyph glyph-name="uring" unicode="&#x16f;" horiz-adv-x="505" 
d="M446 122l9 -122h-95l-5 36q-13 -9 -27 -16t-28 -12q-50 -19 -99 -19q-45 0 -73.5 11.5t-45 33t-23 52.5t-6.5 71v301h103v-280q0 -23 2.5 -43t10.5 -34.5t23 -23t41 -8.5q28 0 51.5 7.5t42.5 19.5q8 6 17 12v350h102v-336zM246 510q-58 0 -81.5 28.5t-23.5 73.5
q0 49 29 75.5t86 26.5q58 0 82 -29t24 -74q0 -49 -29 -75t-87 -26zM249 568q46 0 46 44q0 43 -41 43q-48 0 -48 -44q0 -21 10 -32t33 -11z" />
    <glyph glyph-name="Uhungarumlaut" unicode="&#x170;" horiz-adv-x="634" 
d="M570 659v-406q0 -140 -67.5 -202t-193.5 -62t-185.5 63.5t-59.5 207.5v399h104v-414q0 -83 31.5 -128.5t108.5 -45.5q43 0 73 10.5t49 33t27.5 59t8.5 87.5v398h104zM369 886l-132 -159h-89l114 159h107zM560 886l-133 -159h-89l114 159h108z" />
    <glyph glyph-name="uhungarumlaut" unicode="&#x171;" horiz-adv-x="505" 
d="M446 122l9 -122h-95l-5 36q-13 -9 -27 -16t-28 -12q-50 -19 -99 -19q-45 0 -73.5 11.5t-45 33t-23 52.5t-6.5 71v301h103v-280q0 -23 2.5 -43t10.5 -34.5t23 -23t41 -8.5q28 0 51.5 7.5t42.5 19.5q8 6 17 12v350h102v-336zM316 685l-132 -159h-89l114 159h107zM507 685
l-133 -159h-89l114 159h108z" />
    <glyph glyph-name="Uogonek" unicode="&#x172;" horiz-adv-x="634" 
d="M431 8q-10 -6 -26 -13q-22 -10 -39 -23q-22 -19 -30 -36t-8 -39q0 -23 12 -38t38 -15q27 0 51 8l18 -58q-18 -8 -44 -13t-53 -5q-63 0 -90.5 25t-27.5 73q0 42 21 70q17 22 54 45q-124 0 -183 64q-60 63 -60 207v399h104v-414q0 -83 31.5 -128.5t108.5 -45.5
q43 0 73 10.5t49 33t27.5 59t8.5 87.5v398h104v-406q0 -140 -67 -202q-30 -27 -72 -43z" />
    <glyph glyph-name="uogonek" unicode="&#x173;" horiz-adv-x="505" 
d="M360 2l-5 34q-13 -9 -27 -16t-28 -12q-50 -19 -99 -19q-45 0 -73.5 11.5t-45 33t-23 52.5t-6.5 71v301h103v-280q0 -23 2.5 -43t10.5 -34.5t23 -23t41 -8.5q28 0 51.5 7.5t42.5 19.5q8 6 17 12v350h102v-336l9 -122h-1q-17 -10 -32.5 -19t-28.5 -19q-25 -18 -33 -34.5
t-8 -37.5q0 -46 50 -46q27 0 51 8l18 -58q-18 -8 -44.5 -13t-53.5 -5q-63 0 -90.5 23t-27.5 74q0 37 19 64.5t71 57.5q7 4 15 7z" />
    <glyph glyph-name="Wcircumflex" unicode="&#x174;" horiz-adv-x="923" 
d="M919 659l-172 -659h-153l-127 576h-9l-121 -576h-155l-178 659h114l139 -577h8l121 577h158l124 -577h9l133 577h109zM530 885l104 -159h-93l-73 106h-10l-77 -106h-89l106 159h132z" />
    <glyph glyph-name="wcircumflex" unicode="&#x175;" horiz-adv-x="711" 
d="M428 458l74 -385h8l90 385h102l-126 -458h-143l-73 386h-10l-75 -386h-146l-120 458h106l86 -385h9l75 385h143zM422 685l104 -159h-93l-73 106h-10l-77 -106h-89l106 159h132z" />
    <glyph glyph-name="Ycircumflex" unicode="&#x176;" horiz-adv-x="575" 
d="M339 282v-282h-104v281q-12 19 -31.5 49t-41.5 66t-46 74.5t-46 74.5t-40.5 65.5t-30.5 48.5h122l163 -281h8l163 281h120zM355 885l104 -159h-93l-73 106h-10l-77 -106h-89l106 159h132z" />
    <glyph glyph-name="ycircumflex" unicode="&#x177;" horiz-adv-x="454" 
d="M3 458h113l114 -338h9l108 338h104l-178 -490q-16 -44 -32.5 -79.5t-40 -61t-56.5 -39.5t-82 -14q-14 0 -29 0.5t-28 5.5l13 72q15 -4 36 -4q35 0 54.5 11.5t30.5 26.5q12 18 24 50t23 61zM301 685l104 -159h-93l-73 106h-10l-77 -106h-89l106 159h132z" />
    <glyph glyph-name="Ydieresis" unicode="&#x178;" horiz-adv-x="575" 
d="M339 282v-282h-104v281q-12 19 -31.5 49t-41.5 66t-46 74.5t-46 74.5t-40.5 65.5t-30.5 48.5h122l163 -281h8l163 281h120zM244 750h-101v92h101v-92zM433 750h-101v92h101v-92z" />
    <glyph glyph-name="Zacute" unicode="&#x179;" horiz-adv-x="550" 
d="M520 591l-367 -508h366v-83h-494v67l367 509h-343v83h471v-68zM455 885l-132 -159h-98l115 159h115z" />
    <glyph glyph-name="zacute" unicode="&#x17a;" horiz-adv-x="446" 
d="M420 396l-273 -318h275v-78h-397v62l272 318h-261v78h384v-62zM394 685l-132 -159h-98l115 159h115z" />
    <glyph glyph-name="Zdotaccent" unicode="&#x17b;" horiz-adv-x="550" 
d="M520 591l-367 -508h366v-83h-494v67l367 509h-343v83h471v-68zM341 751h-104v92h104v-92z" />
    <glyph glyph-name="zdotaccent" unicode="&#x17c;" horiz-adv-x="446" 
d="M420 396l-273 -318h275v-78h-397v62l272 318h-261v78h384v-62zM287 560h-104v92h104v-92z" />
    <glyph glyph-name="Zcaron" unicode="&#x17d;" horiz-adv-x="550" 
d="M520 591l-367 -508h366v-83h-494v67l367 509h-343v83h471v-68zM227 726l-104 159h92l74 -105h10l77 105h89l-107 -159h-131z" />
    <glyph glyph-name="zcaron" unicode="&#x17e;" horiz-adv-x="446" 
d="M420 396l-273 -318h275v-78h-397v62l272 318h-261v78h384v-62zM168 526l-104 159h92l74 -105h10l77 105h89l-107 -159h-131z" />
    <glyph glyph-name="florin" unicode="&#x192;" horiz-adv-x="419" 
d="M224 -45q0 -51 -12.5 -85.5t-35.5 -55.5t-56 -30t-75 -9q-19 0 -37 2t-37 6l13 76q24 -6 52 -6q45 0 65 22.5t20 79.5v341h-74v74h74v126q0 51 13.5 85.5t37.5 55.5t57.5 30t73.5 9q28 0 56 -4.5t49 -12.5l-22 -74q-18 9 -35 11t-37 2q-52 0 -71 -24t-19 -78v-126h152
v-74h-152v-341z" />
    <glyph glyph-name="Ohorn" unicode="&#x1a0;" horiz-adv-x="666" 
d="M512 339q0 51 -7.5 96.5t-26.5 79.5t-51.5 53.5t-82.5 19.5q-54 0 -91 -17t-59.5 -51t-32.5 -83.5t-10 -114.5q0 -52 7.5 -97.5t26.5 -79t51 -53t81 -19.5q57 0 94.5 17t60 50.5t31.5 83.5t9 115zM583 539q15 -32 24 -69q14 -64 14 -144q0 -171 -73 -254t-228 -83
q-78 0 -130.5 24t-85 68.5t-46.5 108t-14 143.5q0 172 72.5 254t226.5 82q77 0 130 -23.5t86 -67.5q8 -11 15 -23q6 11 13 24q8 17 11 35q3 19 3.5 36.5t0.5 31.5h72q0 -26 -2.5 -45t-9.5 -41q-6 -20 -20 -40.5t-27 -35.5z" />
    <glyph glyph-name="ohorn" unicode="&#x1a1;" horiz-adv-x="522" 
d="M247 62q75 0 102 43.5t27 129.5q0 33 -4.5 62.5t-16.5 52t-33 35.5t-53 13q-74 0 -101 -45t-27 -130q0 -33 4 -62.5t16 -51.5t32.5 -34.5t53.5 -12.5zM472 320q9 -42 9 -94q0 -121 -56.5 -179t-177.5 -58q-61 0 -101.5 16.5t-65 48t-34.5 76t-10 101.5q0 121 55 179.5
t178 58.5q60 0 101 -16.5t66 -47.5q18 -24 28 -54q3 6 7 13q8 17 11 35q3 19 3.5 36.5t0.5 31.5h72q0 -26 -2.5 -45t-9.5 -41q-6 -20 -20 -40.5t-27 -35.5z" />
    <glyph glyph-name="Uhorn" unicode="&#x1af;" horiz-adv-x="635" 
d="M570 540v-287q0 -140 -67.5 -202t-193.5 -62t-185.5 63.5t-59.5 207.5v399h104v-414q0 -83 31.5 -128.5t108.5 -45.5q43 0 73 10.5t49 33t27.5 59t8.5 87.5v398h104v-91q3 5 6 11q8 17 11 35q3 19 3.5 36.5t0.5 31.5h72q0 -26 -2.5 -45t-9.5 -41q-6 -20 -20 -40.5
t-27 -35.5z" />
    <glyph glyph-name="uhorn" unicode="&#x1b0;" horiz-adv-x="505" 
d="M446 328v-206l9 -122h-95l-5 36q-13 -9 -27 -16t-28 -12q-50 -19 -99 -19q-45 0 -73.5 11.5t-45 33t-23 52.5t-6.5 71v301h103v-280q0 -23 2.5 -43t10.5 -34.5t23 -23t41 -8.5q28 0 51.5 7.5t42.5 19.5q8 6 17 12v350h102v-115q6 9 12 21q8 17 11 35q3 19 3.5 36.5
t0.5 31.5h72q0 -26 -2.5 -45t-9.5 -41q-6 -20 -20 -40.5t-27 -35.5z" />
    <glyph glyph-name="Aringacute" unicode="&#x1fa;" horiz-adv-x="633" 
d="M310 576l-102 -310h211l-101 310h-8zM318 680q26 0 26 26q0 27 -26 27q-17 0 -23 -6.5t-6 -20.5q0 -13 6 -19.5t23 -6.5zM392 650l233 -650h-115l-62 182h-268l-62 -182h-112l236 650q-19 23 -19 56q0 84 95 84q47 0 69.5 -22.5t22.5 -61.5q0 -35 -18 -56zM442 945
l-95 -118h-81l90 118h86z" />
    <glyph glyph-name="aringacute" unicode="&#x1fb;" horiz-adv-x="473" 
d="M459 -1q-17 -3 -38 -3q-36 0 -58 12.5t-34 35.5q-25 -22 -64.5 -38.5t-82.5 -16.5q-46 0 -75 11.5t-46 31t-23.5 45.5t-6.5 55q0 44 14.5 72t41 44t63.5 22t81 6q41 0 82 -3v22q0 54 -21 76.5t-79 22.5q-40 0 -76.5 -10t-63.5 -24l-23 65q37 18 86 31t103 13
q50 0 84 -9.5t54.5 -32t29.5 -59t9 -90.5v-153q0 -32 11 -43.5t32 -11.5v-71zM229 205q-52 0 -71.5 -17.5t-19.5 -52.5q0 -36 15.5 -54.5t55.5 -18.5q25 0 53.5 11t50.5 30v97q-22 4 -42.5 4.5t-41.5 0.5zM239 491q-49 0 -72 24t-23 62q0 84 95 84q48 0 70.5 -23t22.5 -61
q0 -41 -24 -63.5t-69 -22.5zM239 550q26 0 26 27q0 26 -26 26q-28 0 -28 -26q0 -27 28 -27zM355 796l-89 -108h-86l79 108h96z" />
    <glyph glyph-name="AEacute" unicode="&#x1fc;" horiz-adv-x="915" 
d="M863 83v-83h-392l-10 182h-255l-107 -182h-111l397 659h469v-84h-310l11 -195h288v-82h-284l12 -215h292zM433 575l-178 -309h203l-16 309h-9zM605 885l-132 -159h-98l115 159h115z" />
    <glyph glyph-name="aeacute" unicode="&#x1fd;" horiz-adv-x="763" 
d="M720 36q-12 -8 -32.5 -16t-45.5 -15t-52.5 -11.5t-54.5 -4.5q-119 0 -168 55q-27 -19 -71 -37t-105 -18q-44 0 -74.5 12t-49.5 31.5t-27.5 45.5t-8.5 54q0 42 15 69.5t41.5 43t64 22t82.5 6.5h83v21q0 54 -22.5 77t-80.5 23q-40 0 -77 -10.5t-63 -23.5l-24 65
q38 18 87 31t103 13q57 0 90.5 -13.5t51.5 -44.5q49 58 153 58q58 0 95.5 -17t59 -47t29.5 -71t8 -89v-41h-309q2 -75 32.5 -107t99.5 -32q52 0 87 12.5t62 24.5zM212 63q34 0 65 12.5t56 30.5q-7 21 -9.5 45t-5.5 53h-88q-52 0 -72 -17.5t-20 -50.5q0 -34 17 -53.5
t57 -19.5zM532 399q-61 0 -86 -32t-27 -95h203q0 69 -22.5 98t-67.5 29zM409 685l-132 -159h-98l115 159h115z" />
    <glyph glyph-name="Oslashacute" unicode="&#x1fe;" horiz-adv-x="665" 
d="M44 331q0 173 72.5 256.5t226.5 83.5q77 0 130 -24q8 -4 16 -8.5t15 -9.5l55 75l64 -42l-64 -86q32 -44 47 -107q15 -65 15 -144q0 -171 -73 -254.5t-228 -83.5q-78 0 -132 24q-9 4 -18 9t-17 10l-54 -72l-63 43l64 86q-29 42 -42 100q-14 67 -14 144zM516 338
q0 26 -2 50t-6 47q-5 32 -13 55l-287 -386q10 -11 24 -18q34 -20 85 -20q57 0 95 18t61 52.5t33 85.5t10 116zM430 572q-32 21 -86 21t-92 -18t-61.5 -52.5t-34 -85t-10.5 -116.5q0 -26 2 -51t6 -48q2 -13 4.5 -25t6.5 -23l285 383zM491 885l-132 -159h-98l115 159h115z" />
    <glyph glyph-name="oslashacute" unicode="&#x1ff;" horiz-adv-x="517" 
d="M247 -12q-72 0 -115 24l-44 -54l-66 55l47 56q-18 31 -25.5 71t-7.5 91q0 121 55 180t178 59q68 0 113 -25l46 54l66 -54l-48 -57q19 -31 27 -71t8 -91q0 -121 -56.5 -179.5t-177.5 -58.5zM247 56q76 0 104.5 45.5t28.5 133.5q0 18 -1.5 36t-6.5 33l-191 -228
q12 -9 28 -14.5t38 -5.5zM269 402q-75 0 -104 -46t-29 -133q0 -39 8 -69l191 227q-26 21 -66 21zM420 685l-132 -159h-98l115 159h115z" />
    <glyph glyph-name="uni0218" unicode="&#x218;" horiz-adv-x="536" 
d="M340 248q-20 10 -43 19t-47.5 18t-49 18.5t-45.5 20.5q-27 13 -48 27.5t-35 34t-21.5 44.5t-7.5 60q0 43 17.5 76.5t49.5 56.5t76.5 34.5t99.5 11.5q54 0 106.5 -10.5t97.5 -34.5l-36 -78q-30 15 -73.5 27.5t-94.5 12.5q-69 0 -103.5 -23.5t-34.5 -65.5q0 -32 18 -52.5
t46 -33.5q36 -18 85.5 -35t93.5 -39q23 -12 43 -25.5t34.5 -32.5t23 -45t8.5 -62q0 -44 -17.5 -78t-49.5 -57t-77.5 -35.5t-100.5 -12.5q-57 0 -114 12.5t-105 37.5l39 79q45 -22 87 -32.5t90 -10.5q76 0 110 25.5t34 65.5q0 30 -16.5 50t-39.5 32zM178 -245q33 44 44 87.5
t11 102.5h94q0 -73 -21 -130.5t-67 -108.5z" />
    <glyph glyph-name="uni0219" unicode="&#x219;" horiz-adv-x="433" 
d="M193 289q8 -4 22 -9l28 -10l57 -19q43 -12 72.5 -40.5t29.5 -81.5q0 -72 -51.5 -106t-145.5 -34q-52 0 -95.5 8.5t-78.5 24.5l32 74q56 -31 142 -31q42 0 69.5 11t27.5 43q0 36 -58 58q-27 8 -56 17.5t-53 18.5q-41 14 -69 41t-28 79q0 36 15 61.5t41 42t61 24.5t75 8
q55 0 95.5 -8.5t72.5 -21.5l-32 -74q-56 29 -136 29q-49 0 -72 -14t-23 -37q0 -18 13.5 -30t44.5 -24zM128 -245q33 44 44 87.5t11 102.5h94q0 -73 -21 -130.5t-67 -108.5z" />
    <glyph glyph-name="uni021A" unicode="&#x21a;" horiz-adv-x="512" 
d="M509 659v-84h-201v-575h-104v575h-201v84h506zM153 -244q33 44 44 87.5t11 102.5h94q0 -73 -21 -130.5t-67 -108.5z" />
    <glyph glyph-name="uni021B" unicode="&#x21b;" horiz-adv-x="385" 
d="M192 380v-206q0 -23 2 -42.5t9.5 -33.5t22 -21.5t40.5 -7.5q24 0 46.5 5.5t41.5 14.5l18 -70q-65 -30 -138 -30q-45 0 -73 11.5t-43.5 32.5t-21.5 50t-6 64v233h-78v68l77 9v92l103 18v-109h164v-78h-164zM116 -245q33 44 44 87.5t11 102.5h94q0 -73 -21 -130.5
t-67 -108.5z" />
    <glyph glyph-name="circumflex" unicode="&#x2c6;" horiz-adv-x="530" 
d="M332 685l104 -159h-93l-73 106h-10l-77 -106h-89l106 159h132z" />
    <glyph glyph-name="caron" unicode="&#x2c7;" horiz-adv-x="530" 
d="M198 526l-104 159h92l74 -105h10l77 105h89l-107 -159h-131z" />
    <glyph glyph-name="breve" unicode="&#x2d8;" horiz-adv-x="533" 
d="M425 685q0 -81 -37 -122.5t-122 -41.5t-121.5 41t-36.5 123h79q3 -43 19.5 -69t59.5 -26q44 0 60.5 26t19.5 69h79z" />
    <glyph glyph-name="dotaccent" unicode="&#x2d9;" horiz-adv-x="530" 
d="M317 560h-104v92h104v-92z" />
    <glyph glyph-name="ring" unicode="&#x2da;" horiz-adv-x="511" 
d="M250 510q-58 0 -81.5 28.5t-23.5 73.5q0 49 29 75.5t86 26.5q58 0 82 -29t24 -74q0 -49 -29 -75t-87 -26zM253 568q46 0 46 44q0 43 -41 43q-48 0 -48 -44q0 -21 10 -32t33 -11z" />
    <glyph glyph-name="ogonek" unicode="&#x2db;" horiz-adv-x="446" 
d="M327 -206q-18 -8 -44.5 -13t-53.5 -5q-63 0 -90.5 23t-27.5 74q0 37 19 64.5t71 57.5q21 11 45.5 20.5t49.5 16.5l14 -32q-17 -10 -32.5 -19t-28.5 -19q-25 -18 -33 -34.5t-8 -37.5q0 -46 50 -46q27 0 51 8z" />
    <glyph glyph-name="tilde" unicode="&#x2dc;" horiz-adv-x="532" 
d="M90 614q19 20 48.5 34t63.5 14q20 0 36.5 -5t31 -11.5t29 -11.5t30.5 -5q24 0 43.5 9.5t38.5 21.5l30 -61q-22 -21 -50.5 -35t-62.5 -14q-21 0 -37 5t-31 11.5t-29.5 11.5t-30.5 5q-23 0 -42.5 -9t-37.5 -20z" />
    <glyph glyph-name="hungarumlaut" unicode="&#x2dd;" horiz-adv-x="512" 
d="M271 685l-132 -159h-89l114 159h107zM462 685l-133 -159h-89l114 159h108z" />
    <glyph glyph-name="Omega" unicode="&#x3a9;" horiz-adv-x="640" 
d="M484 77h94v-77h-210v105q15 0 38.5 13t45 41t37.5 71.5t16 105.5q0 54 -9 100.5t-30 80.5t-56.5 53.5t-89.5 19.5t-89.5 -19.5t-56.5 -53.5t-30 -80.5t-9 -100.5q0 -62 16 -105.5t37.5 -71.5t45 -41t38.5 -13v-105h-210v77h94q-17 13 -32 30q-35 37 -58.5 94t-23.5 135
q0 165 68 249t210 84t210 -84t68 -249q0 -78 -23.5 -135t-57.5 -94q-16 -17 -33 -30z" />
    <glyph glyph-name="pi" unicode="&#x3c0;" horiz-adv-x="630" 
d="M454 364v-252q0 -21 7 -29t30 -8h49v-75h-86q-43 0 -66 28t-23 86v250h-122v-364h-88v364h-105v75h530v-75h-126z" />
    <glyph glyph-name="Wgrave" unicode="&#x1e80;" horiz-adv-x="923" 
d="M919 659l-172 -659h-153l-127 576h-9l-121 -576h-155l-178 659h114l139 -577h8l121 577h158l124 -577h9l133 577h109zM445 885l114 -159h-97l-131 159h114z" />
    <glyph glyph-name="wgrave" unicode="&#x1e81;" horiz-adv-x="711" 
d="M428 458l74 -385h8l90 385h102l-126 -458h-143l-73 386h-10l-75 -386h-146l-120 458h106l86 -385h9l75 385h143zM324 685l114 -159h-97l-131 159h114z" />
    <glyph glyph-name="Wacute" unicode="&#x1e82;" horiz-adv-x="923" 
d="M919 659l-172 -659h-153l-127 576h-9l-121 -576h-155l-178 659h114l139 -577h8l121 577h158l124 -577h9l133 577h109zM601 885l-132 -159h-98l115 159h115z" />
    <glyph glyph-name="wacute" unicode="&#x1e83;" horiz-adv-x="711" 
d="M428 458l74 -385h8l90 385h102l-126 -458h-143l-73 386h-10l-75 -386h-146l-120 458h106l86 -385h9l75 385h143zM505 685l-132 -159h-98l115 159h115z" />
    <glyph glyph-name="Wdieresis" unicode="&#x1e84;" horiz-adv-x="923" 
d="M919 659l-172 -659h-153l-127 576h-9l-121 -576h-155l-178 659h114l139 -577h8l121 577h158l124 -577h9l133 577h109zM419 750h-101v92h101v-92zM608 750h-101v92h101v-92z" />
    <glyph glyph-name="wdieresis" unicode="&#x1e85;" horiz-adv-x="711" 
d="M428 458l74 -385h8l90 385h102l-126 -458h-143l-73 386h-10l-75 -386h-146l-120 458h106l86 -385h9l75 385h143zM310 560h-101v92h101v-92zM499 560h-101v92h101v-92z" />
    <glyph glyph-name="uni1EA0" unicode="&#x1ea0;" horiz-adv-x="633" 
d="M510 0l-62 182h-268l-62 -182h-112l239 659h144l236 -659h-115zM310 576l-102 -310h211l-101 310h-8zM355 -128h-83v80h83v-80z" />
    <glyph glyph-name="uni1EA1" unicode="&#x1ea1;" horiz-adv-x="473" 
d="M459 -1q-17 -3 -38 -3q-36 0 -58 12.5t-34 35.5q-25 -22 -64.5 -38.5t-82.5 -16.5q-46 0 -75 11.5t-46 31t-23.5 45.5t-6.5 55q0 44 14.5 72t41 44t63.5 22t81 6q41 0 82 -3v22q0 54 -21 76.5t-79 22.5q-40 0 -76.5 -10t-63.5 -24l-23 65q37 18 86 31t103 13
q50 0 84 -9.5t54.5 -32t29.5 -59t9 -90.5v-153q0 -32 11 -43.5t32 -11.5v-71zM229 205q-52 0 -71.5 -17.5t-19.5 -52.5q0 -36 15.5 -54.5t55.5 -18.5q25 0 53.5 11t50.5 30v97q-22 4 -42.5 4.5t-41.5 0.5zM276 -128h-83v80h83v-80z" />
    <glyph glyph-name="uni1EA2" unicode="&#x1ea2;" horiz-adv-x="633" 
d="M510 0l-62 182h-268l-62 -182h-112l239 659h144l236 -659h-115zM310 576l-102 -310h211l-101 310h-8zM291 714v28q0 10 2.5 20.5t10.5 20.5q4 6 11.5 12t14.5 12.5t12 13t5 14.5q0 13 -7.5 18t-25.5 5q-26 0 -51 -15l-14 40q33 21 75 21q35 0 58 -13t23 -49
q0 -16 -6 -27.5t-14.5 -20.5t-18 -17t-16.5 -17q-9 -10 -9 -29v-17h-50z" />
    <glyph glyph-name="uni1EA3" unicode="&#x1ea3;" horiz-adv-x="473" 
d="M459 -1q-17 -3 -38 -3q-36 0 -58 12.5t-34 35.5q-25 -22 -64.5 -38.5t-82.5 -16.5q-46 0 -75 11.5t-46 31t-23.5 45.5t-6.5 55q0 44 14.5 72t41 44t63.5 22t81 6q41 0 82 -3v22q0 54 -21 76.5t-79 22.5q-40 0 -76.5 -10t-63.5 -24l-23 65q37 18 86 31t103 13
q50 0 84 -9.5t54.5 -32t29.5 -59t9 -90.5v-153q0 -32 11 -43.5t32 -11.5v-71zM229 205q-52 0 -71.5 -17.5t-19.5 -52.5q0 -36 15.5 -54.5t55.5 -18.5q25 0 53.5 11t50.5 30v97q-22 4 -42.5 4.5t-41.5 0.5zM202 510v28q0 10 2.5 20.5t10.5 20.5q4 6 11.5 12t14.5 12.5t12 13
t5 14.5q0 13 -7.5 18t-25.5 5q-26 0 -51 -15l-14 40q33 21 75 21q35 0 58 -13t23 -49q0 -16 -6 -27.5t-14.5 -20.5t-18 -17t-16.5 -17q-9 -10 -9 -29v-17h-50z" />
    <glyph glyph-name="uni1EA4" unicode="&#x1ea4;" horiz-adv-x="633" 
d="M510 0l-62 182h-268l-62 -182h-112l239 659h144l236 -659h-115zM310 576l-102 -310h211l-101 310h-8zM581 927l-107 -130h-73l87 130h93zM350 832l80 -114h-75l-37 55h-8l-38 -55h-74l80 114h72z" />
    <glyph glyph-name="uni1EA5" unicode="&#x1ea5;" horiz-adv-x="473" 
d="M459 -1q-17 -3 -38 -3q-36 0 -58 12.5t-34 35.5q-25 -22 -64.5 -38.5t-82.5 -16.5q-46 0 -75 11.5t-46 31t-23.5 45.5t-6.5 55q0 44 14.5 72t41 44t63.5 22t81 6q41 0 82 -3v22q0 54 -21 76.5t-79 22.5q-40 0 -76.5 -10t-63.5 -24l-23 65q37 18 86 31t103 13
q50 0 84 -9.5t54.5 -32t29.5 -59t9 -90.5v-153q0 -32 11 -43.5t32 -11.5v-71zM229 205q-52 0 -71.5 -17.5t-19.5 -52.5q0 -36 15.5 -54.5t55.5 -18.5q25 0 53.5 11t50.5 30v97q-22 4 -42.5 4.5t-41.5 0.5zM495 727l-107 -130h-73l87 130h93zM262 632l80 -114h-75l-37 55h-8
l-38 -55h-74l80 114h72z" />
    <glyph glyph-name="uni1EA6" unicode="&#x1ea6;" horiz-adv-x="633" 
d="M510 0l-62 182h-268l-62 -182h-112l239 659h144l236 -659h-115zM310 576l-102 -310h211l-101 310h-8zM415 927l87 -130h-73l-107 130h93zM350 832l80 -114h-75l-37 55h-8l-38 -55h-74l80 114h72z" />
    <glyph glyph-name="uni1EA7" unicode="&#x1ea7;" horiz-adv-x="473" 
d="M459 -1q-17 -3 -38 -3q-36 0 -58 12.5t-34 35.5q-25 -22 -64.5 -38.5t-82.5 -16.5q-46 0 -75 11.5t-46 31t-23.5 45.5t-6.5 55q0 44 14.5 72t41 44t63.5 22t81 6q41 0 82 -3v22q0 54 -21 76.5t-79 22.5q-40 0 -76.5 -10t-63.5 -24l-23 65q37 18 86 31t103 13
q50 0 84 -9.5t54.5 -32t29.5 -59t9 -90.5v-153q0 -32 11 -43.5t32 -11.5v-71zM229 205q-52 0 -71.5 -17.5t-19.5 -52.5q0 -36 15.5 -54.5t55.5 -18.5q25 0 53.5 11t50.5 30v97q-22 4 -42.5 4.5t-41.5 0.5zM326 727l87 -130h-73l-107 130h93zM262 632l80 -114h-75l-37 55h-8
l-38 -55h-74l80 114h72z" />
    <glyph glyph-name="uni1EA8" unicode="&#x1ea8;" horiz-adv-x="633" 
d="M510 0l-62 182h-268l-62 -182h-112l239 659h144l236 -659h-115zM310 576l-102 -310h211l-101 310h-8zM350 832l80 -114h-75l-37 55h-8l-38 -55h-74l80 114h72zM412 789v28q0 10 2.5 20.5t10.5 20.5q4 6 11.5 12t14.5 12.5t12 13t5 14.5q0 13 -7.5 18t-25.5 5
q-26 0 -51 -15l-14 40q33 21 75 21q35 0 58 -13t23 -49q0 -16 -6 -27.5t-14.5 -20.5t-18 -17t-16.5 -17q-9 -10 -9 -29v-17h-50z" />
    <glyph glyph-name="uni1EA9" unicode="&#x1ea9;" horiz-adv-x="473" 
d="M459 -1q-17 -3 -38 -3q-36 0 -58 12.5t-34 35.5q-25 -22 -64.5 -38.5t-82.5 -16.5q-46 0 -75 11.5t-46 31t-23.5 45.5t-6.5 55q0 44 14.5 72t41 44t63.5 22t81 6q41 0 82 -3v22q0 54 -21 76.5t-79 22.5q-40 0 -76.5 -10t-63.5 -24l-23 65q37 18 86 31t103 13
q50 0 84 -9.5t54.5 -32t29.5 -59t9 -90.5v-153q0 -32 11 -43.5t32 -11.5v-71zM229 205q-52 0 -71.5 -17.5t-19.5 -52.5q0 -36 15.5 -54.5t55.5 -18.5q25 0 53.5 11t50.5 30v97q-22 4 -42.5 4.5t-41.5 0.5zM262 632l80 -114h-75l-37 55h-8l-38 -55h-74l80 114h72zM325 581v28
q0 10 2.5 20.5t10.5 20.5q4 6 11.5 12t14.5 12.5t12 13t5 14.5q0 13 -7.5 18t-25.5 5q-26 0 -51 -15l-14 40q33 21 75 21q35 0 58 -13t23 -49q0 -16 -6 -27.5t-14.5 -20.5t-18 -17t-16.5 -17q-9 -10 -9 -29v-17h-50z" />
    <glyph glyph-name="uni1EAA" unicode="&#x1eaa;" horiz-adv-x="633" 
d="M510 0l-62 182h-268l-62 -182h-112l239 659h144l236 -659h-115zM310 576l-102 -310h211l-101 310h-8zM350 832l80 -114h-75l-37 55h-8l-38 -55h-74l80 114h72zM214 892q19 22 38 31t45 9q13 0 23.5 -3.5t20 -8t20 -8t23.5 -3.5q15 0 30.5 4.5t31.5 18.5l21 -45
q-20 -22 -39 -28t-45 -6q-13 0 -23.5 3.5t-20 8t-20 8t-23.5 3.5q-14 0 -28.5 -7t-31.5 -19z" />
    <glyph glyph-name="uni1EAB" unicode="&#x1eab;" horiz-adv-x="473" 
d="M459 -1q-17 -3 -38 -3q-36 0 -58 12.5t-34 35.5q-25 -22 -64.5 -38.5t-82.5 -16.5q-46 0 -75 11.5t-46 31t-23.5 45.5t-6.5 55q0 44 14.5 72t41 44t63.5 22t81 6q41 0 82 -3v22q0 54 -21 76.5t-79 22.5q-40 0 -76.5 -10t-63.5 -24l-23 65q37 18 86 31t103 13
q50 0 84 -9.5t54.5 -32t29.5 -59t9 -90.5v-153q0 -32 11 -43.5t32 -11.5v-71zM229 205q-52 0 -71.5 -17.5t-19.5 -52.5q0 -36 15.5 -54.5t55.5 -18.5q25 0 53.5 11t50.5 30v97q-22 4 -42.5 4.5t-41.5 0.5zM262 632l80 -114h-75l-37 55h-8l-38 -55h-74l80 114h72zM122 694
q19 22 38 31t45 9q13 0 23.5 -3.5t20 -8t20 -8t23.5 -3.5q15 0 30.5 4.5t31.5 18.5l21 -45q-20 -22 -39 -28t-45 -6q-13 0 -23.5 3.5t-20 8t-20 8t-23.5 3.5q-14 0 -28.5 -7t-31.5 -19z" />
    <glyph glyph-name="uni1EAC" unicode="&#x1eac;" horiz-adv-x="633" 
d="M510 0l-62 182h-268l-62 -182h-112l239 659h144l236 -659h-115zM310 576l-102 -310h211l-101 310h-8zM355 -128h-83v80h83v-80zM350 832l80 -114h-75l-37 55h-8l-38 -55h-74l80 114h72z" />
    <glyph glyph-name="uni1EAD" unicode="&#x1ead;" horiz-adv-x="473" 
d="M459 -1q-17 -3 -38 -3q-36 0 -58 12.5t-34 35.5q-25 -22 -64.5 -38.5t-82.5 -16.5q-46 0 -75 11.5t-46 31t-23.5 45.5t-6.5 55q0 44 14.5 72t41 44t63.5 22t81 6q41 0 82 -3v22q0 54 -21 76.5t-79 22.5q-40 0 -76.5 -10t-63.5 -24l-23 65q37 18 86 31t103 13
q50 0 84 -9.5t54.5 -32t29.5 -59t9 -90.5v-153q0 -32 11 -43.5t32 -11.5v-71zM229 205q-52 0 -71.5 -17.5t-19.5 -52.5q0 -36 15.5 -54.5t55.5 -18.5q25 0 53.5 11t50.5 30v97q-22 4 -42.5 4.5t-41.5 0.5zM276 -128h-83v80h83v-80zM262 632l80 -114h-75l-37 55h-8l-38 -55
h-74l80 114h72z" />
    <glyph glyph-name="uni1EAE" unicode="&#x1eae;" horiz-adv-x="633" 
d="M510 0l-62 182h-268l-62 -182h-112l239 659h144l236 -659h-115zM310 576l-102 -310h211l-101 310h-8zM425 814q0 -52 -25 -80t-85 -28t-85 28t-25 80h59q0 -29 14 -43.5t37 -14.5q50 0 50 58h60zM463 952l-107 -130h-73l87 130h93z" />
    <glyph glyph-name="uni1EAF" unicode="&#x1eaf;" horiz-adv-x="473" 
d="M459 -1q-17 -3 -38 -3q-36 0 -58 12.5t-34 35.5q-25 -22 -64.5 -38.5t-82.5 -16.5q-46 0 -75 11.5t-46 31t-23.5 45.5t-6.5 55q0 44 14.5 72t41 44t63.5 22t81 6q41 0 82 -3v22q0 54 -21 76.5t-79 22.5q-40 0 -76.5 -10t-63.5 -24l-23 65q37 18 86 31t103 13
q50 0 84 -9.5t54.5 -32t29.5 -59t9 -90.5v-153q0 -32 11 -43.5t32 -11.5v-71zM229 205q-52 0 -71.5 -17.5t-19.5 -52.5q0 -36 15.5 -54.5t55.5 -18.5q25 0 53.5 11t50.5 30v97q-22 4 -42.5 4.5t-41.5 0.5zM335 618q0 -52 -25 -80t-85 -28t-85 28t-25 80h59q0 -29 14 -43.5
t37 -14.5q50 0 50 58h60zM373 756l-107 -130h-73l87 130h93z" />
    <glyph glyph-name="uni1EB0" unicode="&#x1eb0;" horiz-adv-x="633" 
d="M510 0l-62 182h-268l-62 -182h-112l239 659h144l236 -659h-115zM310 576l-102 -310h211l-101 310h-8zM425 814q0 -52 -25 -80t-85 -28t-85 28t-25 80h59q0 -29 14 -43.5t37 -14.5q50 0 50 58h60zM283 952l87 -130h-73l-107 130h93z" />
    <glyph glyph-name="uni1EB1" unicode="&#x1eb1;" horiz-adv-x="473" 
d="M459 -1q-17 -3 -38 -3q-36 0 -58 12.5t-34 35.5q-25 -22 -64.5 -38.5t-82.5 -16.5q-46 0 -75 11.5t-46 31t-23.5 45.5t-6.5 55q0 44 14.5 72t41 44t63.5 22t81 6q41 0 82 -3v22q0 54 -21 76.5t-79 22.5q-40 0 -76.5 -10t-63.5 -24l-23 65q37 18 86 31t103 13
q50 0 84 -9.5t54.5 -32t29.5 -59t9 -90.5v-153q0 -32 11 -43.5t32 -11.5v-71zM229 205q-52 0 -71.5 -17.5t-19.5 -52.5q0 -36 15.5 -54.5t55.5 -18.5q25 0 53.5 11t50.5 30v97q-22 4 -42.5 4.5t-41.5 0.5zM335 618q0 -52 -25 -80t-85 -28t-85 28t-25 80h59q0 -29 14 -43.5
t37 -14.5q50 0 50 58h60zM193 756l87 -130h-73l-107 130h93z" />
    <glyph glyph-name="uni1EB2" unicode="&#x1eb2;" horiz-adv-x="633" 
d="M510 0l-62 182h-268l-62 -182h-112l239 659h144l236 -659h-115zM310 576l-102 -310h211l-101 310h-8zM291 805v28q0 10 2.5 20.5t10.5 20.5q4 6 11.5 12t14.5 12.5t12 13t5 14.5q0 13 -7.5 18t-25.5 5q-26 0 -51 -15l-14 40q33 21 75 21q35 0 58 -13t23 -49
q0 -16 -6 -27.5t-14.5 -20.5t-18 -17t-16.5 -17q-9 -10 -9 -29v-17h-50zM425 814q0 -52 -25 -80t-85 -28t-85 28t-25 80h59q0 -29 14 -43.5t37 -14.5q50 0 50 58h60z" />
    <glyph glyph-name="uni1EB3" unicode="&#x1eb3;" horiz-adv-x="473" 
d="M459 -1q-17 -3 -38 -3q-36 0 -58 12.5t-34 35.5q-25 -22 -64.5 -38.5t-82.5 -16.5q-46 0 -75 11.5t-46 31t-23.5 45.5t-6.5 55q0 44 14.5 72t41 44t63.5 22t81 6q41 0 82 -3v22q0 54 -21 76.5t-79 22.5q-40 0 -76.5 -10t-63.5 -24l-23 65q37 18 86 31t103 13
q50 0 84 -9.5t54.5 -32t29.5 -59t9 -90.5v-153q0 -32 11 -43.5t32 -11.5v-71zM229 205q-52 0 -71.5 -17.5t-19.5 -52.5q0 -36 15.5 -54.5t55.5 -18.5q25 0 53.5 11t50.5 30v97q-22 4 -42.5 4.5t-41.5 0.5zM202 609v28q0 10 2.5 20.5t10.5 20.5q4 6 11.5 12t14.5 12.5t12 13
t5 14.5q0 13 -7.5 18t-25.5 5q-26 0 -51 -15l-14 40q33 21 75 21q35 0 58 -13t23 -49q0 -16 -6 -27.5t-14.5 -20.5t-18 -17t-16.5 -17q-9 -10 -9 -29v-17h-50zM335 618q0 -52 -25 -80t-85 -28t-85 28t-25 80h59q0 -29 14 -43.5t37 -14.5q50 0 50 58h60z" />
    <glyph glyph-name="uni1EB4" unicode="&#x1eb4;" horiz-adv-x="633" 
d="M510 0l-62 182h-268l-62 -182h-112l239 659h144l236 -659h-115zM310 576l-102 -310h211l-101 310h-8zM214 892q19 22 38 31t45 9q13 0 23.5 -3.5t20 -8t20 -8t23.5 -3.5q15 0 30.5 4.5t31.5 18.5l21 -45q-20 -22 -39 -28t-45 -6q-13 0 -23.5 3.5t-20 8t-20 8t-23.5 3.5
q-14 0 -28.5 -7t-31.5 -19zM425 814q0 -52 -25 -80t-85 -28t-85 28t-25 80h59q0 -29 14 -43.5t37 -14.5q50 0 50 58h60z" />
    <glyph glyph-name="uni1EB5" unicode="&#x1eb5;" horiz-adv-x="473" 
d="M459 -1q-17 -3 -38 -3q-36 0 -58 12.5t-34 35.5q-25 -22 -64.5 -38.5t-82.5 -16.5q-46 0 -75 11.5t-46 31t-23.5 45.5t-6.5 55q0 44 14.5 72t41 44t63.5 22t81 6q41 0 82 -3v22q0 54 -21 76.5t-79 22.5q-40 0 -76.5 -10t-63.5 -24l-23 65q37 18 86 31t103 13
q50 0 84 -9.5t54.5 -32t29.5 -59t9 -90.5v-153q0 -32 11 -43.5t32 -11.5v-71zM229 205q-52 0 -71.5 -17.5t-19.5 -52.5q0 -36 15.5 -54.5t55.5 -18.5q25 0 53.5 11t50.5 30v97q-22 4 -42.5 4.5t-41.5 0.5zM122 694q19 22 38 31t45 9q13 0 23.5 -3.5t20 -8t20 -8t23.5 -3.5
q15 0 30.5 4.5t31.5 18.5l21 -45q-20 -22 -39 -28t-45 -6q-13 0 -23.5 3.5t-20 8t-20 8t-23.5 3.5q-14 0 -28.5 -7t-31.5 -19zM335 618q0 -52 -25 -80t-85 -28t-85 28t-25 80h59q0 -29 14 -43.5t37 -14.5q50 0 50 58h60z" />
    <glyph glyph-name="uni1EB6" unicode="&#x1eb6;" horiz-adv-x="633" 
d="M510 0l-62 182h-268l-62 -182h-112l239 659h144l236 -659h-115zM310 576l-102 -310h211l-101 310h-8zM355 -128h-83v80h83v-80zM425 814q0 -52 -25 -80t-85 -28t-85 28t-25 80h59q0 -29 14 -43.5t37 -14.5q50 0 50 58h60z" />
    <glyph glyph-name="uni1EB7" unicode="&#x1eb7;" horiz-adv-x="473" 
d="M459 -1q-17 -3 -38 -3q-36 0 -58 12.5t-34 35.5q-25 -22 -64.5 -38.5t-82.5 -16.5q-46 0 -75 11.5t-46 31t-23.5 45.5t-6.5 55q0 44 14.5 72t41 44t63.5 22t81 6q41 0 82 -3v22q0 54 -21 76.5t-79 22.5q-40 0 -76.5 -10t-63.5 -24l-23 65q37 18 86 31t103 13
q50 0 84 -9.5t54.5 -32t29.5 -59t9 -90.5v-153q0 -32 11 -43.5t32 -11.5v-71zM229 205q-52 0 -71.5 -17.5t-19.5 -52.5q0 -36 15.5 -54.5t55.5 -18.5q25 0 53.5 11t50.5 30v97q-22 4 -42.5 4.5t-41.5 0.5zM276 -128h-83v80h83v-80zM335 618q0 -52 -25 -80t-85 -28t-85 28
t-25 80h59q0 -29 14 -43.5t37 -14.5q50 0 50 58h60z" />
    <glyph glyph-name="uni1EB8" unicode="&#x1eb8;" horiz-adv-x="542" 
d="M490 83v-83h-419v659h408v-84h-304v-195h294v-82h-294v-215h315zM323 -128h-83v80h83v-80z" />
    <glyph glyph-name="uni1EB9" unicode="&#x1eb9;" horiz-adv-x="485" 
d="M257 -11q-62 0 -104.5 15t-68.5 45.5t-37 76t-11 106.5q0 237 219 237q59 0 96.5 -17t59 -47t29.5 -71t8 -89v-41h-306q2 -69 25 -100q30 -39 106 -39q52 0 86 12.5t60 24.5l22 -66q-12 -8 -32.5 -16.5t-45.5 -15t-52 -11t-54 -4.5zM342 275q0 66 -22 95t-67 29
q-51 0 -75 -23t-32 -71l-3 -30h199zM282 -128h-83v80h83v-80z" />
    <glyph glyph-name="uni1EBA" unicode="&#x1eba;" horiz-adv-x="542" 
d="M490 83v-83h-419v659h408v-84h-304v-195h294v-82h-294v-215h315zM255 714v28q0 10 2.5 20.5t10.5 20.5q4 6 11.5 12t14.5 12.5t12 13t5 14.5q0 13 -7.5 18t-25.5 5q-26 0 -51 -15l-14 40q33 21 75 21q35 0 58 -13t23 -49q0 -16 -6 -27.5t-14.5 -20.5t-18 -17t-16.5 -17
q-9 -10 -9 -29v-17h-50z" />
    <glyph glyph-name="uni1EBB" unicode="&#x1ebb;" horiz-adv-x="485" 
d="M257 -11q-62 0 -104.5 15t-68.5 45.5t-37 76t-11 106.5q0 237 219 237q59 0 96.5 -17t59 -47t29.5 -71t8 -89v-41h-306q2 -69 25 -100q30 -39 106 -39q52 0 86 12.5t60 24.5l22 -66q-12 -8 -32.5 -16.5t-45.5 -15t-52 -11t-54 -4.5zM342 275q0 66 -22 95t-67 29
q-51 0 -75 -23t-32 -71l-3 -30h199zM232 510v28q0 10 2.5 20.5t10.5 20.5q4 6 11.5 12t14.5 12.5t12 13t5 14.5q0 13 -7.5 18t-25.5 5q-26 0 -51 -15l-14 40q33 21 75 21q35 0 58 -13t23 -49q0 -16 -6 -27.5t-14.5 -20.5t-18 -17t-16.5 -17q-9 -10 -9 -29v-17h-50z" />
    <glyph glyph-name="uni1EBC" unicode="&#x1ebc;" horiz-adv-x="542" 
d="M490 83v-83h-419v659h408v-84h-304v-195h294v-82h-294v-215h315zM157 766q19 22 38 31t45 9q13 0 23.5 -3.5t20 -8t20 -8t23.5 -3.5q15 0 30.5 4.5t31.5 18.5l21 -45q-20 -22 -39 -28t-45 -6q-13 0 -23.5 3.5t-20 8t-20 8t-23.5 3.5q-14 0 -28.5 -7t-31.5 -19z" />
    <glyph glyph-name="uni1EBD" unicode="&#x1ebd;" horiz-adv-x="485" 
d="M257 -11q-62 0 -104.5 15t-68.5 45.5t-37 76t-11 106.5q0 237 219 237q59 0 96.5 -17t59 -47t29.5 -71t8 -89v-41h-306q2 -69 25 -100q30 -39 106 -39q52 0 86 12.5t60 24.5l22 -66q-12 -8 -32.5 -16.5t-45.5 -15t-52 -11t-54 -4.5zM342 275q0 66 -22 95t-67 29
q-51 0 -75 -23t-32 -71l-3 -30h199zM136 573q19 22 38 31t45 9q13 0 23.5 -3.5t20 -8t20 -8t23.5 -3.5q15 0 30.5 4.5t31.5 18.5l21 -45q-20 -22 -39 -28t-45 -6q-13 0 -23.5 3.5t-20 8t-20 8t-23.5 3.5q-14 0 -28.5 -7t-31.5 -19z" />
    <glyph glyph-name="uni1EBE" unicode="&#x1ebe;" horiz-adv-x="542" 
d="M490 83v-83h-419v659h408v-84h-304v-195h294v-82h-294v-215h315zM541 927l-107 -130h-73l87 130h93zM310 832l80 -114h-75l-37 55h-8l-38 -55h-74l80 114h72z" />
    <glyph glyph-name="uni1EBF" unicode="&#x1ebf;" horiz-adv-x="485" 
d="M257 -11q-62 0 -104.5 15t-68.5 45.5t-37 76t-11 106.5q0 237 219 237q59 0 96.5 -17t59 -47t29.5 -71t8 -89v-41h-306q2 -69 25 -100q30 -39 106 -39q52 0 86 12.5t60 24.5l22 -66q-12 -8 -32.5 -16.5t-45.5 -15t-52 -11t-54 -4.5zM342 275q0 66 -22 95t-67 29
q-51 0 -75 -23t-32 -71l-3 -30h199zM512 727l-107 -130h-73l87 130h93zM279 632l80 -114h-75l-37 55h-8l-38 -55h-74l80 114h72z" />
    <glyph glyph-name="uni1EC0" unicode="&#x1ec0;" horiz-adv-x="542" 
d="M490 83v-83h-419v659h408v-84h-304v-195h294v-82h-294v-215h315zM310 832l80 -114h-75l-37 55h-8l-38 -55h-74l80 114h72zM375 927l87 -130h-73l-107 130h93z" />
    <glyph glyph-name="uni1EC1" unicode="&#x1ec1;" horiz-adv-x="485" 
d="M257 -11q-62 0 -104.5 15t-68.5 45.5t-37 76t-11 106.5q0 237 219 237q59 0 96.5 -17t59 -47t29.5 -71t8 -89v-41h-306q2 -69 25 -100q30 -39 106 -39q52 0 86 12.5t60 24.5l22 -66q-12 -8 -32.5 -16.5t-45.5 -15t-52 -11t-54 -4.5zM342 275q0 66 -22 95t-67 29
q-51 0 -75 -23t-32 -71l-3 -30h199zM279 632l80 -114h-75l-37 55h-8l-38 -55h-74l80 114h72zM343 727l87 -130h-73l-107 130h93z" />
    <glyph glyph-name="uni1EC2" unicode="&#x1ec2;" horiz-adv-x="542" 
d="M490 83v-83h-419v659h408v-84h-304v-195h294v-82h-294v-215h315zM310 832l80 -114h-75l-37 55h-8l-38 -55h-74l80 114h72zM372 789v28q0 10 2.5 20.5t10.5 20.5q4 6 11.5 12t14.5 12.5t12 13t5 14.5q0 13 -7.5 18t-25.5 5q-26 0 -51 -15l-14 40q33 21 75 21q35 0 58 -13
t23 -49q0 -16 -6 -27.5t-14.5 -20.5t-18 -17t-16.5 -17q-9 -10 -9 -29v-17h-50z" />
    <glyph glyph-name="uni1EC3" unicode="&#x1ec3;" horiz-adv-x="485" 
d="M257 -11q-62 0 -104.5 15t-68.5 45.5t-37 76t-11 106.5q0 237 219 237q59 0 96.5 -17t59 -47t29.5 -71t8 -89v-41h-306q2 -69 25 -100q30 -39 106 -39q52 0 86 12.5t60 24.5l22 -66q-12 -8 -32.5 -16.5t-45.5 -15t-52 -11t-54 -4.5zM342 275q0 66 -22 95t-67 29
q-51 0 -75 -23t-32 -71l-3 -30h199zM279 632l80 -114h-75l-37 55h-8l-38 -55h-74l80 114h72zM342 581v28q0 10 2.5 20.5t10.5 20.5q4 6 11.5 12t14.5 12.5t12 13t5 14.5q0 13 -7.5 18t-25.5 5q-26 0 -51 -15l-14 40q33 21 75 21q35 0 58 -13t23 -49q0 -16 -6 -27.5
t-14.5 -20.5t-18 -17t-16.5 -17q-9 -10 -9 -29v-17h-50z" />
    <glyph glyph-name="uni1EC4" unicode="&#x1ec4;" horiz-adv-x="542" 
d="M490 83v-83h-419v659h408v-84h-304v-195h294v-82h-294v-215h315zM310 832l80 -114h-75l-37 55h-8l-38 -55h-74l80 114h72zM174 892q19 22 38 31t45 9q13 0 23.5 -3.5t20 -8t20 -8t23.5 -3.5q15 0 30.5 4.5t31.5 18.5l21 -45q-20 -22 -39 -28t-45 -6q-13 0 -23.5 3.5
t-20 8t-20 8t-23.5 3.5q-14 0 -28.5 -7t-31.5 -19z" />
    <glyph glyph-name="uni1EC5" unicode="&#x1ec5;" horiz-adv-x="485" 
d="M257 -11q-62 0 -104.5 15t-68.5 45.5t-37 76t-11 106.5q0 237 219 237q59 0 96.5 -17t59 -47t29.5 -71t8 -89v-41h-306q2 -69 25 -100q30 -39 106 -39q52 0 86 12.5t60 24.5l22 -66q-12 -8 -32.5 -16.5t-45.5 -15t-52 -11t-54 -4.5zM342 275q0 66 -22 95t-67 29
q-51 0 -75 -23t-32 -71l-3 -30h199zM279 632l80 -114h-75l-37 55h-8l-38 -55h-74l80 114h72zM139 694q19 22 38 31t45 9q13 0 23.5 -3.5t20 -8t20 -8t23.5 -3.5q15 0 30.5 4.5t31.5 18.5l21 -45q-20 -22 -39 -28t-45 -6q-13 0 -23.5 3.5t-20 8t-20 8t-23.5 3.5
q-14 0 -28.5 -7t-31.5 -19z" />
    <glyph glyph-name="uni1EC6" unicode="&#x1ec6;" horiz-adv-x="542" 
d="M490 83v-83h-419v659h408v-84h-304v-195h294v-82h-294v-215h315zM323 -128h-83v80h83v-80zM310 832l80 -114h-75l-37 55h-8l-38 -55h-74l80 114h72z" />
    <glyph glyph-name="uni1EC7" unicode="&#x1ec7;" horiz-adv-x="485" 
d="M257 -11q-62 0 -104.5 15t-68.5 45.5t-37 76t-11 106.5q0 237 219 237q59 0 96.5 -17t59 -47t29.5 -71t8 -89v-41h-306q2 -69 25 -100q30 -39 106 -39q52 0 86 12.5t60 24.5l22 -66q-12 -8 -32.5 -16.5t-45.5 -15t-52 -11t-54 -4.5zM342 275q0 66 -22 95t-67 29
q-51 0 -75 -23t-32 -71l-3 -30h199zM282 -128h-83v80h83v-80zM279 632l80 -114h-75l-37 55h-8l-38 -55h-74l80 114h72z" />
    <glyph glyph-name="uni1EC8" unicode="&#x1ec8;" horiz-adv-x="248" 
d="M71 659h104v-659h-104v659zM97 714v28q0 10 2.5 20.5t10.5 20.5q4 6 11.5 12t14.5 12.5t12 13t5 14.5q0 13 -7.5 18t-25.5 5q-26 0 -51 -15l-14 40q33 21 75 21q35 0 58 -13t23 -49q0 -16 -6 -27.5t-14.5 -20.5t-18 -17t-16.5 -17q-9 -10 -9 -29v-17h-50z" />
    <glyph glyph-name="uni1EC9" unicode="&#x1ec9;" horiz-adv-x="219" 
d="M58 458h102v-458h-102v458zM82 510v28q0 10 2.5 20.5t10.5 20.5q4 6 11.5 12t14.5 12.5t12 13t5 14.5q0 13 -7.5 18t-25.5 5q-26 0 -51 -15l-14 40q33 21 75 21q35 0 58 -13t23 -49q0 -16 -6 -27.5t-14.5 -20.5t-18 -17t-16.5 -17q-9 -10 -9 -29v-17h-50z" />
    <glyph glyph-name="uni1ECA" unicode="&#x1eca;" horiz-adv-x="248" 
d="M71 659h104v-659h-104v659zM164 -128h-83v80h83v-80z" />
    <glyph glyph-name="uni1ECB" unicode="&#x1ecb;" horiz-adv-x="219" 
d="M57 652h104v-92h-104v92zM58 458h102v-458h-102v458zM150 -128h-83v80h83v-80z" />
    <glyph glyph-name="uni1ECC" unicode="&#x1ecc;" horiz-adv-x="665" 
d="M44 333q0 172 72.5 254t226.5 82q77 0 130 -23.5t86 -68t47.5 -108t14.5 -143.5q0 -171 -73 -254t-228 -83q-78 0 -130.5 24t-85 68.5t-46.5 108t-14 143.5zM512 339q0 51 -7.5 96.5t-26.5 79.5t-51.5 53.5t-82.5 19.5q-54 0 -91 -17t-59.5 -51t-32.5 -83.5t-10 -114.5
q0 -52 7.5 -97.5t26.5 -79t51 -53t81 -19.5q57 0 94.5 17t60 50.5t31.5 83.5t9 115zM373 -128h-83v80h83v-80z" />
    <glyph glyph-name="uni1ECD" unicode="&#x1ecd;" horiz-adv-x="517" 
d="M247 -11q-61 0 -101.5 16.5t-65 48t-34.5 76t-10 101.5q0 121 55 179.5t178 58.5q60 0 101 -16.5t65.5 -48t35 -76.5t10.5 -102q0 -121 -56.5 -179t-177.5 -58zM247 62q75 0 102 43.5t27 129.5q0 33 -4.5 62.5t-16.5 52t-33 35.5t-53 13q-74 0 -101 -45t-27 -130
q0 -33 4 -62.5t16 -51.5t32.5 -34.5t53.5 -12.5zM299 -128h-83v80h83v-80z" />
    <glyph glyph-name="uni1ECE" unicode="&#x1ece;" horiz-adv-x="665" 
d="M44 333q0 172 72.5 254t226.5 82q77 0 130 -23.5t86 -68t47.5 -108t14.5 -143.5q0 -171 -73 -254t-228 -83q-78 0 -130.5 24t-85 68.5t-46.5 108t-14 143.5zM512 339q0 51 -7.5 96.5t-26.5 79.5t-51.5 53.5t-82.5 19.5q-54 0 -91 -17t-59.5 -51t-32.5 -83.5t-10 -114.5
q0 -52 7.5 -97.5t26.5 -79t51 -53t81 -19.5q57 0 94.5 17t60 50.5t31.5 83.5t9 115zM303 714v28q0 10 2.5 20.5t10.5 20.5q4 6 11.5 12t14.5 12.5t12 13t5 14.5q0 13 -7.5 18t-25.5 5q-26 0 -51 -15l-14 40q33 21 75 21q35 0 58 -13t23 -49q0 -16 -6 -27.5t-14.5 -20.5
t-18 -17t-16.5 -17q-9 -10 -9 -29v-17h-50z" />
    <glyph glyph-name="uni1ECF" unicode="&#x1ecf;" horiz-adv-x="517" 
d="M247 -11q-61 0 -101.5 16.5t-65 48t-34.5 76t-10 101.5q0 121 55 179.5t178 58.5q60 0 101 -16.5t65.5 -48t35 -76.5t10.5 -102q0 -121 -56.5 -179t-177.5 -58zM247 62q75 0 102 43.5t27 129.5q0 33 -4.5 62.5t-16.5 52t-33 35.5t-53 13q-74 0 -101 -45t-27 -130
q0 -33 4 -62.5t16 -51.5t32.5 -34.5t53.5 -12.5zM234 510v28q0 10 2.5 20.5t10.5 20.5q4 6 11.5 12t14.5 12.5t12 13t5 14.5q0 13 -7.5 18t-25.5 5q-26 0 -51 -15l-14 40q33 21 75 21q35 0 58 -13t23 -49q0 -16 -6 -27.5t-14.5 -20.5t-18 -17t-16.5 -17q-9 -10 -9 -29v-17
h-50z" />
    <glyph glyph-name="uni1ED0" unicode="&#x1ed0;" horiz-adv-x="665" 
d="M44 333q0 172 72.5 254t226.5 82q77 0 130 -23.5t86 -68t47.5 -108t14.5 -143.5q0 -171 -73 -254t-228 -83q-78 0 -130.5 24t-85 68.5t-46.5 108t-14 143.5zM512 339q0 51 -7.5 96.5t-26.5 79.5t-51.5 53.5t-82.5 19.5q-54 0 -91 -17t-59.5 -51t-32.5 -83.5t-10 -114.5
q0 -52 7.5 -97.5t26.5 -79t51 -53t81 -19.5q57 0 94.5 17t60 50.5t31.5 83.5t9 115zM599 927l-107 -130h-73l87 130h93zM368 832l80 -114h-75l-37 55h-8l-38 -55h-74l80 114h72z" />
    <glyph glyph-name="uni1ED1" unicode="&#x1ed1;" horiz-adv-x="517" 
d="M247 -11q-61 0 -101.5 16.5t-65 48t-34.5 76t-10 101.5q0 121 55 179.5t178 58.5q60 0 101 -16.5t65.5 -48t35 -76.5t10.5 -102q0 -121 -56.5 -179t-177.5 -58zM247 62q75 0 102 43.5t27 129.5q0 33 -4.5 62.5t-16.5 52t-33 35.5t-53 13q-74 0 -101 -45t-27 -130
q0 -33 4 -62.5t16 -51.5t32.5 -34.5t53.5 -12.5zM527 727l-107 -130h-73l87 130h93zM294 632l80 -114h-75l-37 55h-8l-38 -55h-74l80 114h72z" />
    <glyph glyph-name="uni1ED2" unicode="&#x1ed2;" horiz-adv-x="665" 
d="M44 333q0 172 72.5 254t226.5 82q77 0 130 -23.5t86 -68t47.5 -108t14.5 -143.5q0 -171 -73 -254t-228 -83q-78 0 -130.5 24t-85 68.5t-46.5 108t-14 143.5zM512 339q0 51 -7.5 96.5t-26.5 79.5t-51.5 53.5t-82.5 19.5q-54 0 -91 -17t-59.5 -51t-32.5 -83.5t-10 -114.5
q0 -52 7.5 -97.5t26.5 -79t51 -53t81 -19.5q57 0 94.5 17t60 50.5t31.5 83.5t9 115zM368 832l80 -114h-75l-37 55h-8l-38 -55h-74l80 114h72zM433 927l87 -130h-73l-107 130h93z" />
    <glyph glyph-name="uni1ED3" unicode="&#x1ed3;" horiz-adv-x="517" 
d="M247 -11q-61 0 -101.5 16.5t-65 48t-34.5 76t-10 101.5q0 121 55 179.5t178 58.5q60 0 101 -16.5t65.5 -48t35 -76.5t10.5 -102q0 -121 -56.5 -179t-177.5 -58zM247 62q75 0 102 43.5t27 129.5q0 33 -4.5 62.5t-16.5 52t-33 35.5t-53 13q-74 0 -101 -45t-27 -130
q0 -33 4 -62.5t16 -51.5t32.5 -34.5t53.5 -12.5zM294 632l80 -114h-75l-37 55h-8l-38 -55h-74l80 114h72zM358 727l87 -130h-73l-107 130h93z" />
    <glyph glyph-name="uni1ED4" unicode="&#x1ed4;" horiz-adv-x="665" 
d="M44 333q0 172 72.5 254t226.5 82q77 0 130 -23.5t86 -68t47.5 -108t14.5 -143.5q0 -171 -73 -254t-228 -83q-78 0 -130.5 24t-85 68.5t-46.5 108t-14 143.5zM512 339q0 51 -7.5 96.5t-26.5 79.5t-51.5 53.5t-82.5 19.5q-54 0 -91 -17t-59.5 -51t-32.5 -83.5t-10 -114.5
q0 -52 7.5 -97.5t26.5 -79t51 -53t81 -19.5q57 0 94.5 17t60 50.5t31.5 83.5t9 115zM368 832l80 -114h-75l-37 55h-8l-38 -55h-74l80 114h72zM430 789v28q0 10 2.5 20.5t10.5 20.5q4 6 11.5 12t14.5 12.5t12 13t5 14.5q0 13 -7.5 18t-25.5 5q-26 0 -51 -15l-14 40
q33 21 75 21q35 0 58 -13t23 -49q0 -16 -6 -27.5t-14.5 -20.5t-18 -17t-16.5 -17q-9 -10 -9 -29v-17h-50z" />
    <glyph glyph-name="uni1ED5" unicode="&#x1ed5;" horiz-adv-x="517" 
d="M247 -11q-61 0 -101.5 16.5t-65 48t-34.5 76t-10 101.5q0 121 55 179.5t178 58.5q60 0 101 -16.5t65.5 -48t35 -76.5t10.5 -102q0 -121 -56.5 -179t-177.5 -58zM247 62q75 0 102 43.5t27 129.5q0 33 -4.5 62.5t-16.5 52t-33 35.5t-53 13q-74 0 -101 -45t-27 -130
q0 -33 4 -62.5t16 -51.5t32.5 -34.5t53.5 -12.5zM294 632l80 -114h-75l-37 55h-8l-38 -55h-74l80 114h72zM357 581v28q0 10 2.5 20.5t10.5 20.5q4 6 11.5 12t14.5 12.5t12 13t5 14.5q0 13 -7.5 18t-25.5 5q-26 0 -51 -15l-14 40q33 21 75 21q35 0 58 -13t23 -49
q0 -16 -6 -27.5t-14.5 -20.5t-18 -17t-16.5 -17q-9 -10 -9 -29v-17h-50z" />
    <glyph glyph-name="uni1ED6" unicode="&#x1ed6;" horiz-adv-x="665" 
d="M44 333q0 172 72.5 254t226.5 82q77 0 130 -23.5t86 -68t47.5 -108t14.5 -143.5q0 -171 -73 -254t-228 -83q-78 0 -130.5 24t-85 68.5t-46.5 108t-14 143.5zM512 339q0 51 -7.5 96.5t-26.5 79.5t-51.5 53.5t-82.5 19.5q-54 0 -91 -17t-59.5 -51t-32.5 -83.5t-10 -114.5
q0 -52 7.5 -97.5t26.5 -79t51 -53t81 -19.5q57 0 94.5 17t60 50.5t31.5 83.5t9 115zM368 832l80 -114h-75l-37 55h-8l-38 -55h-74l80 114h72zM232 892q19 22 38 31t45 9q13 0 23.5 -3.5t20 -8t20 -8t23.5 -3.5q15 0 30.5 4.5t31.5 18.5l21 -45q-20 -22 -39 -28t-45 -6
q-13 0 -23.5 3.5t-20 8t-20 8t-23.5 3.5q-14 0 -28.5 -7t-31.5 -19z" />
    <glyph glyph-name="uni1ED7" unicode="&#x1ed7;" horiz-adv-x="517" 
d="M247 -11q-61 0 -101.5 16.5t-65 48t-34.5 76t-10 101.5q0 121 55 179.5t178 58.5q60 0 101 -16.5t65.5 -48t35 -76.5t10.5 -102q0 -121 -56.5 -179t-177.5 -58zM247 62q75 0 102 43.5t27 129.5q0 33 -4.5 62.5t-16.5 52t-33 35.5t-53 13q-74 0 -101 -45t-27 -130
q0 -33 4 -62.5t16 -51.5t32.5 -34.5t53.5 -12.5zM294 632l80 -114h-75l-37 55h-8l-38 -55h-74l80 114h72zM154 694q19 22 38 31t45 9q13 0 23.5 -3.5t20 -8t20 -8t23.5 -3.5q15 0 30.5 4.5t31.5 18.5l21 -45q-20 -22 -39 -28t-45 -6q-13 0 -23.5 3.5t-20 8t-20 8t-23.5 3.5
q-14 0 -28.5 -7t-31.5 -19z" />
    <glyph glyph-name="uni1ED8" unicode="&#x1ed8;" horiz-adv-x="665" 
d="M44 333q0 172 72.5 254t226.5 82q77 0 130 -23.5t86 -68t47.5 -108t14.5 -143.5q0 -171 -73 -254t-228 -83q-78 0 -130.5 24t-85 68.5t-46.5 108t-14 143.5zM512 339q0 51 -7.5 96.5t-26.5 79.5t-51.5 53.5t-82.5 19.5q-54 0 -91 -17t-59.5 -51t-32.5 -83.5t-10 -114.5
q0 -52 7.5 -97.5t26.5 -79t51 -53t81 -19.5q57 0 94.5 17t60 50.5t31.5 83.5t9 115zM373 -128h-83v80h83v-80zM368 832l80 -114h-75l-37 55h-8l-38 -55h-74l80 114h72z" />
    <glyph glyph-name="uni1ED9" unicode="&#x1ed9;" horiz-adv-x="517" 
d="M247 -11q-61 0 -101.5 16.5t-65 48t-34.5 76t-10 101.5q0 121 55 179.5t178 58.5q60 0 101 -16.5t65.5 -48t35 -76.5t10.5 -102q0 -121 -56.5 -179t-177.5 -58zM247 62q75 0 102 43.5t27 129.5q0 33 -4.5 62.5t-16.5 52t-33 35.5t-53 13q-74 0 -101 -45t-27 -130
q0 -33 4 -62.5t16 -51.5t32.5 -34.5t53.5 -12.5zM299 -128h-83v80h83v-80zM294 632l80 -114h-75l-37 55h-8l-38 -55h-74l80 114h72z" />
    <glyph glyph-name="uni1EDA" unicode="&#x1eda;" horiz-adv-x="666" 
d="M512 339q0 51 -7.5 96.5t-26.5 79.5t-51.5 53.5t-82.5 19.5q-54 0 -91 -17t-59.5 -51t-32.5 -83.5t-10 -114.5q0 -52 7.5 -97.5t26.5 -79t51 -53t81 -19.5q57 0 94.5 17t60 50.5t31.5 83.5t9 115zM583 539q15 -32 24 -69q14 -64 14 -144q0 -171 -73 -254t-228 -83
q-78 0 -130.5 24t-85 68.5t-46.5 108t-14 143.5q0 172 72.5 254t226.5 82q77 0 130 -23.5t86 -67.5q8 -11 15 -23q6 11 13 24q8 17 11 35q3 19 3.5 36.5t0.5 31.5h72q0 -26 -2.5 -45t-9.5 -41q-6 -20 -20 -40.5t-27 -35.5zM439 860l-102 -124h-75l86 124h91z" />
    <glyph glyph-name="uni1EDB" unicode="&#x1edb;" horiz-adv-x="522" 
d="M247 62q75 0 102 43.5t27 129.5q0 33 -4.5 62.5t-16.5 52t-33 35.5t-53 13q-74 0 -101 -45t-27 -130q0 -33 4 -62.5t16 -51.5t32.5 -34.5t53.5 -12.5zM472 320q9 -42 9 -94q0 -121 -56.5 -179t-177.5 -58q-61 0 -101.5 16.5t-65 48t-34.5 76t-10 101.5q0 121 55 179.5
t178 58.5q60 0 101 -16.5t66 -47.5q18 -24 28 -54q3 6 7 13q8 17 11 35q3 19 3.5 36.5t0.5 31.5h72q0 -26 -2.5 -45t-9.5 -41q-6 -20 -20 -40.5t-27 -35.5zM394 653l-102 -124h-75l86 124h91z" />
    <glyph glyph-name="uni1EDC" unicode="&#x1edc;" horiz-adv-x="666" 
d="M512 339q0 51 -7.5 96.5t-26.5 79.5t-51.5 53.5t-82.5 19.5q-54 0 -91 -17t-59.5 -51t-32.5 -83.5t-10 -114.5q0 -52 7.5 -97.5t26.5 -79t51 -53t81 -19.5q57 0 94.5 17t60 50.5t31.5 83.5t9 115zM583 539q15 -32 24 -69q14 -64 14 -144q0 -171 -73 -254t-228 -83
q-78 0 -130.5 24t-85 68.5t-46.5 108t-14 143.5q0 172 72.5 254t226.5 82q77 0 130 -23.5t86 -67.5q8 -11 15 -23q6 11 13 24q8 17 11 35q3 19 3.5 36.5t0.5 31.5h72q0 -26 -2.5 -45t-9.5 -41q-6 -20 -20 -40.5t-27 -35.5zM308 860l86 -124h-75l-102 124h91z" />
    <glyph glyph-name="uni1EDD" unicode="&#x1edd;" horiz-adv-x="522" 
d="M247 62q75 0 102 43.5t27 129.5q0 33 -4.5 62.5t-16.5 52t-33 35.5t-53 13q-74 0 -101 -45t-27 -130q0 -33 4 -62.5t16 -51.5t32.5 -34.5t53.5 -12.5zM472 320q9 -42 9 -94q0 -121 -56.5 -179t-177.5 -58q-61 0 -101.5 16.5t-65 48t-34.5 76t-10 101.5q0 121 55 179.5
t178 58.5q60 0 101 -16.5t66 -47.5q18 -24 28 -54q3 6 7 13q8 17 11 35q3 19 3.5 36.5t0.5 31.5h72q0 -26 -2.5 -45t-9.5 -41q-6 -20 -20 -40.5t-27 -35.5zM218 653l86 -124h-75l-102 124h91z" />
    <glyph glyph-name="uni1EDE" unicode="&#x1ede;" horiz-adv-x="666" 
d="M512 339q0 51 -7.5 96.5t-26.5 79.5t-51.5 53.5t-82.5 19.5q-54 0 -91 -17t-59.5 -51t-32.5 -83.5t-10 -114.5q0 -52 7.5 -97.5t26.5 -79t51 -53t81 -19.5q57 0 94.5 17t60 50.5t31.5 83.5t9 115zM583 539q15 -32 24 -69q14 -64 14 -144q0 -171 -73 -254t-228 -83
q-78 0 -130.5 24t-85 68.5t-46.5 108t-14 143.5q0 172 72.5 254t226.5 82q77 0 130 -23.5t86 -67.5q8 -11 15 -23q6 11 13 24q8 17 11 35q3 19 3.5 36.5t0.5 31.5h72q0 -26 -2.5 -45t-9.5 -41q-6 -20 -20 -40.5t-27 -35.5zM303 714v28q0 10 2.5 20.5t10.5 20.5q4 6 11.5 12
t14.5 12.5t12 13t5 14.5q0 13 -7.5 18t-25.5 5q-26 0 -51 -15l-14 40q33 21 75 21q35 0 58 -13t23 -49q0 -16 -6 -27.5t-14.5 -20.5t-18 -17t-16.5 -17q-9 -10 -9 -29v-17h-50z" />
    <glyph glyph-name="uni1EDF" unicode="&#x1edf;" horiz-adv-x="522" 
d="M247 62q75 0 102 43.5t27 129.5q0 33 -4.5 62.5t-16.5 52t-33 35.5t-53 13q-74 0 -101 -45t-27 -130q0 -33 4 -62.5t16 -51.5t32.5 -34.5t53.5 -12.5zM472 320q9 -42 9 -94q0 -121 -56.5 -179t-177.5 -58q-61 0 -101.5 16.5t-65 48t-34.5 76t-10 101.5q0 121 55 179.5
t178 58.5q60 0 101 -16.5t66 -47.5q18 -24 28 -54q3 6 7 13q8 17 11 35q3 19 3.5 36.5t0.5 31.5h72q0 -26 -2.5 -45t-9.5 -41q-6 -20 -20 -40.5t-27 -35.5zM234 510v28q0 10 2.5 20.5t10.5 20.5q4 6 11.5 12t14.5 12.5t12 13t5 14.5q0 13 -7.5 18t-25.5 5q-26 0 -51 -15
l-14 40q33 21 75 21q35 0 58 -13t23 -49q0 -16 -6 -27.5t-14.5 -20.5t-18 -17t-16.5 -17q-9 -10 -9 -29v-17h-50z" />
    <glyph glyph-name="uni1EE0" unicode="&#x1ee0;" horiz-adv-x="666" 
d="M512 339q0 51 -7.5 96.5t-26.5 79.5t-51.5 53.5t-82.5 19.5q-54 0 -91 -17t-59.5 -51t-32.5 -83.5t-10 -114.5q0 -52 7.5 -97.5t26.5 -79t51 -53t81 -19.5q57 0 94.5 17t60 50.5t31.5 83.5t9 115zM583 539q15 -32 24 -69q14 -64 14 -144q0 -171 -73 -254t-228 -83
q-78 0 -130.5 24t-85 68.5t-46.5 108t-14 143.5q0 172 72.5 254t226.5 82q77 0 130 -23.5t86 -67.5q8 -11 15 -23q6 11 13 24q8 17 11 35q3 19 3.5 36.5t0.5 31.5h72q0 -26 -2.5 -45t-9.5 -41q-6 -20 -20 -40.5t-27 -35.5zM213 766q19 22 38 31t45 9q13 0 23.5 -3.5t20 -8
t20 -8t23.5 -3.5q15 0 30.5 4.5t31.5 18.5l21 -45q-20 -22 -39 -28t-45 -6q-13 0 -23.5 3.5t-20 8t-20 8t-23.5 3.5q-14 0 -28.5 -7t-31.5 -19z" />
    <glyph glyph-name="uni1EE1" unicode="&#x1ee1;" horiz-adv-x="522" 
d="M247 62q75 0 102 43.5t27 129.5q0 33 -4.5 62.5t-16.5 52t-33 35.5t-53 13q-74 0 -101 -45t-27 -130q0 -33 4 -62.5t16 -51.5t32.5 -34.5t53.5 -12.5zM472 320q9 -42 9 -94q0 -121 -56.5 -179t-177.5 -58q-61 0 -101.5 16.5t-65 48t-34.5 76t-10 101.5q0 121 55 179.5
t178 58.5q60 0 101 -16.5t66 -47.5q18 -24 28 -54q3 6 7 13q8 17 11 35q3 19 3.5 36.5t0.5 31.5h72q0 -26 -2.5 -45t-9.5 -41q-6 -20 -20 -40.5t-27 -35.5zM141 573q19 22 38 31t45 9q13 0 23.5 -3.5t20 -8t20 -8t23.5 -3.5q15 0 30.5 4.5t31.5 18.5l21 -45q-20 -22 -39 -28
t-45 -6q-13 0 -23.5 3.5t-20 8t-20 8t-23.5 3.5q-14 0 -28.5 -7t-31.5 -19z" />
    <glyph glyph-name="uni1EE2" unicode="&#x1ee2;" horiz-adv-x="666" 
d="M512 339q0 51 -7.5 96.5t-26.5 79.5t-51.5 53.5t-82.5 19.5q-54 0 -91 -17t-59.5 -51t-32.5 -83.5t-10 -114.5q0 -52 7.5 -97.5t26.5 -79t51 -53t81 -19.5q57 0 94.5 17t60 50.5t31.5 83.5t9 115zM583 539q15 -32 24 -69q14 -64 14 -144q0 -171 -73 -254t-228 -83
q-78 0 -130.5 24t-85 68.5t-46.5 108t-14 143.5q0 172 72.5 254t226.5 82q77 0 130 -23.5t86 -67.5q8 -11 15 -23q6 11 13 24q8 17 11 35q3 19 3.5 36.5t0.5 31.5h72q0 -26 -2.5 -45t-9.5 -41q-6 -20 -20 -40.5t-27 -35.5zM373 -128h-83v80h83v-80z" />
    <glyph glyph-name="uni1EE3" unicode="&#x1ee3;" horiz-adv-x="522" 
d="M247 62q75 0 102 43.5t27 129.5q0 33 -4.5 62.5t-16.5 52t-33 35.5t-53 13q-74 0 -101 -45t-27 -130q0 -33 4 -62.5t16 -51.5t32.5 -34.5t53.5 -12.5zM472 320q9 -42 9 -94q0 -121 -56.5 -179t-177.5 -58q-61 0 -101.5 16.5t-65 48t-34.5 76t-10 101.5q0 121 55 179.5
t178 58.5q60 0 101 -16.5t66 -47.5q18 -24 28 -54q3 6 7 13q8 17 11 35q3 19 3.5 36.5t0.5 31.5h72q0 -26 -2.5 -45t-9.5 -41q-6 -20 -20 -40.5t-27 -35.5zM299 -128h-83v80h83v-80z" />
    <glyph glyph-name="uni1EE4" unicode="&#x1ee4;" horiz-adv-x="634" 
d="M570 659v-406q0 -140 -67.5 -202t-193.5 -62t-185.5 63.5t-59.5 207.5v399h104v-414q0 -83 31.5 -128.5t108.5 -45.5q43 0 73 10.5t49 33t27.5 59t8.5 87.5v398h104zM357 -128h-83v80h83v-80z" />
    <glyph glyph-name="uni1EE5" unicode="&#x1ee5;" horiz-adv-x="505" 
d="M446 122l9 -122h-95l-5 36q-13 -9 -27 -16t-28 -12q-50 -19 -99 -19q-45 0 -73.5 11.5t-45 33t-23 52.5t-6.5 71v301h103v-280q0 -23 2.5 -43t10.5 -34.5t23 -23t41 -8.5q28 0 51.5 7.5t42.5 19.5q8 6 17 12v350h102v-336zM301 -128h-83v80h83v-80z" />
    <glyph glyph-name="uni1EE6" unicode="&#x1ee6;" horiz-adv-x="634" 
d="M570 659v-406q0 -140 -67.5 -202t-193.5 -62t-185.5 63.5t-59.5 207.5v399h104v-414q0 -83 31.5 -128.5t108.5 -45.5q43 0 73 10.5t49 33t27.5 59t8.5 87.5v398h104zM295 714v28q0 10 2.5 20.5t10.5 20.5q4 6 11.5 12t14.5 12.5t12 13t5 14.5q0 13 -7.5 18t-25.5 5
q-26 0 -51 -15l-14 40q33 21 75 21q35 0 58 -13t23 -49q0 -16 -6 -27.5t-14.5 -20.5t-18 -17t-16.5 -17q-9 -10 -9 -29v-17h-50z" />
    <glyph glyph-name="uni1EE7" unicode="&#x1ee7;" horiz-adv-x="505" 
d="M446 122l9 -122h-95l-5 36q-13 -9 -27 -16t-28 -12q-50 -19 -99 -19q-45 0 -73.5 11.5t-45 33t-23 52.5t-6.5 71v301h103v-280q0 -23 2.5 -43t10.5 -34.5t23 -23t41 -8.5q28 0 51.5 7.5t42.5 19.5q8 6 17 12v350h102v-336zM234 510v28q0 10 2.5 20.5t10.5 20.5
q4 6 11.5 12t14.5 12.5t12 13t5 14.5q0 13 -7.5 18t-25.5 5q-26 0 -51 -15l-14 40q33 21 75 21q35 0 58 -13t23 -49q0 -16 -6 -27.5t-14.5 -20.5t-18 -17t-16.5 -17q-9 -10 -9 -29v-17h-50z" />
    <glyph glyph-name="uni1EE8" unicode="&#x1ee8;" horiz-adv-x="635" 
d="M570 540v-287q0 -140 -67.5 -202t-193.5 -62t-185.5 63.5t-59.5 207.5v399h104v-414q0 -83 31.5 -128.5t108.5 -45.5q43 0 73 10.5t49 33t27.5 59t8.5 87.5v398h104v-91q3 5 6 11q8 17 11 35q3 19 3.5 36.5t0.5 31.5h72q0 -26 -2.5 -45t-9.5 -41q-6 -20 -20 -40.5
t-27 -35.5zM443 860l-102 -124h-75l86 124h91z" />
    <glyph glyph-name="uni1EE9" unicode="&#x1ee9;" horiz-adv-x="505" 
d="M446 328v-206l9 -122h-95l-5 36q-13 -9 -27 -16t-28 -12q-50 -19 -99 -19q-45 0 -73.5 11.5t-45 33t-23 52.5t-6.5 71v301h103v-280q0 -23 2.5 -43t10.5 -34.5t23 -23t41 -8.5q28 0 51.5 7.5t42.5 19.5q8 6 17 12v350h102v-115q6 9 12 21q8 17 11 35q3 19 3.5 36.5
t0.5 31.5h72q0 -26 -2.5 -45t-9.5 -41q-6 -20 -20 -40.5t-27 -35.5zM388 653l-102 -124h-75l86 124h91z" />
    <glyph glyph-name="uni1EEA" unicode="&#x1eea;" horiz-adv-x="635" 
d="M570 540v-287q0 -140 -67.5 -202t-193.5 -62t-185.5 63.5t-59.5 207.5v399h104v-414q0 -83 31.5 -128.5t108.5 -45.5q43 0 73 10.5t49 33t27.5 59t8.5 87.5v398h104v-91q3 5 6 11q8 17 11 35q3 19 3.5 36.5t0.5 31.5h72q0 -26 -2.5 -45t-9.5 -41q-6 -20 -20 -40.5
t-27 -35.5zM288 860l86 -124h-75l-102 124h91z" />
    <glyph glyph-name="uni1EEB" unicode="&#x1eeb;" horiz-adv-x="505" 
d="M446 328v-206l9 -122h-95l-5 36q-13 -9 -27 -16t-28 -12q-50 -19 -99 -19q-45 0 -73.5 11.5t-45 33t-23 52.5t-6.5 71v301h103v-280q0 -23 2.5 -43t10.5 -34.5t23 -23t41 -8.5q28 0 51.5 7.5t42.5 19.5q8 6 17 12v350h102v-115q6 9 12 21q8 17 11 35q3 19 3.5 36.5
t0.5 31.5h72q0 -26 -2.5 -45t-9.5 -41q-6 -20 -20 -40.5t-27 -35.5zM218 653l86 -124h-75l-102 124h91z" />
    <glyph glyph-name="uni1EEC" unicode="&#x1eec;" horiz-adv-x="635" 
d="M570 540v-287q0 -140 -67.5 -202t-193.5 -62t-185.5 63.5t-59.5 207.5v399h104v-414q0 -83 31.5 -128.5t108.5 -45.5q43 0 73 10.5t49 33t27.5 59t8.5 87.5v398h104v-91q3 5 6 11q8 17 11 35q3 19 3.5 36.5t0.5 31.5h72q0 -26 -2.5 -45t-9.5 -41q-6 -20 -20 -40.5
t-27 -35.5zM295 714v28q0 10 2.5 20.5t10.5 20.5q4 6 11.5 12t14.5 12.5t12 13t5 14.5q0 13 -7.5 18t-25.5 5q-26 0 -51 -15l-14 40q33 21 75 21q35 0 58 -13t23 -49q0 -16 -6 -27.5t-14.5 -20.5t-18 -17t-16.5 -17q-9 -10 -9 -29v-17h-50z" />
    <glyph glyph-name="uni1EED" unicode="&#x1eed;" horiz-adv-x="505" 
d="M446 328v-206l9 -122h-95l-5 36q-13 -9 -27 -16t-28 -12q-50 -19 -99 -19q-45 0 -73.5 11.5t-45 33t-23 52.5t-6.5 71v301h103v-280q0 -23 2.5 -43t10.5 -34.5t23 -23t41 -8.5q28 0 51.5 7.5t42.5 19.5q8 6 17 12v350h102v-115q6 9 12 21q8 17 11 35q3 19 3.5 36.5
t0.5 31.5h72q0 -26 -2.5 -45t-9.5 -41q-6 -20 -20 -40.5t-27 -35.5zM234 510v28q0 10 2.5 20.5t10.5 20.5q4 6 11.5 12t14.5 12.5t12 13t5 14.5q0 13 -7.5 18t-25.5 5q-26 0 -51 -15l-14 40q33 21 75 21q35 0 58 -13t23 -49q0 -16 -6 -27.5t-14.5 -20.5t-18 -17t-16.5 -17
q-9 -10 -9 -29v-17h-50z" />
    <glyph glyph-name="uni1EEE" unicode="&#x1eee;" horiz-adv-x="635" 
d="M570 540v-287q0 -140 -67.5 -202t-193.5 -62t-185.5 63.5t-59.5 207.5v399h104v-414q0 -83 31.5 -128.5t108.5 -45.5q43 0 73 10.5t49 33t27.5 59t8.5 87.5v398h104v-91q3 5 6 11q8 17 11 35q3 19 3.5 36.5t0.5 31.5h72q0 -26 -2.5 -45t-9.5 -41q-6 -20 -20 -40.5
t-27 -35.5zM204 766q19 22 38 31t45 9q13 0 23.5 -3.5t20 -8t20 -8t23.5 -3.5q15 0 30.5 4.5t31.5 18.5l21 -45q-20 -22 -39 -28t-45 -6q-13 0 -23.5 3.5t-20 8t-20 8t-23.5 3.5q-14 0 -28.5 -7t-31.5 -19z" />
    <glyph glyph-name="uni1EEF" unicode="&#x1eef;" horiz-adv-x="505" 
d="M446 328v-206l9 -122h-95l-5 36q-13 -9 -27 -16t-28 -12q-50 -19 -99 -19q-45 0 -73.5 11.5t-45 33t-23 52.5t-6.5 71v301h103v-280q0 -23 2.5 -43t10.5 -34.5t23 -23t41 -8.5q28 0 51.5 7.5t42.5 19.5q8 6 17 12v350h102v-115q6 9 12 21q8 17 11 35q3 19 3.5 36.5
t0.5 31.5h72q0 -26 -2.5 -45t-9.5 -41q-6 -20 -20 -40.5t-27 -35.5zM141 573q19 22 38 31t45 9q13 0 23.5 -3.5t20 -8t20 -8t23.5 -3.5q15 0 30.5 4.5t31.5 18.5l21 -45q-20 -22 -39 -28t-45 -6q-13 0 -23.5 3.5t-20 8t-20 8t-23.5 3.5q-14 0 -28.5 -7t-31.5 -19z" />
    <glyph glyph-name="uni1EF0" unicode="&#x1ef0;" horiz-adv-x="635" 
d="M570 540v-287q0 -140 -67.5 -202t-193.5 -62t-185.5 63.5t-59.5 207.5v399h104v-414q0 -83 31.5 -128.5t108.5 -45.5q43 0 73 10.5t49 33t27.5 59t8.5 87.5v398h104v-91q3 5 6 11q8 17 11 35q3 19 3.5 36.5t0.5 31.5h72q0 -26 -2.5 -45t-9.5 -41q-6 -20 -20 -40.5
t-27 -35.5zM357 -128h-83v80h83v-80z" />
    <glyph glyph-name="uni1EF1" unicode="&#x1ef1;" horiz-adv-x="505" 
d="M446 328v-206l9 -122h-95l-5 36q-13 -9 -27 -16t-28 -12q-50 -19 -99 -19q-45 0 -73.5 11.5t-45 33t-23 52.5t-6.5 71v301h103v-280q0 -23 2.5 -43t10.5 -34.5t23 -23t41 -8.5q28 0 51.5 7.5t42.5 19.5q8 6 17 12v350h102v-115q6 9 12 21q8 17 11 35q3 19 3.5 36.5
t0.5 31.5h72q0 -26 -2.5 -45t-9.5 -41q-6 -20 -20 -40.5t-27 -35.5zM301 -128h-83v80h83v-80z" />
    <glyph glyph-name="Ygrave" unicode="&#x1ef2;" horiz-adv-x="575" 
d="M339 282v-282h-104v281q-12 19 -31.5 49t-41.5 66t-46 74.5t-46 74.5t-40.5 65.5t-30.5 48.5h122l163 -281h8l163 281h120zM236 885l114 -159h-97l-131 159h114z" />
    <glyph glyph-name="ygrave" unicode="&#x1ef3;" horiz-adv-x="454" 
d="M3 458h113l114 -338h9l108 338h104l-178 -490q-16 -44 -32.5 -79.5t-40 -61t-56.5 -39.5t-82 -14q-14 0 -29 0.5t-28 5.5l13 72q15 -4 36 -4q35 0 54.5 11.5t30.5 26.5q12 18 24 50t23 61zM177 685l114 -159h-97l-131 159h114z" />
    <glyph glyph-name="uni1EF4" unicode="&#x1ef4;" horiz-adv-x="575" 
d="M339 282v-282h-104v281q-12 19 -31.5 49t-41.5 66t-46 74.5t-46 74.5t-40.5 65.5t-30.5 48.5h122l163 -281h8l163 281h120zM329 -128h-83v80h83v-80z" />
    <glyph glyph-name="uni1EF5" unicode="&#x1ef5;" horiz-adv-x="454" 
d="M3 458h113l114 -338h9l108 338h104l-178 -490q-16 -44 -32.5 -79.5t-40 -61t-56.5 -39.5t-82 -14q-14 0 -29 0.5t-28 5.5l13 72q15 -4 36 -4q35 0 54.5 11.5t30.5 26.5q12 18 24 50t23 61zM384 -128h-83v80h83v-80z" />
    <glyph glyph-name="uni1EF6" unicode="&#x1ef6;" horiz-adv-x="575" 
d="M339 282v-282h-104v281q-12 19 -31.5 49t-41.5 66t-46 74.5t-46 74.5t-40.5 65.5t-30.5 48.5h122l163 -281h8l163 281h120zM269 714v28q0 10 2.5 20.5t10.5 20.5q4 6 11.5 12t14.5 12.5t12 13t5 14.5q0 13 -7.5 18t-25.5 5q-26 0 -51 -15l-14 40q33 21 75 21q35 0 58 -13
t23 -49q0 -16 -6 -27.5t-14.5 -20.5t-18 -17t-16.5 -17q-9 -10 -9 -29v-17h-50z" />
    <glyph glyph-name="uni1EF7" unicode="&#x1ef7;" horiz-adv-x="454" 
d="M3 458h113l114 -338h9l108 338h104l-178 -490q-16 -44 -32.5 -79.5t-40 -61t-56.5 -39.5t-82 -14q-14 0 -29 0.5t-28 5.5l13 72q15 -4 36 -4q35 0 54.5 11.5t30.5 26.5q12 18 24 50t23 61zM203 510v28q0 10 2.5 20.5t10.5 20.5q4 6 11.5 12t14.5 12.5t12 13t5 14.5
q0 13 -7.5 18t-25.5 5q-26 0 -51 -15l-14 40q33 21 75 21q35 0 58 -13t23 -49q0 -16 -6 -27.5t-14.5 -20.5t-18 -17t-16.5 -17q-9 -10 -9 -29v-17h-50z" />
    <glyph glyph-name="uni1EF8" unicode="&#x1ef8;" horiz-adv-x="575" 
d="M339 282v-282h-104v281q-12 19 -31.5 49t-41.5 66t-46 74.5t-46 74.5t-40.5 65.5t-30.5 48.5h122l163 -281h8l163 281h120zM172 766q19 22 38 31t45 9q13 0 23.5 -3.5t20 -8t20 -8t23.5 -3.5q15 0 30.5 4.5t31.5 18.5l21 -45q-20 -22 -39 -28t-45 -6q-13 0 -23.5 3.5
t-20 8t-20 8t-23.5 3.5q-14 0 -28.5 -7t-31.5 -19z" />
    <glyph glyph-name="uni1EF9" unicode="&#x1ef9;" horiz-adv-x="454" 
d="M3 458h113l114 -338h9l108 338h104l-178 -490q-16 -44 -32.5 -79.5t-40 -61t-56.5 -39.5t-82 -14q-14 0 -29 0.5t-28 5.5l13 72q15 -4 36 -4q35 0 54.5 11.5t30.5 26.5q12 18 24 50t23 61zM119 573q19 22 38 31t45 9q13 0 23.5 -3.5t20 -8t20 -8t23.5 -3.5q15 0 30.5 4.5
t31.5 18.5l21 -45q-20 -22 -39 -28t-45 -6q-13 0 -23.5 3.5t-20 8t-20 8t-23.5 3.5q-14 0 -28.5 -7t-31.5 -19z" />
    <glyph glyph-name="uni2010" unicode="&#x2010;" horiz-adv-x="564" 
d="M494 224h-425v84h425v-84z" />
    <glyph glyph-name="endash" unicode="&#x2013;" horiz-adv-x="539" 
d="M485 199h-431v82h431v-82z" />
    <glyph glyph-name="emdash" unicode="&#x2014;" horiz-adv-x="779" 
d="M756 199h-735v82h735v-82z" />
    <glyph glyph-name="quoteleft" unicode="&#x2018;" horiz-adv-x="223" 
d="M198 653q-31 -56 -41 -106t-10 -109h-95q0 43 5.5 78.5t15.5 65.5t25 57.5t35 54.5z" />
    <glyph glyph-name="quoteright" unicode="&#x2019;" horiz-adv-x="223" 
d="M33 471q31 56 41 106t10 109h95q0 -44 -5.5 -79t-15.5 -65t-25.5 -57.5t-34.5 -54.5z" />
    <glyph glyph-name="quotesinglbase" unicode="&#x201a;" horiz-adv-x="218" 
d="M12 -112q31 56 41 106t10 109h95q0 -44 -5.5 -79t-15.5 -65t-25.5 -57.5t-34.5 -54.5z" />
    <glyph glyph-name="quotedblleft" unicode="&#x201c;" horiz-adv-x="412" 
d="M198 653q-31 -56 -41 -106t-10 -109h-95q0 43 5.5 78.5t15.5 65.5t25 57.5t35 54.5zM380 653q-31 -56 -41 -106t-10 -109h-95q0 43 5.5 78.5t15.5 65.5t25 57.5t35 54.5z" />
    <glyph glyph-name="quotedblright" unicode="&#x201d;" horiz-adv-x="412" 
d="M39 471q31 56 41 106t10 109h95q0 -44 -5.5 -79t-15.5 -65t-25.5 -57.5t-34.5 -54.5zM213 471q31 56 41 106t10 109h95q0 -44 -5.5 -79t-15.5 -65t-25.5 -57.5t-34.5 -54.5z" />
    <glyph glyph-name="quotedblbase" unicode="&#x201e;" horiz-adv-x="405" 
d="M39 -112q31 56 41 106t10 109h95q0 -44 -5.5 -79t-15.5 -65t-25.5 -57.5t-34.5 -54.5zM213 -112q31 56 41 106t10 109h95q0 -44 -5.5 -79t-15.5 -65t-25.5 -57.5t-34.5 -54.5z" />
    <glyph glyph-name="dagger" unicode="&#x2020;" 
d="M525 340l-207 20l22 -230l-33 -351h-51l-32 351l21 230l-207 -20v110l207 -21l-21 230h116l-22 -230l207 21v-110z" />
    <glyph glyph-name="daggerdbl" unicode="&#x2021;" 
d="M523 -12l-205 20l22 -229h-116l21 227l-205 -18v109l205 -19l-13 140l13 142l-207 -20v110l207 -21l-21 230h116l-22 -230l207 21v-110l-207 20l13 -142l-13 -140l205 19v-109z" />
    <glyph glyph-name="bullet" unicode="&#x2022;" horiz-adv-x="290" 
d="M32 260q0 48 31 79t82 31t82 -31t31 -79t-31 -78.5t-82 -30.5t-82 30.5t-31 78.5z" />
    <glyph glyph-name="ellipsis" unicode="&#x2026;" horiz-adv-x="654" 
d="M54 103h108v-103h-108v103zM273 103h108v-103h-108v103zM491 103h109v-103h-109v103z" />
    <glyph glyph-name="perthousand" unicode="&#x2030;" horiz-adv-x="1011" 
d="M221 494q0 55 -13.5 86t-45.5 31t-46 -31t-14 -86t14 -85t46 -30t45.5 30t13.5 85zM619 166q0 55 -13 86t-46 31q-31 0 -45.5 -31t-14.5 -86q0 -115 60 -115q33 0 46 29t13 86zM161 -31h-94l478 723h95zM560 -10q-70 0 -102.5 48.5t-32.5 127.5q0 81 32.5 128.5
t102.5 47.5q69 0 101.5 -47.5t32.5 -128.5q0 -79 -33 -127.5t-101 -48.5zM162 318q-71 0 -103.5 48.5t-32.5 127.5q0 81 32 129t104 48q69 0 101.5 -48t32.5 -129q0 -79 -32.5 -127.5t-101.5 -48.5zM908 166q0 55 -13 86t-46 31q-31 0 -45.5 -31t-14.5 -86q0 -115 60 -115
q33 0 46 29t13 86zM849 -10q-70 0 -102.5 48.5t-32.5 127.5q0 81 32.5 128.5t102.5 47.5q69 0 101.5 -47.5t32.5 -128.5q0 -79 -33 -127.5t-101 -48.5z" />
    <glyph glyph-name="guilsinglleft" unicode="&#x2039;" horiz-adv-x="300" 
d="M248 373l-119 -143l118 -141l-68 -57l-164 197l165 197z" />
    <glyph glyph-name="guilsinglright" unicode="&#x203a;" horiz-adv-x="300" 
d="M52 85l119 143l-118 141l68 57l164 -197l-165 -197z" />
    <glyph glyph-name="fraction" unicode="&#x2044;" horiz-adv-x="598" 
d="M8 -32l477 723h104l-478 -723h-103z" />
    <glyph glyph-name="won" unicode="&#x20a9;" horiz-adv-x="949" 
d="M31 282h126l-21 87h-105v63h91l-52 227h102l49 -227h147l41 227h136l43 -227h149l46 227h97l-50 -227h91v-63h-105l-20 -87h125v-63h-138l-47 -219h-142l-44 219h-147l-41 -219h-140l-51 219h-140v63zM617 282h89l18 87h-124zM415 282h122l-17 87h-88zM253 282h87l16 87
h-122zM471 576l-27 -144h64l-28 144h-9zM656 82h9l28 137h-64zM296 82h8l25 137h-63z" />
    <glyph glyph-name="dong" unicode="&#x20ab;" horiz-adv-x="513" 
d="M331 631h-46v45h46v40h61v-40h50v-45h-50v-415h-57v45q-35 -54 -101 -54q-38 0 -67 15.5t-48.5 42t-30 60.5t-10.5 71q0 41 9.5 75.5t28.5 60t48 40t67 14.5q64 0 100 -50v95zM141 396q0 -63 27 -100.5t72 -37.5t70.5 36t25.5 97q0 69 -26.5 107t-72.5 38
q-45 0 -70.5 -37t-25.5 -103zM442 120h-364v45h364v-45z" />
    <glyph glyph-name="Euro" unicode="&#x20ac;" horiz-adv-x="619" 
d="M404 -11q-155 2 -224 87q-49 59 -62 157h-102l23 63h73v33v27h-95l23 64h78q15 107 70 166q78 83 223 83q48 0 94 -12t83 -38l-32 -88q-27 25 -61.5 40t-80.5 15q-102 0 -149 -68q-27 -37 -39 -98h290l-23 -64h-273q-1 -9 -1 -18v-18v-24h252l-24 -63h-221q10 -57 38 -94
q47 -62 147 -62q43 0 80.5 7t69.5 20v-91q-37 -11 -76 -17.5t-81 -6.5z" />
    <glyph glyph-name="uni2113" unicode="&#x2113;" horiz-adv-x="375" 
d="M199 418q24 17 39 40q17 27 17 68q0 43 -8 55.5t-21 12.5t-20 -13.5t-7 -54.5v-108zM109 304q-31 -6 -62 -10l-17 68q42 9 79 19v165q0 60 29 92.5t88 32.5q27 0 49.5 -7.5t38 -24.5t24 -44.5t8.5 -68.5q0 -60 -27 -101.5t-69 -68.5q-24 -15 -51 -26v-206q0 -21 6 -33
t16 -18t23 -7.5t26 -1.5v-66q-8 -2 -23 -3t-29 -1q-54 0 -81.5 34.5t-27.5 94.5v181z" />
    <glyph glyph-name="uni2116" unicode="&#x2116;" horiz-adv-x="1026" 
d="M711 324h268v-60h-268v60zM628 659v-659h-181l-263 576h-9v-576h-104v659h182l263 -577h8v577h104zM837 362q-41 0 -67.5 10.5t-42 30.5t-22 50t-6.5 69q0 84 36 121t117 37q40 0 67 -10.5t43 -30.5t22.5 -50.5t6.5 -69.5q0 -84 -36.5 -120.5t-117.5 -36.5zM837 416
q49 0 66 25t17 84q0 22 -2.5 41t-10 32.5t-20.5 21t-35 7.5q-25 0 -41 -6t-25 -19.5t-12.5 -34.5t-3.5 -50q0 -23 2.5 -42t9.5 -32t20 -20t35 -7z" />
    <glyph glyph-name="trademark" unicode="&#x2122;" horiz-adv-x="758" 
d="M103 318v280h-103v61h285v-61h-102v-280h-80zM327 659h126l40 -130l25 -114h11l25 114l37 130h124v-341h-75v167l5 109h-11l-39 -153l-32 -110h-83l-33 112l-41 151h-10l5 -109v-167h-74v341z" />
    <glyph glyph-name="estimated" unicode="&#x212e;" horiz-adv-x="844" 
d="M734 125q-30 -30 -63 -55.5t-71.5 -43.5t-82.5 -28t-95 -10q-76 0 -141 28t-113 75.5t-75.5 110t-27.5 131.5q0 70 28.5 132.5t77 110t113.5 75t138 27.5t137.5 -28t113.5 -75.5t77.5 -110t28.5 -131.5v-22h-572v-213q41 -34 95 -55.5t120 -21.5q85 0 154.5 31.5
t133.5 96.5zM422 645q-66 0 -119.5 -22t-95.5 -59v-221h430v221q-42 37 -95.5 59t-119.5 22z" />
    <glyph glyph-name="partialdiff" unicode="&#x2202;" horiz-adv-x="560" 
d="M501 263q-12 -141 -73 -208.5t-155 -67.5q-59 0 -102.5 16.5t-72 46t-41.5 70t-11 87.5q2 46 18 86.5t45.5 69t72.5 42t99 6.5q22 -3 39 -7t31.5 -11t28.5 -16t29 -22q6 105 -34 167.5t-132 96.5l28 66q61 -22 108 -52.5t77 -79t42 -119t3 -171.5zM402 263
q-28 27 -54.5 41.5t-63.5 19.5t-63 -1.5t-42.5 -23t-25 -40.5t-10.5 -53q-5 -66 27 -101t98 -35q36 0 60.5 17t40 44.5t23 62t10.5 69.5z" />
    <glyph glyph-name="Delta" unicode="&#x2206;" horiz-adv-x="656" 
d="M27 0l298 682l304 -682h-602zM325 471l-160 -383h322z" />
    <glyph glyph-name="product" unicode="&#x220f;" horiz-adv-x="730" 
d="M547 581v-581h-90v581h-186v-581h-88v581h-133v78h630v-78h-133z" />
    <glyph glyph-name="summation" unicode="&#x2211;" horiz-adv-x="523" 
d="M466 16v-76h-412l241 401l-241 378h412v-76h-261l190 -302l-193 -325h264z" />
    <glyph glyph-name="minus" unicode="&#x2212;" 
d="M493 224h-424v83h424v-83z" />
    <glyph glyph-name="radical" unicode="&#x221a;" horiz-adv-x="569" 
d="M135 322l111 -157l172 510l79 -26l-224 -669l-209 294z" />
    <glyph glyph-name="infinity" unicode="&#x221e;" horiz-adv-x="772" 
d="M558 378q69 0 111.5 -38t42.5 -107t-42.5 -107.5t-111.5 -38.5q-55 0 -97.5 27t-74.5 61q-32 -34 -74.5 -61t-97.5 -27q-69 0 -111.5 38.5t-42.5 107.5t42.5 107t111.5 38q55 0 97.5 -26.5t74.5 -60.5q32 34 74.5 60.5t97.5 26.5zM556 166q36 0 52.5 19t16.5 48
t-16.5 47.5t-52.5 18.5q-35 0 -61.5 -18.5t-55.5 -47.5q29 -29 55.5 -48t61.5 -19zM216 166q35 0 61 19t55 48q-29 29 -55 47.5t-61 18.5q-36 0 -52.5 -18.5t-16.5 -47.5t16.5 -48t52.5 -19z" />
    <glyph glyph-name="integral" unicode="&#x222b;" horiz-adv-x="405" 
d="M257 -45q0 -91 -39 -136t-111 -45q-17 0 -34 4t-34 10l16 72q15 -4 26.5 -6t23.5 -2q36 0 48.5 26.5t12.5 81.5v546q0 87 33.5 134t93.5 47q17 0 39 -5t41 -13l-21 -71q-29 13 -56 13q-23 0 -31 -31.5t-8 -79.5v-545z" />
    <glyph glyph-name="approxequal" unicode="&#x2248;" 
d="M485 393q-30 -29 -60 -46.5t-72 -17.5q-18 0 -36.5 5t-50.5 19q-16 7 -29.5 12.5t-26.5 5.5q-22 0 -42 -7.5t-49 -30.5l-44 57q31 27 63 45t72 18q18 0 35 -4t40 -15q26 -11 40 -17t28 -6q24 0 43.5 9t42.5 30zM485 242q-30 -29 -60 -46.5t-72 -17.5q-18 0 -36.5 5
t-50.5 19q-16 7 -29.5 12.5t-26.5 5.5q-22 0 -42 -7.5t-49 -30.5l-44 57q31 27 63 45t72 18q18 0 35 -4t40 -15q26 -11 40 -17t28 -6q24 0 43.5 9t42.5 30z" />
    <glyph glyph-name="notequal" unicode="&#x2260;" 
d="M313 287h180v-82h-227l-54 -94l-73 41l31 53h-101v82h148l33 58h-181v81h228l51 89l73 -41l-28 -48h100v-81h-146z" />
    <glyph glyph-name="lessequal" unicode="&#x2264;" horiz-adv-x="537" 
d="M479 0h-421v77h421v-77zM428 101l-382 197l381 200l41 -68l-254 -132l254 -129z" />
    <glyph glyph-name="greaterequal" unicode="&#x2265;" horiz-adv-x="537" 
d="M58 77h421v-77h-421v77zM69 169l254 129l-254 132l41 68l381 -200l-382 -197z" />
    <glyph glyph-name="lozenge" unicode="&#x25ca;" horiz-adv-x="644" 
d="M43 333l279 348l279 -348l-279 -348zM504 333l-182 232l-182 -232l182 -230z" />
    <glyph glyph-name="uniF6C1" unicode="&#xf6c1;" horiz-adv-x="536" 
d="M340 248q-20 10 -43 19t-47.5 18t-49 18.5t-45.5 20.5q-27 13 -48 27.5t-35 34t-21.5 44.5t-7.5 60q0 43 17.5 76.5t49.5 56.5t76.5 34.5t99.5 11.5q54 0 106.5 -10.5t97.5 -34.5l-36 -78q-30 15 -73.5 27.5t-94.5 12.5q-69 0 -103.5 -23.5t-34.5 -65.5q0 -32 18 -52.5
t46 -33.5q36 -18 85.5 -35t93.5 -39q23 -12 43 -25.5t34.5 -32.5t23 -45t8.5 -62q0 -44 -17.5 -78t-49.5 -57t-77.5 -35.5t-100.5 -12.5q-57 0 -114 12.5t-105 37.5l39 79q45 -22 87 -32.5t90 -10.5q76 0 110 25.5t34 65.5q0 30 -16.5 50t-39.5 32zM163 -149q17 -6 33 -9
t34 -3q29 0 44 8.5t15 30.5q0 27 -20.5 36t-76.5 15l21 54q88 -5 129.5 -27t41.5 -77q0 -57 -34 -81t-109 -24q-29 0 -56 5t-46 13z" />
    <glyph glyph-name="uniF6C2" unicode="&#xf6c2;" horiz-adv-x="433" 
d="M193 289q8 -4 22 -9l28 -10l57 -19q43 -12 72.5 -40.5t29.5 -81.5q0 -72 -51.5 -106t-145.5 -34q-52 0 -95.5 8.5t-78.5 24.5l32 74q56 -31 142 -31q42 0 69.5 11t27.5 43q0 36 -58 58q-27 8 -56 17.5t-53 18.5q-41 14 -69 41t-28 79q0 36 15 61.5t41 42t61 24.5t75 8
q55 0 95.5 -8.5t72.5 -21.5l-32 -74q-56 29 -136 29q-49 0 -72 -14t-23 -37q0 -18 13.5 -30t44.5 -24zM117 -149q17 -6 33 -9t34 -3q29 0 44 8.5t15 30.5q0 27 -20.5 36t-76.5 15l21 54q88 -5 129.5 -27t41.5 -77q0 -57 -34 -81t-109 -24q-29 0 -56 5t-46 13z" />
    <glyph glyph-name="commaaccent" unicode="&#xf6c3;" horiz-adv-x="356" 
d="M82 -245q33 44 44 87.5t11 102.5h94q0 -73 -21 -130.5t-67 -108.5z" />
    <glyph glyph-name="apple" unicode="&#xf8ff;" horiz-adv-x="851" 
d="M438 333v-333h-333v666h666v-333h-333z" />
    <glyph glyph-name="Acute" horiz-adv-x="322" 
d="M277 885l-132 -159h-98l115 159h115z" />
    <glyph glyph-name="Breve" horiz-adv-x="448" 
d="M381 884q0 -81 -37 -122.5t-122 -41.5t-121.5 41t-36.5 123h79q3 -43 19.5 -69t59.5 -26q44 0 60.5 26t19.5 69h79z" />
    <glyph glyph-name="Caron" horiz-adv-x="477" 
d="M172 726l-104 159h92l74 -105h10l77 105h89l-107 -159h-131z" />
    <glyph glyph-name="Circumflex" horiz-adv-x="418" 
d="M275 885l104 -159h-93l-73 106h-10l-77 -106h-89l106 159h132z" />
    <glyph glyph-name="Dieresis" horiz-adv-x="450" 
d="M180 750h-101v92h101v-92zM369 750h-101v92h101v-92z" />
    <glyph glyph-name="Dotaccent" horiz-adv-x="256" 
d="M180 751h-104v92h104v-92z" />
    <glyph glyph-name="Grave" horiz-adv-x="322" 
d="M160 885l114 -159h-97l-131 159h114z" />
    <glyph glyph-name="Hungarumlaut" horiz-adv-x="457" 
d="M248 886l-132 -159h-89l114 159h107zM439 886l-133 -159h-89l114 159h108z" />
    <glyph glyph-name="Macron" horiz-adv-x="469" 
d="M384 768h-300v79h300v-79z" />
    <glyph glyph-name="Ring" horiz-adv-x="324" 
d="M157 709q-58 0 -81.5 28.5t-23.5 73.5q0 49 29 75.5t86 26.5q58 0 82 -29t24 -74q0 -49 -29 -75t-87 -26zM160 767q46 0 46 44q0 43 -41 43q-48 0 -48 -44q0 -21 10 -32t33 -11z" />
    <glyph glyph-name="Tilde" horiz-adv-x="437" 
d="M43 814q19 20 48.5 34t63.5 14q20 0 36.5 -5t31 -11.5t29 -11.5t30.5 -5q24 0 43.5 9.5t38.5 21.5l30 -61q-22 -21 -50.5 -35t-62.5 -14q-21 0 -37 5t-31 11.5t-29.5 11.5t-30.5 5q-23 0 -42.5 -9t-37.5 -20z" />
    <glyph glyph-name="a.salt" horiz-adv-x="473" 
d="M459 -1q-17 -3 -38 -3q-36 0 -58 12.5t-34 35.5q-25 -22 -64.5 -38.5t-82.5 -16.5q-46 0 -75 11.5t-46 31t-23.5 45.5t-6.5 55q0 44 14.5 72t41 44t63.5 22t81 6q41 0 82 -3v22q0 54 -21 76.5t-79 22.5q-40 0 -76.5 -10t-63.5 -24l-23 65q37 18 86 31t103 13
q50 0 84 -9.5t54.5 -32t29.5 -59t9 -90.5v-153q0 -32 11 -43.5t32 -11.5v-71zM229 205q-52 0 -71.5 -17.5t-19.5 -52.5q0 -36 15.5 -54.5t55.5 -18.5q25 0 53.5 11t50.5 30v97q-22 4 -42.5 4.5t-41.5 0.5z" />
    <glyph glyph-name="y.salt" horiz-adv-x="454" 
d="M3 458h113l114 -338h9l108 338h104l-178 -490q-16 -44 -32.5 -79.5t-40 -61t-56.5 -39.5t-82 -14q-14 0 -29 0.5t-28 5.5l13 72q15 -4 36 -4q35 0 54.5 11.5t30.5 26.5q12 18 24 50t23 61z" />
    <glyph glyph-name="aacute.salt" horiz-adv-x="472" 
d="M459 -1q-17 -3 -38 -3q-36 0 -58 12.5t-34 35.5q-25 -22 -64.5 -38.5t-82.5 -16.5q-46 0 -75 11.5t-46 31t-23.5 45.5t-6.5 55q0 44 14.5 72t41 44t63.5 22t81 6q41 0 82 -3v22q0 54 -21 76.5t-79 22.5q-40 0 -76.5 -10t-63.5 -24l-23 65q37 18 86 31t103 13
q50 0 84 -9.5t54.5 -32t29.5 -59t9 -90.5v-153q0 -32 11 -43.5t32 -11.5v-71zM229 205q-52 0 -71.5 -17.5t-19.5 -52.5q0 -36 15.5 -54.5t55.5 -18.5q25 0 53.5 11t50.5 30v97q-22 4 -42.5 4.5t-41.5 0.5zM385 685l-132 -159h-98l115 159h115z" />
    <glyph glyph-name="abreve.salt" horiz-adv-x="472" 
d="M459 -1q-17 -3 -38 -3q-36 0 -58 12.5t-34 35.5q-25 -22 -64.5 -38.5t-82.5 -16.5q-46 0 -75 11.5t-46 31t-23.5 45.5t-6.5 55q0 44 14.5 72t41 44t63.5 22t81 6q41 0 82 -3v22q0 54 -21 76.5t-79 22.5q-40 0 -76.5 -10t-63.5 -24l-23 65q37 18 86 31t103 13
q50 0 84 -9.5t54.5 -32t29.5 -59t9 -90.5v-153q0 -32 11 -43.5t32 -11.5v-71zM229 205q-52 0 -71.5 -17.5t-19.5 -52.5q0 -36 15.5 -54.5t55.5 -18.5q25 0 53.5 11t50.5 30v97q-22 4 -42.5 4.5t-41.5 0.5zM389 685q0 -81 -37 -122.5t-122 -41.5t-121.5 41t-36.5 123h79
q3 -43 19.5 -69t59.5 -26q44 0 60.5 26t19.5 69h79z" />
    <glyph glyph-name="acircumflex.salt" horiz-adv-x="472" 
d="M459 -1q-17 -3 -38 -3q-36 0 -58 12.5t-34 35.5q-25 -22 -64.5 -38.5t-82.5 -16.5q-46 0 -75 11.5t-46 31t-23.5 45.5t-6.5 55q0 44 14.5 72t41 44t63.5 22t81 6q41 0 82 -3v22q0 54 -21 76.5t-79 22.5q-40 0 -76.5 -10t-63.5 -24l-23 65q37 18 86 31t103 13
q50 0 84 -9.5t54.5 -32t29.5 -59t9 -90.5v-153q0 -32 11 -43.5t32 -11.5v-71zM229 205q-52 0 -71.5 -17.5t-19.5 -52.5q0 -36 15.5 -54.5t55.5 -18.5q25 0 53.5 11t50.5 30v97q-22 4 -42.5 4.5t-41.5 0.5zM302 685l104 -159h-93l-73 106h-10l-77 -106h-89l106 159h132z" />
    <glyph glyph-name="adieresis.salt" horiz-adv-x="472" 
d="M459 -1q-17 -3 -38 -3q-36 0 -58 12.5t-34 35.5q-25 -22 -64.5 -38.5t-82.5 -16.5q-46 0 -75 11.5t-46 31t-23.5 45.5t-6.5 55q0 44 14.5 72t41 44t63.5 22t81 6q41 0 82 -3v22q0 54 -21 76.5t-79 22.5q-40 0 -76.5 -10t-63.5 -24l-23 65q37 18 86 31t103 13
q50 0 84 -9.5t54.5 -32t29.5 -59t9 -90.5v-153q0 -32 11 -43.5t32 -11.5v-71zM229 205q-52 0 -71.5 -17.5t-19.5 -52.5q0 -36 15.5 -54.5t55.5 -18.5q25 0 53.5 11t50.5 30v97q-22 4 -42.5 4.5t-41.5 0.5zM192 560h-101v92h101v-92zM381 560h-101v92h101v-92z" />
    <glyph glyph-name="agrave.salt" horiz-adv-x="472" 
d="M459 -1q-17 -3 -38 -3q-36 0 -58 12.5t-34 35.5q-25 -22 -64.5 -38.5t-82.5 -16.5q-46 0 -75 11.5t-46 31t-23.5 45.5t-6.5 55q0 44 14.5 72t41 44t63.5 22t81 6q41 0 82 -3v22q0 54 -21 76.5t-79 22.5q-40 0 -76.5 -10t-63.5 -24l-23 65q37 18 86 31t103 13
q50 0 84 -9.5t54.5 -32t29.5 -59t9 -90.5v-153q0 -32 11 -43.5t32 -11.5v-71zM229 205q-52 0 -71.5 -17.5t-19.5 -52.5q0 -36 15.5 -54.5t55.5 -18.5q25 0 53.5 11t50.5 30v97q-22 4 -42.5 4.5t-41.5 0.5zM202 685l114 -159h-97l-131 159h114z" />
    <glyph glyph-name="amacron.salt" horiz-adv-x="472" 
d="M459 -1q-17 -3 -38 -3q-36 0 -58 12.5t-34 35.5q-25 -22 -64.5 -38.5t-82.5 -16.5q-46 0 -75 11.5t-46 31t-23.5 45.5t-6.5 55q0 44 14.5 72t41 44t63.5 22t81 6q41 0 82 -3v22q0 54 -21 76.5t-79 22.5q-40 0 -76.5 -10t-63.5 -24l-23 65q37 18 86 31t103 13
q50 0 84 -9.5t54.5 -32t29.5 -59t9 -90.5v-153q0 -32 11 -43.5t32 -11.5v-71zM229 205q-52 0 -71.5 -17.5t-19.5 -52.5q0 -36 15.5 -54.5t55.5 -18.5q25 0 53.5 11t50.5 30v97q-22 4 -42.5 4.5t-41.5 0.5zM392 568h-300v79h300v-79z" />
    <glyph glyph-name="aogonek.salt" horiz-adv-x="472" 
d="M229 205q-52 0 -71.5 -17.5t-19.5 -52.5q0 -36 15.5 -54.5t55.5 -18.5q25 0 53.5 11t50.5 30v97q-22 4 -42.5 4.5t-41.5 0.5zM459 -1q-18 -10 -33 -19t-30 -20q-22 -18 -29.5 -34t-7.5 -36q0 -46 49 -46q29 0 51 8l19 -58q-19 -8 -45.5 -13t-53.5 -5q-63 0 -90.5 23
t-27.5 74q0 37 19 65t71 57q10 5 20 9q-4 2 -8 5q-22 12 -34 35q-25 -22 -64.5 -38.5t-82.5 -16.5q-46 0 -75 11.5t-46 31t-23.5 45.5t-6.5 55q0 44 14.5 72t41 44t63.5 22t81 6q41 0 82 -3v22q0 54 -21 76.5t-79 22.5q-40 0 -76.5 -10t-63.5 -24l-23 65q37 18 86 31t103 13
q50 0 84 -9.5t54.5 -32t29.5 -59t9 -90.5v-153q0 -32 11 -43.5t32 -11.5v-71z" />
    <glyph glyph-name="aring.salt" horiz-adv-x="472" 
d="M459 -1q-17 -3 -38 -3q-36 0 -58 12.5t-34 35.5q-25 -22 -64.5 -38.5t-82.5 -16.5q-46 0 -75 11.5t-46 31t-23.5 45.5t-6.5 55q0 44 14.5 72t41 44t63.5 22t81 6q41 0 82 -3v22q0 54 -21 76.5t-79 22.5q-40 0 -76.5 -10t-63.5 -24l-23 65q37 18 86 31t103 13
q50 0 84 -9.5t54.5 -32t29.5 -59t9 -90.5v-153q0 -32 11 -43.5t32 -11.5v-71zM229 205q-52 0 -71.5 -17.5t-19.5 -52.5q0 -36 15.5 -54.5t55.5 -18.5q25 0 53.5 11t50.5 30v97q-22 4 -42.5 4.5t-41.5 0.5zM233 510q-58 0 -81.5 28.5t-23.5 73.5q0 49 29 75.5t86 26.5
q58 0 82 -29t24 -74q0 -49 -29 -75t-87 -26zM236 568q46 0 46 44q0 43 -41 43q-48 0 -48 -44q0 -21 10 -32t33 -11z" />
    <glyph glyph-name="aringacute.salt" horiz-adv-x="473" 
d="M459 -1q-17 -3 -38 -3q-36 0 -58 12.5t-34 35.5q-25 -22 -64.5 -38.5t-82.5 -16.5q-46 0 -75 11.5t-46 31t-23.5 45.5t-6.5 55q0 44 14.5 72t41 44t63.5 22t81 6q41 0 82 -3v22q0 54 -21 76.5t-79 22.5q-40 0 -76.5 -10t-63.5 -24l-23 65q37 18 86 31t103 13
q50 0 84 -9.5t54.5 -32t29.5 -59t9 -90.5v-153q0 -32 11 -43.5t32 -11.5v-71zM229 205q-52 0 -71.5 -17.5t-19.5 -52.5q0 -36 15.5 -54.5t55.5 -18.5q25 0 53.5 11t50.5 30v97q-22 4 -42.5 4.5t-41.5 0.5zM239 491q-49 0 -72 24t-23 62q0 84 95 84q48 0 70.5 -23t22.5 -61
q0 -41 -24 -63.5t-69 -22.5zM239 550q26 0 26 27q0 26 -26 26q-28 0 -28 -26q0 -27 28 -27zM355 796l-89 -108h-86l79 108h96z" />
    <glyph glyph-name="atilde.salt" horiz-adv-x="472" 
d="M459 -1q-17 -3 -38 -3q-36 0 -58 12.5t-34 35.5q-25 -22 -64.5 -38.5t-82.5 -16.5q-46 0 -75 11.5t-46 31t-23.5 45.5t-6.5 55q0 44 14.5 72t41 44t63.5 22t81 6q41 0 82 -3v22q0 54 -21 76.5t-79 22.5q-40 0 -76.5 -10t-63.5 -24l-23 65q37 18 86 31t103 13
q50 0 84 -9.5t54.5 -32t29.5 -59t9 -90.5v-153q0 -32 11 -43.5t32 -11.5v-71zM229 205q-52 0 -71.5 -17.5t-19.5 -52.5q0 -36 15.5 -54.5t55.5 -18.5q25 0 53.5 11t50.5 30v97q-22 4 -42.5 4.5t-41.5 0.5zM55 614q19 20 48.5 34t63.5 14q20 0 36.5 -5t31 -11.5t29 -11.5
t30.5 -5q24 0 43.5 9.5t38.5 21.5l30 -61q-22 -21 -50.5 -35t-62.5 -14q-21 0 -37 5t-31 11.5t-29.5 11.5t-30.5 5q-23 0 -42.5 -9t-37.5 -20z" />
    <glyph glyph-name="yacute.salt" horiz-adv-x="454" 
d="M3 458h113l114 -338h9l108 338h104l-178 -490q-16 -44 -32.5 -79.5t-40 -61t-56.5 -39.5t-82 -14q-14 0 -29 0.5t-28 5.5l13 72q15 -4 36 -4q35 0 54.5 11.5t30.5 26.5q12 18 24 50t23 61zM406 685l-132 -159h-98l115 159h115z" />
    <glyph glyph-name="ycircumflex.salt" horiz-adv-x="454" 
d="M3 458h113l114 -338h9l108 338h104l-178 -490q-16 -44 -32.5 -79.5t-40 -61t-56.5 -39.5t-82 -14q-14 0 -29 0.5t-28 5.5l13 72q15 -4 36 -4q35 0 54.5 11.5t30.5 26.5q12 18 24 50t23 61zM301 685l104 -159h-93l-73 106h-10l-77 -106h-89l106 159h132z" />
    <glyph glyph-name="ydieresis.salt" horiz-adv-x="454" 
d="M3 458h113l114 -338h9l108 338h104l-178 -490q-16 -44 -32.5 -79.5t-40 -61t-56.5 -39.5t-82 -14q-14 0 -29 0.5t-28 5.5l13 72q15 -4 36 -4q35 0 54.5 11.5t30.5 26.5q12 18 24 50t23 61zM186 560h-101v92h101v-92zM375 560h-101v92h101v-92z" />
    <glyph glyph-name="ygrave.salt" horiz-adv-x="454" 
d="M3 458h113l114 -338h9l108 338h104l-178 -490q-16 -44 -32.5 -79.5t-40 -61t-56.5 -39.5t-82 -14q-14 0 -29 0.5t-28 5.5l13 72q15 -4 36 -4q35 0 54.5 11.5t30.5 26.5q12 18 24 50t23 61zM177 685l114 -159h-97l-131 159h114z" />
    <glyph glyph-name="a.swsh" horiz-adv-x="473" 
d="M459 -1q-17 -3 -38 -3q-36 0 -58 12.5t-34 35.5q-25 -22 -64.5 -38.5t-82.5 -16.5q-46 0 -75 11.5t-46 31t-23.5 45.5t-6.5 55q0 44 14.5 72t41 44t63.5 22t81 6q41 0 82 -3v22q0 54 -21 76.5t-79 22.5q-40 0 -76.5 -10t-63.5 -24l-23 65q37 18 86 31t103 13
q50 0 84 -9.5t54.5 -32t29.5 -59t9 -90.5v-153q0 -32 11 -43.5t32 -11.5v-71zM229 205q-52 0 -71.5 -17.5t-19.5 -52.5q0 -36 15.5 -54.5t55.5 -18.5q25 0 53.5 11t50.5 30v97q-22 4 -42.5 4.5t-41.5 0.5z" />
    <glyph glyph-name="y.swsh" horiz-adv-x="454" 
d="M3 458h113l114 -338h9l108 338h104l-178 -490q-16 -44 -32.5 -79.5t-40 -61t-56.5 -39.5t-82 -14q-14 0 -29 0.5t-28 5.5l13 72q15 -4 36 -4q35 0 54.5 11.5t30.5 26.5q12 18 24 50t23 61z" />
    <glyph glyph-name="aacute.swsh" horiz-adv-x="472" 
d="M459 -1q-17 -3 -38 -3q-36 0 -58 12.5t-34 35.5q-25 -22 -64.5 -38.5t-82.5 -16.5q-46 0 -75 11.5t-46 31t-23.5 45.5t-6.5 55q0 44 14.5 72t41 44t63.5 22t81 6q41 0 82 -3v22q0 54 -21 76.5t-79 22.5q-40 0 -76.5 -10t-63.5 -24l-23 65q37 18 86 31t103 13
q50 0 84 -9.5t54.5 -32t29.5 -59t9 -90.5v-153q0 -32 11 -43.5t32 -11.5v-71zM229 205q-52 0 -71.5 -17.5t-19.5 -52.5q0 -36 15.5 -54.5t55.5 -18.5q25 0 53.5 11t50.5 30v97q-22 4 -42.5 4.5t-41.5 0.5zM385 685l-132 -159h-98l115 159h115z" />
    <glyph glyph-name="abreve.swsh" horiz-adv-x="472" 
d="M459 -1q-17 -3 -38 -3q-36 0 -58 12.5t-34 35.5q-25 -22 -64.5 -38.5t-82.5 -16.5q-46 0 -75 11.5t-46 31t-23.5 45.5t-6.5 55q0 44 14.5 72t41 44t63.5 22t81 6q41 0 82 -3v22q0 54 -21 76.5t-79 22.5q-40 0 -76.5 -10t-63.5 -24l-23 65q37 18 86 31t103 13
q50 0 84 -9.5t54.5 -32t29.5 -59t9 -90.5v-153q0 -32 11 -43.5t32 -11.5v-71zM229 205q-52 0 -71.5 -17.5t-19.5 -52.5q0 -36 15.5 -54.5t55.5 -18.5q25 0 53.5 11t50.5 30v97q-22 4 -42.5 4.5t-41.5 0.5zM389 685q0 -81 -37 -122.5t-122 -41.5t-121.5 41t-36.5 123h79
q3 -43 19.5 -69t59.5 -26q44 0 60.5 26t19.5 69h79z" />
    <glyph glyph-name="acircumflex.swsh" horiz-adv-x="472" 
d="M459 -1q-17 -3 -38 -3q-36 0 -58 12.5t-34 35.5q-25 -22 -64.5 -38.5t-82.5 -16.5q-46 0 -75 11.5t-46 31t-23.5 45.5t-6.5 55q0 44 14.5 72t41 44t63.5 22t81 6q41 0 82 -3v22q0 54 -21 76.5t-79 22.5q-40 0 -76.5 -10t-63.5 -24l-23 65q37 18 86 31t103 13
q50 0 84 -9.5t54.5 -32t29.5 -59t9 -90.5v-153q0 -32 11 -43.5t32 -11.5v-71zM229 205q-52 0 -71.5 -17.5t-19.5 -52.5q0 -36 15.5 -54.5t55.5 -18.5q25 0 53.5 11t50.5 30v97q-22 4 -42.5 4.5t-41.5 0.5zM302 685l104 -159h-93l-73 106h-10l-77 -106h-89l106 159h132z" />
    <glyph glyph-name="adieresis.swsh" horiz-adv-x="472" 
d="M459 -1q-17 -3 -38 -3q-36 0 -58 12.5t-34 35.5q-25 -22 -64.5 -38.5t-82.5 -16.5q-46 0 -75 11.5t-46 31t-23.5 45.5t-6.5 55q0 44 14.5 72t41 44t63.5 22t81 6q41 0 82 -3v22q0 54 -21 76.5t-79 22.5q-40 0 -76.5 -10t-63.5 -24l-23 65q37 18 86 31t103 13
q50 0 84 -9.5t54.5 -32t29.5 -59t9 -90.5v-153q0 -32 11 -43.5t32 -11.5v-71zM229 205q-52 0 -71.5 -17.5t-19.5 -52.5q0 -36 15.5 -54.5t55.5 -18.5q25 0 53.5 11t50.5 30v97q-22 4 -42.5 4.5t-41.5 0.5zM192 560h-101v92h101v-92zM381 560h-101v92h101v-92z" />
    <glyph glyph-name="agrave.swsh" horiz-adv-x="472" 
d="M459 -1q-17 -3 -38 -3q-36 0 -58 12.5t-34 35.5q-25 -22 -64.5 -38.5t-82.5 -16.5q-46 0 -75 11.5t-46 31t-23.5 45.5t-6.5 55q0 44 14.5 72t41 44t63.5 22t81 6q41 0 82 -3v22q0 54 -21 76.5t-79 22.5q-40 0 -76.5 -10t-63.5 -24l-23 65q37 18 86 31t103 13
q50 0 84 -9.5t54.5 -32t29.5 -59t9 -90.5v-153q0 -32 11 -43.5t32 -11.5v-71zM229 205q-52 0 -71.5 -17.5t-19.5 -52.5q0 -36 15.5 -54.5t55.5 -18.5q25 0 53.5 11t50.5 30v97q-22 4 -42.5 4.5t-41.5 0.5zM202 685l114 -159h-97l-131 159h114z" />
    <glyph glyph-name="amacron.swsh" horiz-adv-x="472" 
d="M459 -1q-17 -3 -38 -3q-36 0 -58 12.5t-34 35.5q-25 -22 -64.5 -38.5t-82.5 -16.5q-46 0 -75 11.5t-46 31t-23.5 45.5t-6.5 55q0 44 14.5 72t41 44t63.5 22t81 6q41 0 82 -3v22q0 54 -21 76.5t-79 22.5q-40 0 -76.5 -10t-63.5 -24l-23 65q37 18 86 31t103 13
q50 0 84 -9.5t54.5 -32t29.5 -59t9 -90.5v-153q0 -32 11 -43.5t32 -11.5v-71zM229 205q-52 0 -71.5 -17.5t-19.5 -52.5q0 -36 15.5 -54.5t55.5 -18.5q25 0 53.5 11t50.5 30v97q-22 4 -42.5 4.5t-41.5 0.5zM392 568h-300v79h300v-79z" />
    <glyph glyph-name="aogonek.swsh" horiz-adv-x="472" 
d="M229 205q-52 0 -71.5 -17.5t-19.5 -52.5q0 -36 15.5 -54.5t55.5 -18.5q25 0 53.5 11t50.5 30v97q-22 4 -42.5 4.5t-41.5 0.5zM459 -1q-18 -10 -33 -19t-30 -20q-22 -18 -29.5 -34t-7.5 -36q0 -46 49 -46q29 0 51 8l19 -58q-19 -8 -45.5 -13t-53.5 -5q-63 0 -90.5 23
t-27.5 74q0 37 19 65t71 57q10 5 20 9q-4 2 -8 5q-22 12 -34 35q-25 -22 -64.5 -38.5t-82.5 -16.5q-46 0 -75 11.5t-46 31t-23.5 45.5t-6.5 55q0 44 14.5 72t41 44t63.5 22t81 6q41 0 82 -3v22q0 54 -21 76.5t-79 22.5q-40 0 -76.5 -10t-63.5 -24l-23 65q37 18 86 31t103 13
q50 0 84 -9.5t54.5 -32t29.5 -59t9 -90.5v-153q0 -32 11 -43.5t32 -11.5v-71z" />
    <glyph glyph-name="aring.swsh" horiz-adv-x="472" 
d="M459 -1q-17 -3 -38 -3q-36 0 -58 12.5t-34 35.5q-25 -22 -64.5 -38.5t-82.5 -16.5q-46 0 -75 11.5t-46 31t-23.5 45.5t-6.5 55q0 44 14.5 72t41 44t63.5 22t81 6q41 0 82 -3v22q0 54 -21 76.5t-79 22.5q-40 0 -76.5 -10t-63.5 -24l-23 65q37 18 86 31t103 13
q50 0 84 -9.5t54.5 -32t29.5 -59t9 -90.5v-153q0 -32 11 -43.5t32 -11.5v-71zM229 205q-52 0 -71.5 -17.5t-19.5 -52.5q0 -36 15.5 -54.5t55.5 -18.5q25 0 53.5 11t50.5 30v97q-22 4 -42.5 4.5t-41.5 0.5zM233 510q-58 0 -81.5 28.5t-23.5 73.5q0 49 29 75.5t86 26.5
q58 0 82 -29t24 -74q0 -49 -29 -75t-87 -26zM236 568q46 0 46 44q0 43 -41 43q-48 0 -48 -44q0 -21 10 -32t33 -11z" />
    <glyph glyph-name="aringacute.swsh" horiz-adv-x="473" 
d="M459 -1q-17 -3 -38 -3q-36 0 -58 12.5t-34 35.5q-25 -22 -64.5 -38.5t-82.5 -16.5q-46 0 -75 11.5t-46 31t-23.5 45.5t-6.5 55q0 44 14.5 72t41 44t63.5 22t81 6q41 0 82 -3v22q0 54 -21 76.5t-79 22.5q-40 0 -76.5 -10t-63.5 -24l-23 65q37 18 86 31t103 13
q50 0 84 -9.5t54.5 -32t29.5 -59t9 -90.5v-153q0 -32 11 -43.5t32 -11.5v-71zM229 205q-52 0 -71.5 -17.5t-19.5 -52.5q0 -36 15.5 -54.5t55.5 -18.5q25 0 53.5 11t50.5 30v97q-22 4 -42.5 4.5t-41.5 0.5zM239 491q-49 0 -72 24t-23 62q0 84 95 84q48 0 70.5 -23t22.5 -61
q0 -41 -24 -63.5t-69 -22.5zM239 550q26 0 26 27q0 26 -26 26q-28 0 -28 -26q0 -27 28 -27zM355 796l-89 -108h-86l79 108h96z" />
    <glyph glyph-name="atilde.swsh" horiz-adv-x="472" 
d="M459 -1q-17 -3 -38 -3q-36 0 -58 12.5t-34 35.5q-25 -22 -64.5 -38.5t-82.5 -16.5q-46 0 -75 11.5t-46 31t-23.5 45.5t-6.5 55q0 44 14.5 72t41 44t63.5 22t81 6q41 0 82 -3v22q0 54 -21 76.5t-79 22.5q-40 0 -76.5 -10t-63.5 -24l-23 65q37 18 86 31t103 13
q50 0 84 -9.5t54.5 -32t29.5 -59t9 -90.5v-153q0 -32 11 -43.5t32 -11.5v-71zM229 205q-52 0 -71.5 -17.5t-19.5 -52.5q0 -36 15.5 -54.5t55.5 -18.5q25 0 53.5 11t50.5 30v97q-22 4 -42.5 4.5t-41.5 0.5zM55 614q19 20 48.5 34t63.5 14q20 0 36.5 -5t31 -11.5t29 -11.5
t30.5 -5q24 0 43.5 9.5t38.5 21.5l30 -61q-22 -21 -50.5 -35t-62.5 -14q-21 0 -37 5t-31 11.5t-29.5 11.5t-30.5 5q-23 0 -42.5 -9t-37.5 -20z" />
    <glyph glyph-name="yacute.swsh" horiz-adv-x="454" 
d="M3 458h113l114 -338h9l108 338h104l-178 -490q-16 -44 -32.5 -79.5t-40 -61t-56.5 -39.5t-82 -14q-14 0 -29 0.5t-28 5.5l13 72q15 -4 36 -4q35 0 54.5 11.5t30.5 26.5q12 18 24 50t23 61zM406 685l-132 -159h-98l115 159h115z" />
    <glyph glyph-name="ycircumflex.swsh" horiz-adv-x="454" 
d="M3 458h113l114 -338h9l108 338h104l-178 -490q-16 -44 -32.5 -79.5t-40 -61t-56.5 -39.5t-82 -14q-14 0 -29 0.5t-28 5.5l13 72q15 -4 36 -4q35 0 54.5 11.5t30.5 26.5q12 18 24 50t23 61zM301 685l104 -159h-93l-73 106h-10l-77 -106h-89l106 159h132z" />
    <glyph glyph-name="ydieresis.swsh" horiz-adv-x="454" 
d="M3 458h113l114 -338h9l108 338h104l-178 -490q-16 -44 -32.5 -79.5t-40 -61t-56.5 -39.5t-82 -14q-14 0 -29 0.5t-28 5.5l13 72q15 -4 36 -4q35 0 54.5 11.5t30.5 26.5q12 18 24 50t23 61zM186 560h-101v92h101v-92zM375 560h-101v92h101v-92z" />
    <glyph glyph-name="ygrave.swsh" horiz-adv-x="454" 
d="M3 458h113l114 -338h9l108 338h104l-178 -490q-16 -44 -32.5 -79.5t-40 -61t-56.5 -39.5t-82 -14q-14 0 -29 0.5t-28 5.5l13 72q15 -4 36 -4q35 0 54.5 11.5t30.5 26.5q12 18 24 50t23 61zM177 685l114 -159h-97l-131 159h114z" />
    <glyph glyph-name="minus.onum" 
d="M493 224h-424v83h424v-83z" />
    <glyph glyph-name="multiply.onum" 
d="M433 50l-151 151l-152 -151l-65 64l152 151l-152 153l65 64l152 -152l151 152l64 -64l-151 -153l151 -151z" />
    <glyph glyph-name="numbersign.onum" horiz-adv-x="533" 
d="M469 320h-78v-108h78v-71h-78v-67h-77v67h-96v-67h-77v67h-78v71h78v108h-78v71h78v67h77v-67h96v67h77v-67h78v-71zM218 212h96v108h-96v-108z" />
    <glyph glyph-name="dollar.onum" horiz-adv-x="532" 
d="M239 754h64v-87q44 -1 90 -11q53 -9 97 -32l-37 -78q-33 16 -74 26q-36 11 -76 12v-210l43 -17q11 -5 22.5 -10t22.5 -10q22 -12 42 -25.5t34.5 -32.5t23 -45t8.5 -62q0 -89 -67 -135q-51 -36 -129 -45v-81h-64v79q-47 2 -98 12q-59 12 -106 37l39 79q43 -20 87 -31
q35 -8 78 -10v210q-23 8 -44 17.5t-41 19.5q-27 13 -47.5 27.5t-35 34t-21.5 44.5t-7 60q0 63 38 106.5t104 58.5q23 7 54 10v89zM362 101q34 25 34 65q0 30 -16.5 50t-39.5 32q-8 4 -17.5 8t-19.5 8v-184q36 6 59 21zM182 560q-34 -22 -34 -63q0 -32 17.5 -52.5t46.5 -33.5
q10 -6 27 -13v183q-36 -6 -57 -21z" />
    <glyph glyph-name="plus.onum" 
d="M325 224v-162h-88v162h-166v83h166v163h88v-163h167v-83h-167z" />
    <glyph glyph-name="zero.onum" 
d="M279 -11q-67 0 -113.5 27t-75 73t-41.5 107.5t-13 131.5q0 73 13.5 135t42.5 108t76 72t115 26q66 0 112.5 -26.5t75.5 -72t42 -107.5t13 -133q0 -72 -13.5 -134.5t-42.5 -108.5t-76.5 -72t-114.5 -26zM284 588q-41 0 -68.5 -19t-44.5 -53.5t-24.5 -82.5t-7.5 -105
q0 -58 7.5 -105.5t24 -81.5t43.5 -52.5t65 -18.5q39 0 66.5 18.5t44.5 52.5t24.5 82t7.5 107q0 54 -7 101t-23 82t-42.5 55t-65.5 20z" />
    <glyph glyph-name="one.onum" 
d="M261 0v558l-139 -69l-32 67l204 103h71v-659h-104z" />
    <glyph glyph-name="two.onum" 
d="M511 0h-451v60l218 224q30 31 50 57t32.5 49t17.5 44.5t5 43.5q0 55 -36.5 82.5t-91.5 27.5q-49 0 -91 -14t-80 -36l-34 72q51 28 103 43.5t109 15.5q51 0 93 -10.5t73 -33t48 -58t17 -86.5q0 -33 -10.5 -63.5t-29 -60t-43.5 -59t-54 -59.5l-153 -157h308v-82z" />
    <glyph glyph-name="three.onum" 
d="M264 -11q-79 0 -136.5 23.5t-88.5 53.5l54 67q27 -20 69.5 -39t99.5 -19q65 0 106 28.5t41 87.5q0 55 -39.5 83.5t-111.5 28.5q-23 0 -38.5 -2t-24.5 -4l-2 86h38q28 0 56 5.5t50.5 18t36.5 32.5t14 50q0 52 -33.5 74.5t-88.5 22.5q-48 0 -90 -17.5t-70 -36.5l-42 69
q14 11 35 23t48 22t59.5 16.5t68.5 6.5q103 0 162 -40t59 -130q0 -26 -8.5 -48.5t-23 -40.5t-33.5 -31t-40 -20q57 -19 93.5 -59t36.5 -110q0 -51 -19 -88.5t-52.5 -62.5t-81 -37.5t-104.5 -12.5z" />
    <glyph glyph-name="four.onum" 
d="M445 659v-438h87v-79h-87v-142h-103v142h-318v62l262 455h159zM342 221v355h-8l-200 -355h208z" />
    <glyph glyph-name="five.onum" 
d="M97 334v325h374v-81h-270v-164h31q66 0 118 -11t88 -35.5t55 -63.5t19 -94q0 -109 -68 -165t-183 -56q-73 0 -123.5 23.5t-83.5 54.5l58 68q28 -25 64 -43t87 -18q69 0 105.5 32t36.5 95q0 36 -14 61.5t-38.5 41.5t-57.5 23t-72 7h-126z" />
    <glyph glyph-name="six.onum" 
d="M50 298q0 87 17 156t53 117t92 73.5t135 25.5q43 0 77.5 -6.5t62.5 -18.5l-24 -77q-22 9 -50.5 14.5t-59.5 5.5q-45 0 -78 -13t-55.5 -36.5t-36 -56t-19.5 -71.5l-4 -28q11 8 24.5 14t27.5 11q45 14 90 14q106 0 159.5 -51t53.5 -154q0 -51 -15 -93t-44 -72t-72 -46
t-98 -16q-115 0 -175.5 72t-60.5 236zM161 213q3 -31 11.5 -57.5t23.5 -45.5t37.5 -30t53.5 -11q58 0 90.5 35t32.5 107q0 61 -33.5 93.5t-91.5 32.5q-46 0 -83 -15q-13 -5 -24.5 -11.5t-21.5 -13.5q0 -22 1.5 -43t3.5 -41z" />
    <glyph glyph-name="seven.onum" 
d="M168 0l235 577h-360v82h477v-57l-243 -602h-109z" />
    <glyph glyph-name="eight.onum" 
d="M404 342q24 -8 46 -22t38.5 -35t26 -47.5t9.5 -59.5q0 -94 -64 -141.5t-178 -47.5q-115 0 -179.5 47.5t-64.5 141.5q0 31 9.5 58t26 48.5t38 36t46.5 21.5q-43 19 -72.5 54.5t-29.5 95.5q0 85 58.5 131t167.5 46q108 0 166 -46t58 -131q0 -60 -29.5 -96t-72.5 -54z
M411 185q0 55 -34.5 84t-94.5 29q-64 0 -98.5 -29t-34.5 -84q0 -57 34.5 -87t98.5 -30q60 0 94.5 30t34.5 87zM395 484q0 52 -29.5 79t-83.5 27q-57 0 -87.5 -27t-30.5 -79q0 -51 30.5 -78.5t87.5 -27.5q54 0 83.5 27.5t29.5 78.5z" />
    <glyph glyph-name="nine.onum" 
d="M513 361q0 -87 -17 -156t-53 -117t-92 -73.5t-135 -25.5q-43 0 -77.5 6.5t-62.5 18.5l24 77q22 -9 50.5 -14.5t59.5 -5.5q45 0 78 13t55.5 36.5t36 56t19.5 71.5l4 28q-11 -8 -24.5 -14t-27.5 -11q-45 -14 -90 -14q-106 0 -159.5 51t-53.5 154q0 51 15 93t44 72t71.5 46
t98.5 16q115 0 175.5 -72t60.5 -236zM402 446q-3 31 -11.5 57.5t-23.5 45.5t-37.5 30t-53.5 11q-58 0 -90.5 -35t-32.5 -107q0 -61 33.5 -93.5t91.5 -32.5q45 0 83 15q13 5 24.5 11.5t21.5 13.5q0 22 -1.5 43t-3.5 41z" />
    <glyph glyph-name="less.onum" 
d="M379 -12l-277 277l277 278l64 -59l-216 -215l217 -217z" />
    <glyph glyph-name="equal.onum" 
d="M493 153h-424v82h424v-82zM493 296h-424v82h424v-82z" />
    <glyph glyph-name="greater.onum" 
d="M164 543l277 -277l-277 -278l-64 59l216 215l-217 217z" />
    <glyph glyph-name="cent.onum" horiz-adv-x="455" 
d="M287 -92h-64v82q-105 8 -150 67t-45 165q0 112 49 172t146 72v84h64v-82q43 -4 79 -19.5t56 -37.5l-58 -57q-29 33 -77 38v-328q31 2 56 10t49 20l20 -65q-20 -12 -51.5 -22.5t-73.5 -15.5v-83zM132 221q0 -63 20 -103t71 -51v322q-45 -12 -68 -52.5t-23 -115.5z" />
    <glyph glyph-name="sterling.onum" horiz-adv-x="492" 
d="M340 669q64 0 115 -19l-28 -74q-38 15 -83 15q-61 0 -90.5 -31t-29.5 -112v-92h196v-78h-197v-21q0 -63 -15 -103t-52 -71h291v-83h-407v71q45 33 62 77.5t17 108.5v21h-76v78h76v89q0 66 16.5 109t46 68.5t70 36t88.5 10.5z" />
    <glyph glyph-name="notequal.onum" 
d="M313 287h180v-82h-227l-54 -94l-73 41l31 53h-101v82h148l33 58h-181v81h228l51 89l73 -41l-28 -48h100v-81h-146z" />
    <glyph glyph-name="plusminus.onum" 
d="M325 289v-162h-88v162h-166v83h166v163h88v-163h167v-83h-167zM493 0h-424v83h424v-83z" />
    <glyph glyph-name="yen.onum" horiz-adv-x="586" 
d="M524 185h-180v-185h-104v185h-179v63h179v33l-18 28h-161v64h122q-4 5 -7.5 10.5t-7.5 12.5q-22 36 -45.5 74.5t-46 74.5t-41.5 66t-31 48h123l162 -281h9l162 281h121l-180 -286h123v-64h-163l-17 -27v-34h180v-63z" />
    <glyph glyph-name="florin.onum" 
d="M317 -45q0 -51 -12.5 -85.5t-35.5 -55.5t-56 -30t-75 -9q-19 0 -37 2t-37 6l13 76q24 -6 52 -6q45 0 65 22.5t20 79.5v341h-74v74h74v126q0 51 13.5 85.5t37.5 55.5t57.5 30t73.5 9q28 0 56 -4.5t49 -12.5l-22 -74q-18 9 -35 11t-37 2q-52 0 -71 -24t-19 -78v-126h152
v-74h-152v-341z" />
    <glyph glyph-name="approxequal.onum" 
d="M485 393q-30 -29 -60 -46.5t-72 -17.5q-18 0 -36.5 5t-50.5 19q-16 7 -29.5 12.5t-26.5 5.5q-22 0 -42 -7.5t-49 -30.5l-44 57q31 27 63 45t72 18q18 0 35 -4t40 -15q26 -11 40 -17t28 -6q24 0 43.5 9t42.5 30zM485 242q-30 -29 -60 -46.5t-72 -17.5q-18 0 -36.5 5
t-50.5 19q-16 7 -29.5 12.5t-26.5 5.5q-22 0 -42 -7.5t-49 -30.5l-44 57q31 27 63 45t72 18q18 0 35 -4t40 -15q26 -11 40 -17t28 -6q24 0 43.5 9t42.5 30z" />
    <glyph glyph-name="divide.onum" horiz-adv-x="533" 
d="M321 367h-108v103h108v-103zM213 164h108v-103h-108v103zM58 307h416v-83h-416v83z" />
    <glyph glyph-name="Euro.onum" horiz-adv-x="619" 
d="M404 -11q-155 2 -224 87q-49 59 -62 157h-102l23 63h73v33v27h-95l23 64h78q15 107 70 166q78 83 223 83q48 0 94 -12t83 -38l-32 -88q-27 25 -61.5 40t-80.5 15q-102 0 -149 -68q-27 -37 -39 -98h290l-23 -64h-273q-1 -9 -1 -18v-18v-24h252l-24 -63h-221q10 -57 38 -94
q47 -62 147 -62q43 0 80.5 7t69.5 20v-91q-37 -11 -76 -17.5t-81 -6.5z" />
    <glyph glyph-name="minus.tnum" 
d="M493 224h-424v83h424v-83z" />
    <glyph glyph-name="multiply.tnum" 
d="M433 50l-151 151l-152 -151l-65 64l152 151l-152 153l65 64l152 -152l151 152l64 -64l-151 -153l151 -151z" />
    <glyph glyph-name="numbersign.tnum" horiz-adv-x="533" 
d="M469 320h-78v-108h78v-71h-78v-67h-77v67h-96v-67h-77v67h-78v71h78v108h-78v71h78v67h77v-67h96v67h77v-67h78v-71zM218 212h96v108h-96v-108z" />
    <glyph glyph-name="dollar.tnum" horiz-adv-x="532" 
d="M239 754h64v-87q44 -1 90 -11q53 -9 97 -32l-37 -78q-33 16 -74 26q-36 11 -76 12v-210l43 -17q11 -5 22.5 -10t22.5 -10q22 -12 42 -25.5t34.5 -32.5t23 -45t8.5 -62q0 -89 -67 -135q-51 -36 -129 -45v-81h-64v79q-47 2 -98 12q-59 12 -106 37l39 79q43 -20 87 -31
q35 -8 78 -10v210q-23 8 -44 17.5t-41 19.5q-27 13 -47.5 27.5t-35 34t-21.5 44.5t-7 60q0 63 38 106.5t104 58.5q23 7 54 10v89zM362 101q34 25 34 65q0 30 -16.5 50t-39.5 32q-8 4 -17.5 8t-19.5 8v-184q36 6 59 21zM182 560q-34 -22 -34 -63q0 -32 17.5 -52.5t46.5 -33.5
q10 -6 27 -13v183q-36 -6 -57 -21z" />
    <glyph glyph-name="plus.tnum" 
d="M325 224v-162h-88v162h-166v83h166v163h88v-163h167v-83h-167z" />
    <glyph glyph-name="zero.tnum" 
d="M279 -11q-67 0 -113.5 27t-75 73t-41.5 107.5t-13 131.5q0 73 13.5 135t42.5 108t76 72t115 26q66 0 112.5 -26.5t75.5 -72t42 -107.5t13 -133q0 -72 -13.5 -134.5t-42.5 -108.5t-76.5 -72t-114.5 -26zM284 588q-41 0 -68.5 -19t-44.5 -53.5t-24.5 -82.5t-7.5 -105
q0 -58 7.5 -105.5t24 -81.5t43.5 -52.5t65 -18.5q39 0 66.5 18.5t44.5 52.5t24.5 82t7.5 107q0 54 -7 101t-23 82t-42.5 55t-65.5 20z" />
    <glyph glyph-name="one.tnum" 
d="M261 0v558l-139 -69l-32 67l204 103h71v-659h-104z" />
    <glyph glyph-name="two.tnum" 
d="M511 0h-451v60l218 224q30 31 50 57t32.5 49t17.5 44.5t5 43.5q0 55 -36.5 82.5t-91.5 27.5q-49 0 -91 -14t-80 -36l-34 72q51 28 103 43.5t109 15.5q51 0 93 -10.5t73 -33t48 -58t17 -86.5q0 -33 -10.5 -63.5t-29 -60t-43.5 -59t-54 -59.5l-153 -157h308v-82z" />
    <glyph glyph-name="three.tnum" 
d="M264 -11q-79 0 -136.5 23.5t-88.5 53.5l54 67q27 -20 69.5 -39t99.5 -19q65 0 106 28.5t41 87.5q0 55 -39.5 83.5t-111.5 28.5q-23 0 -38.5 -2t-24.5 -4l-2 86h38q28 0 56 5.5t50.5 18t36.5 32.5t14 50q0 52 -33.5 74.5t-88.5 22.5q-48 0 -90 -17.5t-70 -36.5l-42 69
q14 11 35 23t48 22t59.5 16.5t68.5 6.5q103 0 162 -40t59 -130q0 -26 -8.5 -48.5t-23 -40.5t-33.5 -31t-40 -20q57 -19 93.5 -59t36.5 -110q0 -51 -19 -88.5t-52.5 -62.5t-81 -37.5t-104.5 -12.5z" />
    <glyph glyph-name="four.tnum" 
d="M445 659v-438h87v-79h-87v-142h-103v142h-318v62l262 455h159zM342 221v355h-8l-200 -355h208z" />
    <glyph glyph-name="five.tnum" 
d="M97 334v325h374v-81h-270v-164h31q66 0 118 -11t88 -35.5t55 -63.5t19 -94q0 -109 -68 -165t-183 -56q-73 0 -123.5 23.5t-83.5 54.5l58 68q28 -25 64 -43t87 -18q69 0 105.5 32t36.5 95q0 36 -14 61.5t-38.5 41.5t-57.5 23t-72 7h-126z" />
    <glyph glyph-name="six.tnum" 
d="M50 298q0 87 17 156t53 117t92 73.5t135 25.5q43 0 77.5 -6.5t62.5 -18.5l-24 -77q-22 9 -50.5 14.5t-59.5 5.5q-45 0 -78 -13t-55.5 -36.5t-36 -56t-19.5 -71.5l-4 -28q11 8 24.5 14t27.5 11q45 14 90 14q106 0 159.5 -51t53.5 -154q0 -51 -15 -93t-44 -72t-72 -46
t-98 -16q-115 0 -175.5 72t-60.5 236zM161 213q3 -31 11.5 -57.5t23.5 -45.5t37.5 -30t53.5 -11q58 0 90.5 35t32.5 107q0 61 -33.5 93.5t-91.5 32.5q-46 0 -83 -15q-13 -5 -24.5 -11.5t-21.5 -13.5q0 -22 1.5 -43t3.5 -41z" />
    <glyph glyph-name="seven.tnum" 
d="M168 0l235 577h-360v82h477v-57l-243 -602h-109z" />
    <glyph glyph-name="eight.tnum" 
d="M404 342q24 -8 46 -22t38.5 -35t26 -47.5t9.5 -59.5q0 -94 -64 -141.5t-178 -47.5q-115 0 -179.5 47.5t-64.5 141.5q0 31 9.5 58t26 48.5t38 36t46.5 21.5q-43 19 -72.5 54.5t-29.5 95.5q0 85 58.5 131t167.5 46q108 0 166 -46t58 -131q0 -60 -29.5 -96t-72.5 -54z
M411 185q0 55 -34.5 84t-94.5 29q-64 0 -98.5 -29t-34.5 -84q0 -57 34.5 -87t98.5 -30q60 0 94.5 30t34.5 87zM395 484q0 52 -29.5 79t-83.5 27q-57 0 -87.5 -27t-30.5 -79q0 -51 30.5 -78.5t87.5 -27.5q54 0 83.5 27.5t29.5 78.5z" />
    <glyph glyph-name="nine.tnum" 
d="M513 361q0 -87 -17 -156t-53 -117t-92 -73.5t-135 -25.5q-43 0 -77.5 6.5t-62.5 18.5l24 77q22 -9 50.5 -14.5t59.5 -5.5q45 0 78 13t55.5 36.5t36 56t19.5 71.5l4 28q-11 -8 -24.5 -14t-27.5 -11q-45 -14 -90 -14q-106 0 -159.5 51t-53.5 154q0 51 15 93t44 72t71.5 46
t98.5 16q115 0 175.5 -72t60.5 -236zM402 446q-3 31 -11.5 57.5t-23.5 45.5t-37.5 30t-53.5 11q-58 0 -90.5 -35t-32.5 -107q0 -61 33.5 -93.5t91.5 -32.5q45 0 83 15q13 5 24.5 11.5t21.5 13.5q0 22 -1.5 43t-3.5 41z" />
    <glyph glyph-name="less.tnum" 
d="M379 -12l-277 277l277 278l64 -59l-216 -215l217 -217z" />
    <glyph glyph-name="equal.tnum" 
d="M493 153h-424v82h424v-82zM493 296h-424v82h424v-82z" />
    <glyph glyph-name="greater.tnum" 
d="M164 543l277 -277l-277 -278l-64 59l216 215l-217 217z" />
    <glyph glyph-name="cent.tnum" horiz-adv-x="455" 
d="M287 -92h-64v82q-105 8 -150 67t-45 165q0 112 49 172t146 72v84h64v-82q43 -4 79 -19.5t56 -37.5l-58 -57q-29 33 -77 38v-328q31 2 56 10t49 20l20 -65q-20 -12 -51.5 -22.5t-73.5 -15.5v-83zM132 221q0 -63 20 -103t71 -51v322q-45 -12 -68 -52.5t-23 -115.5z" />
    <glyph glyph-name="sterling.tnum" horiz-adv-x="492" 
d="M340 669q64 0 115 -19l-28 -74q-38 15 -83 15q-61 0 -90.5 -31t-29.5 -112v-92h196v-78h-197v-21q0 -63 -15 -103t-52 -71h291v-83h-407v71q45 33 62 77.5t17 108.5v21h-76v78h76v89q0 66 16.5 109t46 68.5t70 36t88.5 10.5z" />
    <glyph glyph-name="notequal.tnum" 
d="M313 287h180v-82h-227l-54 -94l-73 41l31 53h-101v82h148l33 58h-181v81h228l51 89l73 -41l-28 -48h100v-81h-146z" />
    <glyph glyph-name="plusminus.tnum" 
d="M325 289v-162h-88v162h-166v83h166v163h88v-163h167v-83h-167zM493 0h-424v83h424v-83z" />
    <glyph glyph-name="yen.tnum" horiz-adv-x="586" 
d="M524 185h-180v-185h-104v185h-179v63h179v33l-18 28h-161v64h122q-4 5 -7.5 10.5t-7.5 12.5q-22 36 -45.5 74.5t-46 74.5t-41.5 66t-31 48h123l162 -281h9l162 281h121l-180 -286h123v-64h-163l-17 -27v-34h180v-63z" />
    <glyph glyph-name="florin.tnum" 
d="M317 -45q0 -51 -12.5 -85.5t-35.5 -55.5t-56 -30t-75 -9q-19 0 -37 2t-37 6l13 76q24 -6 52 -6q45 0 65 22.5t20 79.5v341h-74v74h74v126q0 51 13.5 85.5t37.5 55.5t57.5 30t73.5 9q28 0 56 -4.5t49 -12.5l-22 -74q-18 9 -35 11t-37 2q-52 0 -71 -24t-19 -78v-126h152
v-74h-152v-341z" />
    <glyph glyph-name="approxequal.tnum" 
d="M485 393q-30 -29 -60 -46.5t-72 -17.5q-18 0 -36.5 5t-50.5 19q-16 7 -29.5 12.5t-26.5 5.5q-22 0 -42 -7.5t-49 -30.5l-44 57q31 27 63 45t72 18q18 0 35 -4t40 -15q26 -11 40 -17t28 -6q24 0 43.5 9t42.5 30zM485 242q-30 -29 -60 -46.5t-72 -17.5q-18 0 -36.5 5
t-50.5 19q-16 7 -29.5 12.5t-26.5 5.5q-22 0 -42 -7.5t-49 -30.5l-44 57q31 27 63 45t72 18q18 0 35 -4t40 -15q26 -11 40 -17t28 -6q24 0 43.5 9t42.5 30z" />
    <glyph glyph-name="divide.tnum" horiz-adv-x="533" 
d="M321 367h-108v103h108v-103zM213 164h108v-103h-108v103zM58 307h416v-83h-416v83z" />
    <glyph glyph-name="Euro.tnum" horiz-adv-x="619" 
d="M404 -11q-155 2 -224 87q-49 59 -62 157h-102l23 63h73v33v27h-95l23 64h78q15 107 70 166q78 83 223 83q48 0 94 -12t83 -38l-32 -88q-27 25 -61.5 40t-80.5 15q-102 0 -149 -68q-27 -37 -39 -98h290l-23 -64h-273q-1 -9 -1 -18v-18v-24h252l-24 -63h-221q10 -57 38 -94
q47 -62 147 -62q43 0 80.5 7t69.5 20v-91q-37 -11 -76 -17.5t-81 -6.5z" />
    <glyph glyph-name="minusonum.tnum" 
d="M493 224h-424v83h424v-83z" />
    <glyph glyph-name="multiplyonum.tnum" 
d="M433 50l-151 151l-152 -151l-65 64l152 151l-152 153l65 64l152 -152l151 152l64 -64l-151 -153l151 -151z" />
    <glyph glyph-name="numbersignonum.tnum" horiz-adv-x="533" 
d="M469 320h-78v-108h78v-71h-78v-67h-77v67h-96v-67h-77v67h-78v71h78v108h-78v71h78v67h77v-67h96v67h77v-67h78v-71zM218 212h96v108h-96v-108z" />
    <glyph glyph-name="dollaronum.tnum" horiz-adv-x="532" 
d="M239 754h64v-87q44 -1 90 -11q53 -9 97 -32l-37 -78q-33 16 -74 26q-36 11 -76 12v-210l43 -17q11 -5 22.5 -10t22.5 -10q22 -12 42 -25.5t34.5 -32.5t23 -45t8.5 -62q0 -89 -67 -135q-51 -36 -129 -45v-81h-64v79q-47 2 -98 12q-59 12 -106 37l39 79q43 -20 87 -31
q35 -8 78 -10v210q-23 8 -44 17.5t-41 19.5q-27 13 -47.5 27.5t-35 34t-21.5 44.5t-7 60q0 63 38 106.5t104 58.5q23 7 54 10v89zM362 101q34 25 34 65q0 30 -16.5 50t-39.5 32q-8 4 -17.5 8t-19.5 8v-184q36 6 59 21zM182 560q-34 -22 -34 -63q0 -32 17.5 -52.5t46.5 -33.5
q10 -6 27 -13v183q-36 -6 -57 -21z" />
    <glyph glyph-name="plusonum.tnum" 
d="M325 224v-162h-88v162h-166v83h166v163h88v-163h167v-83h-167z" />
    <glyph glyph-name="zeroonum.tnum" 
d="M279 -11q-67 0 -113.5 27t-75 73t-41.5 107.5t-13 131.5q0 73 13.5 135t42.5 108t76 72t115 26q66 0 112.5 -26.5t75.5 -72t42 -107.5t13 -133q0 -72 -13.5 -134.5t-42.5 -108.5t-76.5 -72t-114.5 -26zM284 588q-41 0 -68.5 -19t-44.5 -53.5t-24.5 -82.5t-7.5 -105
q0 -58 7.5 -105.5t24 -81.5t43.5 -52.5t65 -18.5q39 0 66.5 18.5t44.5 52.5t24.5 82t7.5 107q0 54 -7 101t-23 82t-42.5 55t-65.5 20z" />
    <glyph glyph-name="oneonum.tnum" 
d="M261 0v558l-139 -69l-32 67l204 103h71v-659h-104z" />
    <glyph glyph-name="twoonum.tnum" 
d="M511 0h-451v60l218 224q30 31 50 57t32.5 49t17.5 44.5t5 43.5q0 55 -36.5 82.5t-91.5 27.5q-49 0 -91 -14t-80 -36l-34 72q51 28 103 43.5t109 15.5q51 0 93 -10.5t73 -33t48 -58t17 -86.5q0 -33 -10.5 -63.5t-29 -60t-43.5 -59t-54 -59.5l-153 -157h308v-82z" />
    <glyph glyph-name="threeonum.tnum" 
d="M264 -11q-79 0 -136.5 23.5t-88.5 53.5l54 67q27 -20 69.5 -39t99.5 -19q65 0 106 28.5t41 87.5q0 55 -39.5 83.5t-111.5 28.5q-23 0 -38.5 -2t-24.5 -4l-2 86h38q28 0 56 5.5t50.5 18t36.5 32.5t14 50q0 52 -33.5 74.5t-88.5 22.5q-48 0 -90 -17.5t-70 -36.5l-42 69
q14 11 35 23t48 22t59.5 16.5t68.5 6.5q103 0 162 -40t59 -130q0 -26 -8.5 -48.5t-23 -40.5t-33.5 -31t-40 -20q57 -19 93.5 -59t36.5 -110q0 -51 -19 -88.5t-52.5 -62.5t-81 -37.5t-104.5 -12.5z" />
    <glyph glyph-name="fouronum.tnum" 
d="M445 659v-438h87v-79h-87v-142h-103v142h-318v62l262 455h159zM342 221v355h-8l-200 -355h208z" />
    <glyph glyph-name="fiveonum.tnum" 
d="M97 334v325h374v-81h-270v-164h31q66 0 118 -11t88 -35.5t55 -63.5t19 -94q0 -109 -68 -165t-183 -56q-73 0 -123.5 23.5t-83.5 54.5l58 68q28 -25 64 -43t87 -18q69 0 105.5 32t36.5 95q0 36 -14 61.5t-38.5 41.5t-57.5 23t-72 7h-126z" />
    <glyph glyph-name="sixonum.tnum" 
d="M50 298q0 87 17 156t53 117t92 73.5t135 25.5q43 0 77.5 -6.5t62.5 -18.5l-24 -77q-22 9 -50.5 14.5t-59.5 5.5q-45 0 -78 -13t-55.5 -36.5t-36 -56t-19.5 -71.5l-4 -28q11 8 24.5 14t27.5 11q45 14 90 14q106 0 159.5 -51t53.5 -154q0 -51 -15 -93t-44 -72t-72 -46
t-98 -16q-115 0 -175.5 72t-60.5 236zM161 213q3 -31 11.5 -57.5t23.5 -45.5t37.5 -30t53.5 -11q58 0 90.5 35t32.5 107q0 61 -33.5 93.5t-91.5 32.5q-46 0 -83 -15q-13 -5 -24.5 -11.5t-21.5 -13.5q0 -22 1.5 -43t3.5 -41z" />
    <glyph glyph-name="sevenonum.tnum" 
d="M168 0l235 577h-360v82h477v-57l-243 -602h-109z" />
    <glyph glyph-name="eightonum.tnum" 
d="M404 342q24 -8 46 -22t38.5 -35t26 -47.5t9.5 -59.5q0 -94 -64 -141.5t-178 -47.5q-115 0 -179.5 47.5t-64.5 141.5q0 31 9.5 58t26 48.5t38 36t46.5 21.5q-43 19 -72.5 54.5t-29.5 95.5q0 85 58.5 131t167.5 46q108 0 166 -46t58 -131q0 -60 -29.5 -96t-72.5 -54z
M411 185q0 55 -34.5 84t-94.5 29q-64 0 -98.5 -29t-34.5 -84q0 -57 34.5 -87t98.5 -30q60 0 94.5 30t34.5 87zM395 484q0 52 -29.5 79t-83.5 27q-57 0 -87.5 -27t-30.5 -79q0 -51 30.5 -78.5t87.5 -27.5q54 0 83.5 27.5t29.5 78.5z" />
    <glyph glyph-name="nineonum.tnum" 
d="M513 361q0 -87 -17 -156t-53 -117t-92 -73.5t-135 -25.5q-43 0 -77.5 6.5t-62.5 18.5l24 77q22 -9 50.5 -14.5t59.5 -5.5q45 0 78 13t55.5 36.5t36 56t19.5 71.5l4 28q-11 -8 -24.5 -14t-27.5 -11q-45 -14 -90 -14q-106 0 -159.5 51t-53.5 154q0 51 15 93t44 72t71.5 46
t98.5 16q115 0 175.5 -72t60.5 -236zM402 446q-3 31 -11.5 57.5t-23.5 45.5t-37.5 30t-53.5 11q-58 0 -90.5 -35t-32.5 -107q0 -61 33.5 -93.5t91.5 -32.5q45 0 83 15q13 5 24.5 11.5t21.5 13.5q0 22 -1.5 43t-3.5 41z" />
    <glyph glyph-name="lessonum.tnum" 
d="M379 -12l-277 277l277 278l64 -59l-216 -215l217 -217z" />
    <glyph glyph-name="equalonum.tnum" 
d="M493 153h-424v82h424v-82zM493 296h-424v82h424v-82z" />
    <glyph glyph-name="greateronum.tnum" 
d="M164 543l277 -277l-277 -278l-64 59l216 215l-217 217z" />
    <glyph glyph-name="centonum.tnum" horiz-adv-x="455" 
d="M287 -92h-64v82q-105 8 -150 67t-45 165q0 112 49 172t146 72v84h64v-82q43 -4 79 -19.5t56 -37.5l-58 -57q-29 33 -77 38v-328q31 2 56 10t49 20l20 -65q-20 -12 -51.5 -22.5t-73.5 -15.5v-83zM132 221q0 -63 20 -103t71 -51v322q-45 -12 -68 -52.5t-23 -115.5z" />
    <glyph glyph-name="sterlingonum.tnum" horiz-adv-x="492" 
d="M340 669q64 0 115 -19l-28 -74q-38 15 -83 15q-61 0 -90.5 -31t-29.5 -112v-92h196v-78h-197v-21q0 -63 -15 -103t-52 -71h291v-83h-407v71q45 33 62 77.5t17 108.5v21h-76v78h76v89q0 66 16.5 109t46 68.5t70 36t88.5 10.5z" />
    <glyph glyph-name="notequalonum.tnum" 
d="M313 287h180v-82h-227l-54 -94l-73 41l31 53h-101v82h148l33 58h-181v81h228l51 89l73 -41l-28 -48h100v-81h-146z" />
    <glyph glyph-name="plusminusonum.tnum" 
d="M325 289v-162h-88v162h-166v83h166v163h88v-163h167v-83h-167zM493 0h-424v83h424v-83z" />
    <glyph glyph-name="yenonum.tnum" horiz-adv-x="586" 
d="M524 185h-180v-185h-104v185h-179v63h179v33l-18 28h-161v64h122q-4 5 -7.5 10.5t-7.5 12.5q-22 36 -45.5 74.5t-46 74.5t-41.5 66t-31 48h123l162 -281h9l162 281h121l-180 -286h123v-64h-163l-17 -27v-34h180v-63z" />
    <glyph glyph-name="florinonum.tnum" 
d="M317 -45q0 -51 -12.5 -85.5t-35.5 -55.5t-56 -30t-75 -9q-19 0 -37 2t-37 6l13 76q24 -6 52 -6q45 0 65 22.5t20 79.5v341h-74v74h74v126q0 51 13.5 85.5t37.5 55.5t57.5 30t73.5 9q28 0 56 -4.5t49 -12.5l-22 -74q-18 9 -35 11t-37 2q-52 0 -71 -24t-19 -78v-126h152
v-74h-152v-341z" />
    <glyph glyph-name="approxequalonum.tnum" 
d="M485 393q-30 -29 -60 -46.5t-72 -17.5q-18 0 -36.5 5t-50.5 19q-16 7 -29.5 12.5t-26.5 5.5q-22 0 -42 -7.5t-49 -30.5l-44 57q31 27 63 45t72 18q18 0 35 -4t40 -15q26 -11 40 -17t28 -6q24 0 43.5 9t42.5 30zM485 242q-30 -29 -60 -46.5t-72 -17.5q-18 0 -36.5 5
t-50.5 19q-16 7 -29.5 12.5t-26.5 5.5q-22 0 -42 -7.5t-49 -30.5l-44 57q31 27 63 45t72 18q18 0 35 -4t40 -15q26 -11 40 -17t28 -6q24 0 43.5 9t42.5 30z" />
    <glyph glyph-name="divideonum.tnum" horiz-adv-x="533" 
d="M321 367h-108v103h108v-103zM213 164h108v-103h-108v103zM58 307h416v-83h-416v83z" />
    <glyph glyph-name="Euroonum.tnum" horiz-adv-x="619" 
d="M404 -11q-155 2 -224 87q-49 59 -62 157h-102l23 63h73v33v27h-95l23 64h78q15 107 70 166q78 83 223 83q48 0 94 -12t83 -38l-32 -88q-27 25 -61.5 40t-80.5 15q-102 0 -149 -68q-27 -37 -39 -98h290l-23 -64h-273q-1 -9 -1 -18v-18v-24h252l-24 -63h-221q10 -57 38 -94
q47 -62 147 -62q43 0 80.5 7t69.5 20v-91q-37 -11 -76 -17.5t-81 -6.5z" />
    <glyph glyph-name="parenleft.smcp" horiz-adv-x="343" 
d="M49 265q0 79 13 141.5t38 116.5t61.5 102.5t83.5 98.5l64 -53q-41 -45 -70.5 -88.5t-49 -91t-29 -102.5t-9.5 -124t10 -125t29.5 -104.5t49.5 -92.5t69 -89l-64 -53q-46 50 -82.5 98.5t-61.5 103t-38.5 118.5t-13.5 144z" />
    <glyph glyph-name="parenright.smcp" horiz-adv-x="343" 
d="M294 265q0 -81 -13.5 -144.5t-38.5 -117.5t-61.5 -102.5t-81.5 -99.5l-65 53q39 45 68.5 88.5t50 92t30.5 105t10 125.5t-10 124t-30 103t-49.5 91t-69.5 88l65 53q45 -51 81.5 -99t61.5 -101.5t38.5 -116.5t13.5 -142z" />
    <glyph glyph-name="bracketleft.smcp" horiz-adv-x="342" 
d="M298 -195h-249v892h249v-83h-146v-728h146v-81z" />
    <glyph glyph-name="bracketright.smcp" horiz-adv-x="342" 
d="M44 -114h147v728h-147v83h250v-892h-250v81z" />
    <glyph glyph-name="a.smcp" horiz-adv-x="633" 
d="M510 0l-62 182h-268l-62 -182h-112l239 659h144l236 -659h-115zM310 576l-102 -310h211l-101 310h-8z" />
    <glyph glyph-name="b.smcp" horiz-adv-x="588" 
d="M431 351q52 -16 85.5 -55t33.5 -105q0 -51 -17.5 -87t-47.5 -59.5t-70 -34t-85 -10.5h-259v659h246q99 0 156.5 -37.5t57.5 -126.5q0 -54 -26 -90t-74 -54zM422 480q0 29 -9 47.5t-24 29t-35 14.5t-43 4h-138v-193h142q52 0 79.5 25t27.5 73zM314 83q25 0 48 4.5t40 16.5
t27.5 33t10.5 54q0 32 -9.5 53.5t-26 34t-38.5 18t-48 5.5h-145v-219h141z" />
    <glyph glyph-name="c.smcp" horiz-adv-x="597" 
d="M337 -11q-155 1 -224 86.5t-69 253.5q0 175 78.5 257.5t223.5 82.5q30 0 61 -5.5t59.5 -16t53 -27t42.5 -38.5l-62 -61q-28 31 -63.5 48t-87.5 17q-103 0 -150 -67t-47 -199q0 -120 45.5 -181t144.5 -61q60 0 107 12.5t85 28.5l25 -81q-40 -21 -99.5 -35t-122.5 -14z" />
    <glyph glyph-name="d.smcp" horiz-adv-x="647" 
d="M271 659q79 0 140.5 -18t104 -57.5t64.5 -103t22 -153.5q0 -93 -27 -156t-74.5 -101t-113 -54t-142.5 -16h-174v659h200zM242 83q59 0 105.5 12t79 41t49.5 78t17 124q0 123 -57.5 180t-165.5 57h-95v-492h67z" />
    <glyph glyph-name="e.smcp" horiz-adv-x="542" 
d="M490 83v-83h-419v659h408v-84h-304v-195h294v-82h-294v-215h315z" />
    <glyph glyph-name="f.smcp" horiz-adv-x="505" 
d="M175 0h-104v659h394v-84h-290v-195h269v-82h-269v-298z" />
    </font>
</defs>
</svg>
